<svg width="202" height="63" viewBox="0 0 202 63" fill="none" xmlns="http://www.w3.org/2000/svg">
<rect width="202" height="62.5915" rx="8" fill="#04150F"/>
<path d="M68.8289 24.5785C68.7367 24.5785 68.6654 24.5533 68.6151 24.503C68.5648 24.4443 68.5396 24.373 68.5396 24.2892V16.0755C68.5396 15.9833 68.5648 15.912 68.6151 15.8617C68.6654 15.803 68.7367 15.7737 68.8289 15.7737H72.2754C72.9043 15.7737 73.4158 15.8785 73.8099 16.0881C74.2124 16.2894 74.5059 16.5661 74.6904 16.9183C74.8833 17.2705 74.9797 17.6646 74.9797 18.1007C74.9797 18.4445 74.921 18.7422 74.8036 18.9937C74.6946 19.2369 74.5563 19.4382 74.3885 19.5975C74.2208 19.7484 74.0573 19.8658 73.898 19.9497C74.225 20.109 74.5143 20.3689 74.7659 20.7295C75.0258 21.0901 75.1558 21.5262 75.1558 22.0377C75.1558 22.4989 75.051 22.9223 74.8414 23.3081C74.6317 23.6938 74.3173 24.0041 73.898 24.2389C73.4871 24.4653 72.9756 24.5785 72.3634 24.5785H68.8289ZM69.7723 23.5596H72.1999C72.745 23.5596 73.1643 23.4129 73.4577 23.1194C73.7512 22.8259 73.898 22.4653 73.898 22.0377C73.898 21.5932 73.7512 21.2285 73.4577 20.9434C73.1643 20.6499 72.745 20.5031 72.1999 20.5031H69.7723V23.5596ZM69.7723 19.4969H72.0867C72.6234 19.4969 73.0301 19.3753 73.3068 19.1321C73.5835 18.8805 73.7219 18.5409 73.7219 18.1132C73.7219 17.6856 73.5835 17.3585 73.3068 17.1321C73.0301 16.9057 72.6234 16.7925 72.0867 16.7925H69.7723V19.4969ZM78.6019 24.7043C78.1826 24.7043 77.8011 24.6204 77.4573 24.4527C77.1135 24.285 76.8367 24.0586 76.6271 23.7735C76.4175 23.4884 76.3126 23.1655 76.3126 22.8049C76.3126 22.2263 76.5474 21.7651 77.017 21.4213C77.4866 21.0775 78.0988 20.8511 78.8535 20.7421L80.7276 20.478V20.1132C80.7276 19.7107 80.6102 19.3962 80.3754 19.1698C80.149 18.9434 79.7759 18.8302 79.256 18.8302C78.8786 18.8302 78.5725 18.9057 78.3377 19.0566C78.1113 19.2076 77.952 19.4004 77.8598 19.6352C77.8095 19.761 77.7214 19.8239 77.5956 19.8239H77.0296C76.9374 19.8239 76.8661 19.7987 76.8158 19.7484C76.7738 19.6897 76.7529 19.6226 76.7529 19.5472C76.7529 19.4214 76.799 19.2662 76.8912 19.0818C76.9919 18.8973 77.1428 18.717 77.3441 18.5409C77.5453 18.3648 77.8011 18.2181 78.1113 18.1007C78.43 17.9749 78.8157 17.912 79.2685 17.912C79.7717 17.912 80.1951 17.9791 80.5389 18.1132C80.8828 18.239 81.1511 18.4109 81.344 18.6289C81.5452 18.847 81.6878 19.0943 81.7716 19.3711C81.8639 19.6478 81.91 19.9287 81.91 20.2138V24.2892C81.91 24.373 81.8806 24.4443 81.8219 24.503C81.7716 24.5533 81.7045 24.5785 81.6207 24.5785H81.0421C80.9498 24.5785 80.8786 24.5533 80.8282 24.503C80.7779 24.4443 80.7528 24.373 80.7528 24.2892V23.7483C80.6438 23.8993 80.497 24.0502 80.3125 24.2011C80.1281 24.3437 79.8975 24.4653 79.6207 24.5659C79.344 24.6582 79.0044 24.7043 78.6019 24.7043ZM78.866 23.7609C79.2098 23.7609 79.5243 23.6896 79.8094 23.5471C80.0945 23.3961 80.3167 23.1655 80.4761 22.8553C80.6438 22.545 80.7276 22.1551 80.7276 21.6855V21.3333L79.2685 21.5471C78.6732 21.631 78.2245 21.7735 77.9227 21.9748C77.6208 22.1676 77.4698 22.415 77.4698 22.7169C77.4698 22.9517 77.5369 23.1488 77.6711 23.3081C77.8136 23.459 77.9897 23.5722 78.1994 23.6477C78.4174 23.7232 78.6396 23.7609 78.866 23.7609ZM84.0075 24.5785C83.9237 24.5785 83.8524 24.5533 83.7937 24.503C83.7434 24.4443 83.7182 24.373 83.7182 24.2892V18.3271C83.7182 18.2432 83.7434 18.1761 83.7937 18.1258C83.8524 18.0671 83.9237 18.0378 84.0075 18.0378H84.6113C84.6951 18.0378 84.7622 18.0671 84.8125 18.1258C84.8628 18.1761 84.888 18.2432 84.888 18.3271V24.2892C84.888 24.373 84.8628 24.4443 84.8125 24.503C84.7622 24.5533 84.6951 24.5785 84.6113 24.5785H84.0075ZM83.9069 16.8177C83.823 16.8177 83.7518 16.7925 83.6931 16.7422C83.6427 16.6835 83.6176 16.6122 83.6176 16.5284V15.8491C83.6176 15.7653 83.6427 15.6982 83.6931 15.6479C83.7518 15.5892 83.823 15.5598 83.9069 15.5598H84.6993C84.7832 15.5598 84.8503 15.5892 84.9006 15.6479C84.9593 15.6982 84.9886 15.7653 84.9886 15.8491V16.5284C84.9886 16.6122 84.9593 16.6835 84.9006 16.7422C84.8503 16.7925 84.7832 16.8177 84.6993 16.8177H83.9069ZM86.4626 24.5785C86.3956 24.5785 86.3327 24.5533 86.274 24.503C86.2237 24.4527 86.1985 24.3898 86.1985 24.3143C86.1985 24.2892 86.2027 24.2598 86.2111 24.2263C86.2278 24.1844 86.253 24.1383 86.2865 24.0879L88.4752 21.2327L86.4249 18.5283C86.3914 18.478 86.3662 18.4361 86.3494 18.4025C86.3411 18.369 86.3369 18.3355 86.3369 18.3019C86.3369 18.2264 86.362 18.1636 86.4123 18.1132C86.4626 18.0629 86.5255 18.0378 86.601 18.0378H87.2425C87.3347 18.0378 87.4018 18.0629 87.4438 18.1132C87.4941 18.1552 87.536 18.1971 87.5695 18.239L89.2425 20.4151L90.9154 18.2516C90.9489 18.2097 90.9866 18.1636 91.0286 18.1132C91.0789 18.0629 91.1502 18.0378 91.2424 18.0378H91.8587C91.9342 18.0378 91.9971 18.0629 92.0474 18.1132C92.0977 18.1636 92.1229 18.2264 92.1229 18.3019C92.1229 18.3355 92.1145 18.369 92.0977 18.4025C92.0893 18.4361 92.0684 18.478 92.0348 18.5283L89.9594 21.2578L92.148 24.0879C92.1816 24.1383 92.2025 24.1802 92.2109 24.2137C92.2277 24.2473 92.2361 24.2808 92.2361 24.3143C92.2361 24.3898 92.2109 24.4527 92.1606 24.503C92.1103 24.5533 92.0474 24.5785 91.9719 24.5785H91.3053C91.2214 24.5785 91.1544 24.5575 91.104 24.5156C91.0537 24.4737 91.0118 24.4317 90.9783 24.3898L89.2047 22.088L87.4312 24.3898C87.3976 24.4234 87.3557 24.4653 87.3054 24.5156C87.2635 24.5575 87.1964 24.5785 87.1041 24.5785H86.4626ZM95.2952 24.7043C94.8759 24.7043 94.4944 24.6204 94.1506 24.4527C93.8067 24.285 93.53 24.0586 93.3204 23.7735C93.1107 23.4884 93.0059 23.1655 93.0059 22.8049C93.0059 22.2263 93.2407 21.7651 93.7103 21.4213C94.1799 21.0775 94.792 20.8511 95.5467 20.7421L97.4209 20.478V20.1132C97.4209 19.7107 97.3035 19.3962 97.0687 19.1698C96.8423 18.9434 96.4692 18.8302 95.9493 18.8302C95.5719 18.8302 95.2658 18.9057 95.031 19.0566C94.8046 19.2076 94.6453 19.4004 94.5531 19.6352C94.5027 19.761 94.4147 19.8239 94.2889 19.8239H93.7229C93.6306 19.8239 93.5594 19.7987 93.5091 19.7484C93.4671 19.6897 93.4462 19.6226 93.4462 19.5472C93.4462 19.4214 93.4923 19.2662 93.5845 19.0818C93.6852 18.8973 93.8361 18.717 94.0373 18.5409C94.2386 18.3648 94.4944 18.2181 94.8046 18.1007C95.1233 17.9749 95.509 17.912 95.9618 17.912C96.465 17.912 96.8884 17.9791 97.2322 18.1132C97.576 18.239 97.8444 18.4109 98.0373 18.6289C98.2385 18.847 98.3811 19.0943 98.4649 19.3711C98.5572 19.6478 98.6033 19.9287 98.6033 20.2138V24.2892C98.6033 24.373 98.5739 24.4443 98.5152 24.503C98.4649 24.5533 98.3978 24.5785 98.314 24.5785H97.7354C97.6431 24.5785 97.5719 24.5533 97.5215 24.503C97.4712 24.4443 97.4461 24.373 97.4461 24.2892V23.7483C97.3371 23.8993 97.1903 24.0502 97.0058 24.2011C96.8213 24.3437 96.5907 24.4653 96.314 24.5659C96.0373 24.6582 95.6977 24.7043 95.2952 24.7043ZM95.5593 23.7609C95.9031 23.7609 96.2176 23.6896 96.5027 23.5471C96.7878 23.3961 97.01 23.1655 97.1693 22.8553C97.3371 22.545 97.4209 22.1551 97.4209 21.6855V21.3333L95.9618 21.5471C95.3665 21.631 94.9178 21.7735 94.6159 21.9748C94.3141 22.1676 94.1631 22.415 94.1631 22.7169C94.1631 22.9517 94.2302 23.1488 94.3644 23.3081C94.5069 23.459 94.683 23.5722 94.8927 23.6477C95.1107 23.7232 95.3329 23.7609 95.5593 23.7609ZM100.701 24.5785C100.617 24.5785 100.546 24.5533 100.487 24.503C100.437 24.4443 100.412 24.373 100.412 24.2892V18.3396C100.412 18.2558 100.437 18.1845 100.487 18.1258C100.546 18.0671 100.617 18.0378 100.701 18.0378H101.279C101.363 18.0378 101.435 18.0671 101.493 18.1258C101.552 18.1845 101.581 18.2558 101.581 18.3396V18.8931C101.749 18.608 101.98 18.3942 102.273 18.2516C102.567 18.109 102.919 18.0378 103.33 18.0378H103.833C103.917 18.0378 103.984 18.0671 104.034 18.1258C104.084 18.1761 104.11 18.2432 104.11 18.3271V18.8428C104.11 18.9266 104.084 18.9937 104.034 19.044C103.984 19.0943 103.917 19.1195 103.833 19.1195H103.078C102.625 19.1195 102.269 19.2537 102.009 19.522C101.749 19.782 101.619 20.1383 101.619 20.5912V24.2892C101.619 24.373 101.59 24.4443 101.531 24.503C101.472 24.5533 101.401 24.5785 101.317 24.5785H100.701ZM109.923 24.5785C109.797 24.5785 109.697 24.5491 109.621 24.4904C109.554 24.4317 109.5 24.3563 109.458 24.264L107.131 18.4277C107.114 18.3858 107.106 18.3438 107.106 18.3019C107.106 18.2264 107.131 18.1636 107.181 18.1132C107.231 18.0629 107.294 18.0378 107.37 18.0378H107.974C108.066 18.0378 108.137 18.0629 108.187 18.1132C108.238 18.1636 108.267 18.2097 108.275 18.2516L110.2 23.2075L112.112 18.2516C112.129 18.2097 112.158 18.1636 112.2 18.1132C112.25 18.0629 112.321 18.0378 112.414 18.0378H113.03C113.097 18.0378 113.156 18.0629 113.206 18.1132C113.265 18.1636 113.294 18.2264 113.294 18.3019C113.294 18.3438 113.286 18.3858 113.269 18.4277L110.929 24.264C110.896 24.3563 110.841 24.4317 110.766 24.4904C110.699 24.5491 110.598 24.5785 110.464 24.5785H109.923ZM114.901 24.5785C114.817 24.5785 114.745 24.5533 114.687 24.503C114.636 24.4443 114.611 24.373 114.611 24.2892V18.3271C114.611 18.2432 114.636 18.1761 114.687 18.1258C114.745 18.0671 114.817 18.0378 114.901 18.0378H115.504C115.588 18.0378 115.655 18.0671 115.706 18.1258C115.756 18.1761 115.781 18.2432 115.781 18.3271V24.2892C115.781 24.373 115.756 24.4443 115.706 24.503C115.655 24.5533 115.588 24.5785 115.504 24.5785H114.901ZM114.8 16.8177C114.716 16.8177 114.645 16.7925 114.586 16.7422C114.536 16.6835 114.511 16.6122 114.511 16.5284V15.8491C114.511 15.7653 114.536 15.6982 114.586 15.6479C114.645 15.5892 114.716 15.5598 114.8 15.5598H115.592C115.676 15.5598 115.743 15.5892 115.794 15.6479C115.852 15.6982 115.882 15.7653 115.882 15.8491V16.5284C115.882 16.6122 115.852 16.6835 115.794 16.7422C115.743 16.7925 115.676 16.8177 115.592 16.8177H114.8ZM119.481 24.7043C119.062 24.7043 118.681 24.6204 118.337 24.4527C117.993 24.285 117.716 24.0586 117.507 23.7735C117.297 23.4884 117.192 23.1655 117.192 22.8049C117.192 22.2263 117.427 21.7651 117.897 21.4213C118.366 21.0775 118.978 20.8511 119.733 20.7421L121.607 20.478V20.1132C121.607 19.7107 121.49 19.3962 121.255 19.1698C121.029 18.9434 120.655 18.8302 120.135 18.8302C119.758 18.8302 119.452 18.9057 119.217 19.0566C118.991 19.2076 118.832 19.4004 118.739 19.6352C118.689 19.761 118.601 19.8239 118.475 19.8239H117.909C117.817 19.8239 117.746 19.7987 117.695 19.7484C117.653 19.6897 117.632 19.6226 117.632 19.5472C117.632 19.4214 117.679 19.2662 117.771 19.0818C117.871 18.8973 118.022 18.717 118.224 18.5409C118.425 18.3648 118.681 18.2181 118.991 18.1007C119.31 17.9749 119.695 17.912 120.148 17.912C120.651 17.912 121.075 17.9791 121.418 18.1132C121.762 18.239 122.031 18.4109 122.223 18.6289C122.425 18.847 122.567 19.0943 122.651 19.3711C122.743 19.6478 122.79 19.9287 122.79 20.2138V24.2892C122.79 24.373 122.76 24.4443 122.701 24.503C122.651 24.5533 122.584 24.5785 122.5 24.5785H121.922C121.829 24.5785 121.758 24.5533 121.708 24.503C121.657 24.4443 121.632 24.373 121.632 24.2892V23.7483C121.523 23.8993 121.377 24.0502 121.192 24.2011C121.008 24.3437 120.777 24.4653 120.5 24.5659C120.224 24.6582 119.884 24.7043 119.481 24.7043ZM119.746 23.7609C120.089 23.7609 120.404 23.6896 120.689 23.5471C120.974 23.3961 121.196 23.1655 121.356 22.8553C121.523 22.545 121.607 22.1551 121.607 21.6855V21.3333L120.148 21.5471C119.553 21.631 119.104 21.7735 118.802 21.9748C118.5 22.1676 118.349 22.415 118.349 22.7169C118.349 22.9517 118.416 23.1488 118.551 23.3081C118.693 23.459 118.869 23.5722 119.079 23.6477C119.297 23.7232 119.519 23.7609 119.746 23.7609Z" fill="white"/>
<path d="M67.9484 45.3495C67.859 45.3495 67.7751 45.3159 67.6969 45.2489C67.6298 45.1706 67.5963 45.0867 67.5963 44.9973C67.5963 44.9414 67.6018 44.8911 67.613 44.8464L71.5542 34.0793C71.5878 33.9563 71.6549 33.8501 71.7555 33.7607C71.8673 33.66 72.0182 33.6097 72.2083 33.6097H74.6904C74.8805 33.6097 75.0258 33.66 75.1265 33.7607C75.2383 33.8501 75.311 33.9563 75.3445 34.0793L79.2689 44.8464C79.2913 44.8911 79.3025 44.9414 79.3025 44.9973C79.3025 45.0867 79.2633 45.1706 79.1851 45.2489C79.118 45.3159 79.0341 45.3495 78.9335 45.3495H76.8707C76.703 45.3495 76.5744 45.3104 76.4849 45.2321C76.4067 45.1426 76.3564 45.0644 76.334 44.9973L75.6799 43.2866H71.202L70.5647 44.9973C70.5424 45.0644 70.4921 45.1426 70.4138 45.2321C70.3355 45.3104 70.2014 45.3495 70.0113 45.3495H67.9484ZM71.8897 40.8716H75.0091L73.4326 36.444L71.8897 40.8716ZM80.8592 48.536C80.7362 48.536 80.6356 48.4969 80.5573 48.4186C80.479 48.3403 80.4399 48.2397 80.4399 48.1167V37.0478C80.4399 36.9248 80.479 36.8242 80.5573 36.7459C80.6356 36.6677 80.7362 36.6285 80.8592 36.6285H82.7543C82.8661 36.6285 82.9611 36.6677 83.0394 36.7459C83.1289 36.8242 83.1736 36.9248 83.1736 37.0478V37.6683C83.4307 37.3217 83.7718 37.0366 84.1966 36.813C84.6215 36.5782 85.147 36.4608 85.7731 36.4608C86.3321 36.4608 86.8241 36.5503 87.249 36.7291C87.6738 36.8969 88.0372 37.1484 88.3391 37.4838C88.641 37.8193 88.8758 38.2274 89.0435 38.7081C89.2224 39.1889 89.323 39.7424 89.3453 40.3685C89.3565 40.5921 89.3621 40.7989 89.3621 40.989C89.3621 41.1791 89.3565 41.3859 89.3453 41.6095C89.323 42.2133 89.2279 42.7556 89.0602 43.2363C88.8925 43.7171 88.6577 44.1252 88.3558 44.4606C88.054 44.796 87.685 45.0588 87.249 45.2489C86.8241 45.4278 86.3321 45.5172 85.7731 45.5172C85.2252 45.5172 84.7445 45.4222 84.3308 45.2321C83.9283 45.0308 83.5929 44.7513 83.3245 44.3935V48.1167C83.3245 48.2397 83.2854 48.3403 83.2071 48.4186C83.1289 48.4969 83.0282 48.536 82.9052 48.536H80.8592ZM84.8675 43.2699C85.2476 43.2699 85.5439 43.1916 85.7563 43.0351C85.9688 42.8785 86.1197 42.6661 86.2091 42.3978C86.3098 42.1294 86.3713 41.8331 86.3936 41.5089C86.416 41.1623 86.416 40.8157 86.3936 40.4691C86.3713 40.1449 86.3098 39.8486 86.2091 39.5802C86.1197 39.3119 85.9688 39.0995 85.7563 38.9429C85.5439 38.7864 85.2476 38.7081 84.8675 38.7081C84.4985 38.7081 84.2022 38.792 83.9786 38.9597C83.755 39.1162 83.5929 39.3231 83.4922 39.5802C83.3916 39.8374 83.3357 40.1169 83.3245 40.4188C83.3133 40.6312 83.3078 40.8381 83.3078 41.0393C83.3078 41.2406 83.3133 41.453 83.3245 41.6766C83.3357 41.9561 83.3972 42.2189 83.509 42.4649C83.6208 42.6997 83.7885 42.8953 84.0121 43.0518C84.2358 43.1972 84.5209 43.2699 84.8675 43.2699ZM91.4394 48.536C91.3164 48.536 91.2158 48.4969 91.1375 48.4186C91.0592 48.3403 91.0201 48.2397 91.0201 48.1167V37.0478C91.0201 36.9248 91.0592 36.8242 91.1375 36.7459C91.2158 36.6677 91.3164 36.6285 91.4394 36.6285H93.3345C93.4463 36.6285 93.5413 36.6677 93.6196 36.7459C93.7091 36.8242 93.7538 36.9248 93.7538 37.0478V37.6683C94.0109 37.3217 94.3519 37.0366 94.7768 36.813C95.2017 36.5782 95.7272 36.4608 96.3533 36.4608C96.9123 36.4608 97.4043 36.5503 97.8292 36.7291C98.254 36.8969 98.6174 37.1484 98.9193 37.4838C99.2212 37.8193 99.456 38.2274 99.6237 38.7081C99.8026 39.1889 99.9032 39.7424 99.9255 40.3685C99.9367 40.5921 99.9423 40.7989 99.9423 40.989C99.9423 41.1791 99.9367 41.3859 99.9255 41.6095C99.9032 42.2133 99.8081 42.7556 99.6404 43.2363C99.4727 43.7171 99.2379 44.1252 98.936 44.4606C98.6342 44.796 98.2652 45.0588 97.8292 45.2489C97.4043 45.4278 96.9123 45.5172 96.3533 45.5172C95.8054 45.5172 95.3247 45.4222 94.911 45.2321C94.5085 45.0308 94.1731 44.7513 93.9047 44.3935V48.1167C93.9047 48.2397 93.8656 48.3403 93.7873 48.4186C93.7091 48.4969 93.6084 48.536 93.4854 48.536H91.4394ZM95.4477 43.2699C95.8278 43.2699 96.1241 43.1916 96.3365 43.0351C96.549 42.8785 96.6999 42.6661 96.7893 42.3978C96.89 42.1294 96.9515 41.8331 96.9738 41.5089C96.9962 41.1623 96.9962 40.8157 96.9738 40.4691C96.9515 40.1449 96.89 39.8486 96.7893 39.5802C96.6999 39.3119 96.549 39.0995 96.3365 38.9429C96.1241 38.7864 95.8278 38.7081 95.4477 38.7081C95.0787 38.7081 94.7824 38.792 94.5588 38.9597C94.3352 39.1162 94.1731 39.3231 94.0724 39.5802C93.9718 39.8374 93.9159 40.1169 93.9047 40.4188C93.8935 40.6312 93.8879 40.8381 93.8879 41.0393C93.8879 41.2406 93.8935 41.453 93.9047 41.6766C93.9159 41.9561 93.9774 42.2189 94.0892 42.4649C94.201 42.6997 94.3687 42.8953 94.5923 43.0518C94.8159 43.1972 95.1011 43.2699 95.4477 43.2699ZM102.02 45.3495C101.897 45.3495 101.796 45.3104 101.718 45.2321C101.639 45.1538 101.6 45.0532 101.6 44.9302V33.8613C101.6 33.7383 101.639 33.6377 101.718 33.5594C101.796 33.4811 101.897 33.442 102.02 33.442H103.999C104.122 33.442 104.222 33.4811 104.3 33.5594C104.379 33.6377 104.418 33.7383 104.418 33.8613V44.9302C104.418 45.0532 104.379 45.1538 104.3 45.2321C104.222 45.3104 104.122 45.3495 103.999 45.3495H102.02ZM110.424 45.5172C109.105 45.5172 108.054 45.1594 107.271 44.4438C106.488 43.7283 106.08 42.6661 106.047 41.2573C106.047 41.1791 106.047 41.0784 106.047 40.9555C106.047 40.8325 106.047 40.7374 106.047 40.6704C106.08 39.7871 106.276 39.0324 106.634 38.4063C107.003 37.769 107.506 37.2882 108.143 36.9639C108.792 36.6285 109.546 36.4608 110.407 36.4608C111.391 36.4608 112.202 36.6565 112.839 37.0478C113.488 37.4391 113.974 37.9702 114.298 38.6411C114.622 39.3119 114.785 40.0778 114.785 40.9387V41.3412C114.785 41.4642 114.74 41.5648 114.65 41.6431C114.572 41.7213 114.477 41.7605 114.365 41.7605H108.999C108.999 41.7717 108.999 41.7884 108.999 41.8108C108.999 41.8331 108.999 41.8555 108.999 41.8779C109.01 42.2021 109.066 42.4984 109.166 42.7667C109.267 43.0351 109.423 43.2475 109.636 43.404C109.848 43.5606 110.105 43.6388 110.407 43.6388C110.631 43.6388 110.815 43.6053 110.961 43.5382C111.117 43.4599 111.246 43.3761 111.347 43.2866C111.447 43.186 111.525 43.1022 111.581 43.0351C111.682 42.9233 111.76 42.8562 111.816 42.8338C111.883 42.8003 111.984 42.7835 112.118 42.7835H114.198C114.309 42.7835 114.399 42.8171 114.466 42.8841C114.544 42.94 114.578 43.0239 114.567 43.1357C114.555 43.3258 114.46 43.555 114.281 43.8233C114.103 44.0917 113.84 44.36 113.493 44.6283C113.158 44.8855 112.733 45.0979 112.219 45.2656C111.704 45.4333 111.106 45.5172 110.424 45.5172ZM108.999 40.1001H111.833V40.0666C111.833 39.7088 111.777 39.3958 111.665 39.1274C111.565 38.8591 111.402 38.6522 111.179 38.5069C110.966 38.3615 110.709 38.2889 110.407 38.2889C110.105 38.2889 109.848 38.3615 109.636 38.5069C109.435 38.6522 109.278 38.8591 109.166 39.1274C109.054 39.3958 108.999 39.7088 108.999 40.0666V40.1001ZM124.489 45.5172C123.371 45.5172 122.443 45.3607 121.705 45.0476C120.967 44.7234 120.408 44.3041 120.028 43.7898C119.648 43.2755 119.447 42.7276 119.424 42.1462C119.424 42.0568 119.458 41.9785 119.525 41.9114C119.603 41.8331 119.692 41.794 119.793 41.794H121.906C122.063 41.794 122.18 41.822 122.258 41.8779C122.348 41.9338 122.426 42.0065 122.493 42.0959C122.583 42.2636 122.706 42.4257 122.862 42.5823C123.03 42.7388 123.242 42.8674 123.5 42.968C123.768 43.0574 124.098 43.1022 124.489 43.1022C125.138 43.1022 125.624 43.0015 125.948 42.8003C126.284 42.599 126.451 42.3251 126.451 41.9785C126.451 41.7325 126.362 41.5313 126.183 41.3747C126.004 41.207 125.713 41.0617 125.311 40.9387C124.919 40.8045 124.394 40.6704 123.734 40.5362C122.885 40.3573 122.158 40.1281 121.554 39.8486C120.962 39.5579 120.509 39.1833 120.196 38.7249C119.883 38.2553 119.726 37.6739 119.726 36.9807C119.726 36.2987 119.916 35.6893 120.296 35.1527C120.688 34.616 121.23 34.1967 121.923 33.8948C122.616 33.593 123.438 33.442 124.388 33.442C125.16 33.442 125.836 33.5426 126.418 33.7439C127.01 33.9451 127.508 34.2135 127.91 34.5489C128.313 34.8843 128.615 35.2421 128.816 35.6223C129.028 35.9912 129.14 36.3546 129.151 36.7124C129.151 36.8018 129.118 36.8857 129.051 36.9639C128.984 37.031 128.9 37.0646 128.799 37.0646H126.585C126.462 37.0646 126.356 37.0422 126.267 36.9975C126.177 36.9528 126.099 36.8801 126.032 36.7795C125.965 36.5335 125.786 36.3211 125.495 36.1422C125.216 35.9521 124.847 35.857 124.388 35.857C123.896 35.857 123.511 35.9465 123.231 36.1254C122.963 36.2931 122.829 36.5558 122.829 36.9136C122.829 37.1372 122.901 37.3329 123.047 37.5006C123.203 37.6683 123.455 37.8137 123.801 37.9367C124.159 38.0597 124.646 38.1882 125.26 38.3224C126.278 38.5125 127.1 38.7529 127.726 39.0436C128.352 39.3231 128.81 39.692 129.101 40.1504C129.392 40.5977 129.537 41.1623 129.537 41.8443C129.537 42.6046 129.319 43.2643 128.883 43.8233C128.458 44.3712 127.866 44.7905 127.105 45.0811C126.345 45.3718 125.473 45.5172 124.489 45.5172ZM135.493 45.3495C134.777 45.3495 134.157 45.2377 133.631 45.0141C133.117 44.7793 132.72 44.4215 132.44 43.9407C132.161 43.4488 132.021 42.8171 132.021 42.0456V38.8255H130.713C130.59 38.8255 130.484 38.7864 130.394 38.7081C130.316 38.6299 130.277 38.5292 130.277 38.4063V37.0478C130.277 36.9248 130.316 36.8242 130.394 36.7459C130.484 36.6677 130.59 36.6285 130.713 36.6285H132.021V33.8613C132.021 33.7383 132.06 33.6377 132.138 33.5594C132.228 33.4811 132.329 33.442 132.44 33.442H134.386C134.509 33.442 134.609 33.4811 134.688 33.5594C134.766 33.6377 134.805 33.7383 134.805 33.8613V36.6285H136.901C137.024 36.6285 137.125 36.6677 137.203 36.7459C137.282 36.8242 137.321 36.9248 137.321 37.0478V38.4063C137.321 38.5292 137.282 38.6299 137.203 38.7081C137.125 38.7864 137.024 38.8255 136.901 38.8255H134.805V41.8108C134.805 42.1909 134.878 42.4928 135.023 42.7164C135.168 42.94 135.414 43.0518 135.761 43.0518H137.052C137.175 43.0518 137.276 43.091 137.354 43.1692C137.433 43.2475 137.472 43.3481 137.472 43.4711V44.9302C137.472 45.0532 137.433 45.1538 137.354 45.2321C137.276 45.3104 137.175 45.3495 137.052 45.3495H135.493ZM142.986 45.5172C142.047 45.5172 141.253 45.3663 140.604 45.0644C139.967 44.7625 139.475 44.332 139.129 43.773C138.793 43.2028 138.603 42.5264 138.558 41.7437C138.547 41.5201 138.542 41.2685 138.542 40.989C138.542 40.6983 138.547 40.4467 138.558 40.2343C138.603 39.4405 138.804 38.764 139.162 38.205C139.52 37.646 140.017 37.2155 140.655 36.9136C141.303 36.6117 142.08 36.4608 142.986 36.4608C143.903 36.4608 144.68 36.6117 145.317 36.9136C145.966 37.2155 146.469 37.646 146.827 38.205C147.184 38.764 147.386 39.4405 147.43 40.2343C147.441 40.4467 147.447 40.6983 147.447 40.989C147.447 41.2685 147.441 41.5201 147.43 41.7437C147.386 42.5264 147.19 43.2028 146.843 43.773C146.508 44.332 146.016 44.7625 145.367 45.0644C144.73 45.3663 143.936 45.5172 142.986 45.5172ZM142.986 43.4711C143.489 43.4711 143.852 43.3202 144.076 43.0183C144.311 42.7164 144.445 42.2636 144.479 41.6598C144.49 41.4921 144.495 41.2685 144.495 40.989C144.495 40.7095 144.49 40.4859 144.479 40.3182C144.445 39.7256 144.311 39.2784 144.076 38.9765C143.852 38.6634 143.489 38.5069 142.986 38.5069C142.494 38.5069 142.131 38.6634 141.896 38.9765C141.661 39.2784 141.532 39.7256 141.51 40.3182C141.499 40.4859 141.493 40.7095 141.493 40.989C141.493 41.2685 141.499 41.4921 141.51 41.6598C141.532 42.2636 141.661 42.7164 141.896 43.0183C142.131 43.3202 142.494 43.4711 142.986 43.4711ZM149.516 45.3495C149.393 45.3495 149.292 45.3104 149.214 45.2321C149.136 45.1538 149.097 45.0532 149.097 44.9302V37.0478C149.097 36.936 149.136 36.841 149.214 36.7627C149.292 36.6732 149.393 36.6285 149.516 36.6285H151.444C151.567 36.6285 151.668 36.6732 151.746 36.7627C151.825 36.841 151.864 36.936 151.864 37.0478V37.7186C152.166 37.372 152.523 37.1037 152.937 36.9136C153.362 36.7236 153.837 36.6285 154.363 36.6285H155.101C155.212 36.6285 155.307 36.6677 155.386 36.7459C155.475 36.8242 155.52 36.9248 155.52 37.0478V38.7752C155.52 38.887 155.475 38.9877 155.386 39.0771C155.307 39.1554 155.212 39.1945 155.101 39.1945H153.474C153.015 39.1945 152.658 39.3231 152.4 39.5802C152.154 39.8262 152.031 40.1784 152.031 40.6368V44.9302C152.031 45.0532 151.987 45.1538 151.897 45.2321C151.819 45.3104 151.718 45.3495 151.595 45.3495H149.516ZM160.672 45.5172C159.353 45.5172 158.302 45.1594 157.519 44.4438C156.736 43.7283 156.328 42.6661 156.295 41.2573C156.295 41.1791 156.295 41.0784 156.295 40.9555C156.295 40.8325 156.295 40.7374 156.295 40.6704C156.328 39.7871 156.524 39.0324 156.882 38.4063C157.251 37.769 157.754 37.2882 158.391 36.9639C159.039 36.6285 159.794 36.4608 160.655 36.4608C161.639 36.4608 162.45 36.6565 163.087 37.0478C163.735 37.4391 164.222 37.9702 164.546 38.6411C164.87 39.3119 165.032 40.0778 165.032 40.9387V41.3412C165.032 41.4642 164.988 41.5648 164.898 41.6431C164.82 41.7213 164.725 41.7605 164.613 41.7605H159.246C159.246 41.7717 159.246 41.7884 159.246 41.8108C159.246 41.8331 159.246 41.8555 159.246 41.8779C159.258 42.2021 159.313 42.4984 159.414 42.7667C159.515 43.0351 159.671 43.2475 159.884 43.404C160.096 43.5606 160.353 43.6388 160.655 43.6388C160.879 43.6388 161.063 43.6053 161.209 43.5382C161.365 43.4599 161.494 43.3761 161.594 43.2866C161.695 43.186 161.773 43.1022 161.829 43.0351C161.93 42.9233 162.008 42.8562 162.064 42.8338C162.131 42.8003 162.232 42.7835 162.366 42.7835H164.445C164.557 42.7835 164.647 42.8171 164.714 42.8841C164.792 42.94 164.826 43.0239 164.814 43.1357C164.803 43.3258 164.708 43.555 164.529 43.8233C164.35 44.0917 164.088 44.36 163.741 44.6283C163.406 44.8855 162.981 45.0979 162.466 45.2656C161.952 45.4333 161.354 45.5172 160.672 45.5172ZM159.246 40.1001H162.081V40.0666C162.081 39.7088 162.025 39.3958 161.913 39.1274C161.812 38.8591 161.65 38.6522 161.427 38.5069C161.214 38.3615 160.957 38.2889 160.655 38.2889C160.353 38.2889 160.096 38.3615 159.884 38.5069C159.682 38.6522 159.526 38.8591 159.414 39.1274C159.302 39.3958 159.246 39.7088 159.246 40.0666V40.1001Z" fill="white"/>
<path d="M36.7349 42.414C36.1496 42.0292 35.6309 41.5538 35.1987 41.0059C34.7233 40.4404 34.2828 39.8471 33.8797 39.2293C32.9336 37.8595 32.1917 36.3624 31.6766 34.784C31.0579 32.9505 30.7583 31.1931 30.7583 29.4743C30.7583 27.5546 31.1785 25.8788 32.0004 24.4707C32.6096 23.3701 33.5053 22.4504 34.5949 21.8067C35.6508 21.1585 36.864 20.8038 38.1068 20.7799C38.5418 20.7799 39.0103 20.8422 39.5075 20.9614C39.8646 21.0613 40.2996 21.219 40.8312 21.4152C41.5074 21.6728 41.8794 21.8305 42.0055 21.869C42.4016 22.012 42.7346 22.0743 42.9962 22.0743C43.1947 22.0743 43.4748 22.012 43.793 21.9167C43.972 21.8543 44.3097 21.7443 44.793 21.5399C45.2716 21.3675 45.6482 21.2199 45.9478 21.1099C46.407 20.9761 46.8513 20.8523 47.2474 20.79C47.717 20.7168 48.1935 20.6974 48.6676 20.7322C49.4891 20.7853 50.2982 20.9573 51.0691 21.2429C52.3297 21.7443 53.3492 22.5272 54.108 23.6401C53.7872 23.8355 53.4862 24.0608 53.2091 24.313C52.6058 24.8416 52.0919 25.4621 51.6869 26.1511C51.1575 27.0926 50.8831 28.1533 50.8901 29.2304C50.9096 30.5533 51.2528 31.7184 51.929 32.7259C52.4262 33.4726 53.0723 34.1112 53.8278 34.6025C54.2146 34.8601 54.5476 35.037 54.8667 35.1562C54.7174 35.6146 54.5578 36.0583 54.3695 36.4983C53.9425 37.4851 53.4249 38.4311 52.8232 39.3246C52.2871 40.0938 51.8669 40.6667 51.5478 41.0481C51.0506 41.6302 50.5719 42.0748 50.0886 42.3847C49.5571 42.7331 48.9291 42.9192 48.291 42.9192C47.8587 42.9356 47.4266 42.8839 47.0109 42.7661C46.6537 42.6469 46.3003 42.5176 45.9525 42.37C45.5908 42.2059 45.2179 42.0671 44.8366 41.9547C43.8938 41.7154 42.9054 41.7139 41.9619 41.9502C41.5751 42.0602 41.2031 42.1885 40.8358 42.3462C40.3191 42.5607 39.9759 42.7046 39.7774 42.7661C39.3813 42.8807 38.9704 42.9522 38.5548 42.976C37.912 42.976 37.3128 42.7945 36.7191 42.4269L36.7349 42.414ZM45.2132 19.8485C44.3727 20.2638 43.5704 20.4407 42.7736 20.383C42.6483 19.59 42.7736 18.7787 43.1066 17.8903C43.3901 17.1378 43.809 16.4421 44.3431 15.8368C44.9071 15.1997 45.5914 14.6775 46.3578 14.2995C47.1741 13.8842 47.9524 13.6596 48.6963 13.6266C48.7928 14.4572 48.6963 15.274 48.3874 16.1568C48.1016 16.9372 47.6834 17.6638 47.1509 18.3056C46.6074 18.9436 45.9404 19.4679 45.189 19.8476L45.2132 19.8485Z" fill="white"/>
</svg>
