<svg width="164" height="45" viewBox="0 0 164 45" fill="none" xmlns="http://www.w3.org/2000/svg">
<rect x="0.5" y="1.48169" width="163" height="43" rx="3.5" fill="black"/>
<rect x="0.5" y="1.48169" width="163" height="43" rx="3.5" stroke="#D3D3D3"/>
<g clip-path="url(#clip0_4368_2476)">
<path d="M38.1581 6.98169C38.2326 6.98169 38.3071 6.98169 38.3858 6.98169C38.5684 9.2384 37.7071 10.9246 36.6602 12.1457C35.633 13.3584 34.2264 14.5345 31.9515 14.356C31.7997 12.1316 32.6625 10.5705 33.7079 9.35222C34.6775 8.21684 36.4551 7.20652 38.1581 6.98169Z" fill="white"/>
<path d="M45.045 30.4706C45.045 30.493 45.045 30.5127 45.045 30.5338C44.4056 32.4701 43.4937 34.1296 42.3808 35.6697C41.3648 37.0678 40.1199 38.9494 37.8969 38.9494C35.976 38.9494 34.7001 37.7142 32.7315 37.6805C30.649 37.6468 29.5038 38.7133 27.5998 38.9817C27.382 38.9817 27.1642 38.9817 26.9506 38.9817C25.5524 38.7793 24.4241 37.6721 23.602 36.6744C21.1781 33.7263 19.305 29.9183 18.9565 25.0452C18.9565 24.5674 18.9565 24.0911 18.9565 23.6133C19.1041 20.1257 20.7987 17.29 23.0512 15.9158C24.24 15.1851 25.8742 14.5626 27.6939 14.8408C28.4738 14.9617 29.2705 15.2286 29.9689 15.4928C30.6307 15.7472 31.4584 16.1982 32.2425 16.1743C32.7736 16.1589 33.302 15.8821 33.8373 15.6867C35.4055 15.1205 36.9428 14.4713 38.969 14.7762C41.4042 15.1443 43.1325 16.2263 44.2005 17.8957C42.1405 19.2067 40.5119 21.1824 40.7901 24.5562C41.0374 27.6209 42.8192 29.4139 45.045 30.4706Z" fill="white"/>
</g>
<path d="M57.8771 11.0065C57.8085 10.7911 57.7161 10.5982 57.6001 10.4277C57.4865 10.2549 57.3504 10.1081 57.1918 9.98737C57.0331 9.86427 56.852 9.77075 56.6484 9.70683C56.4472 9.64291 56.2259 9.61095 55.9844 9.61095C55.5748 9.61095 55.2055 9.7163 54.8764 9.927C54.5473 10.1377 54.2869 10.4467 54.0952 10.8538C53.9058 11.2587 53.8111 11.7547 53.8111 12.3418C53.8111 12.9313 53.907 13.4296 54.0987 13.8368C54.2905 14.244 54.5533 14.5529 54.8871 14.7636C55.2209 14.9744 55.6009 15.0797 56.027 15.0797C56.4223 15.0797 56.7668 14.9992 57.0604 14.8382C57.3563 14.6772 57.5848 14.45 57.7457 14.1564C57.9091 13.8605 57.9908 13.5125 57.9908 13.1124L58.2749 13.1656H56.1939V12.2601H59.0526V13.0875C59.0526 13.6983 58.9223 14.2286 58.6619 14.6784C58.4039 15.1259 58.0464 15.4715 57.5895 15.7154C57.1349 15.9592 56.6141 16.0811 56.027 16.0811C55.3688 16.0811 54.7912 15.9296 54.294 15.6266C53.7992 15.3235 53.4134 14.8939 53.1364 14.3375C52.8594 13.7788 52.7209 13.1159 52.7209 12.3489C52.7209 11.7689 52.8014 11.248 52.9624 10.7864C53.1233 10.3247 53.3494 9.93292 53.6406 9.61095C53.9342 9.28661 54.2786 9.03922 54.674 8.86876C55.0717 8.69594 55.5062 8.60953 55.9773 8.60953C56.3703 8.60953 56.736 8.66753 57.0746 8.78354C57.4155 8.89954 57.7185 9.06408 57.9837 9.27714C58.2512 9.49021 58.4725 9.74353 58.6477 10.0371C58.8229 10.3283 58.9413 10.6514 59.0028 11.0065H57.8771ZM60.4455 15.9817V8.70896H65.0051V9.65356H61.5428V11.8695H64.7672V12.8105H61.5428V15.0371H65.0478V15.9817H60.4455ZM66.1122 9.65356V8.70896H71.7408V9.65356H69.4716V15.9817H68.3778V9.65356H66.1122ZM76.7283 8.70896V15.9817H75.631V8.70896H76.7283ZM77.9677 9.65356V8.70896H83.5962V9.65356H81.3271V15.9817H80.2333V9.65356H77.9677ZM93.804 12.3453C93.804 13.1218 93.6619 13.7895 93.3778 14.3482C93.0938 14.9045 92.7043 15.333 92.2095 15.6337C91.7171 15.932 91.1572 16.0811 90.5298 16.0811C89.9001 16.0811 89.3378 15.932 88.843 15.6337C88.3506 15.333 87.9624 14.9033 87.6783 14.3446C87.3942 13.7859 87.2521 13.1195 87.2521 12.3453C87.2521 11.5688 87.3942 10.9024 87.6783 10.346C87.9624 9.78732 88.3506 9.35882 88.843 9.06052C89.3378 8.75986 89.9001 8.60953 90.5298 8.60953C91.1572 8.60953 91.7171 8.75986 92.2095 9.06052C92.7043 9.35882 93.0938 9.78732 93.3778 10.346C93.6619 10.9024 93.804 11.5688 93.804 12.3453ZM92.7173 12.3453C92.7173 11.7535 92.6214 11.2551 92.4297 10.8503C92.2403 10.4431 91.9799 10.1353 91.6484 9.927C91.3194 9.7163 90.9465 9.61095 90.5298 9.61095C90.1108 9.61095 89.7367 9.7163 89.4077 9.927C89.0786 10.1353 88.8182 10.4431 88.6264 10.8503C88.437 11.2551 88.3423 11.7535 88.3423 12.3453C88.3423 12.9372 88.437 13.4367 88.6264 13.8439C88.8182 14.2487 89.0786 14.5565 89.4077 14.7672C89.7367 14.9755 90.1108 15.0797 90.5298 15.0797C90.9465 15.0797 91.3194 14.9755 91.6484 14.7672C91.9799 14.5565 92.2403 14.2487 92.4297 13.8439C92.6214 13.4367 92.7173 12.9372 92.7173 12.3453ZM101.042 8.70896V15.9817H100.034L96.3368 10.6479H96.2694V15.9817H95.1721V8.70896H96.1877L99.888 14.0499H99.9554V8.70896H101.042Z" fill="white"/>
<path d="M55.1998 34.9817H52.8702L58.1046 20.4362H60.6401L65.8745 34.9817H63.5449L59.4327 23.0783H59.3191L55.1998 34.9817ZM55.5904 29.2857H63.1472V31.1323H55.5904V29.2857ZM67.8045 39.0726V24.0726H69.8784V25.8411H70.0559C70.179 25.6138 70.3566 25.351 70.5886 25.0527C70.8206 24.7544 71.1426 24.494 71.5545 24.2715C71.9664 24.0442 72.5109 23.9306 73.188 23.9306C74.0687 23.9306 74.8547 24.1531 75.546 24.5982C76.2373 25.0432 76.7794 25.6848 77.1724 26.5229C77.5701 27.361 77.769 28.3695 77.769 29.5485C77.769 30.7274 77.5725 31.7383 77.1795 32.5811C76.7865 33.4192 76.2467 34.0655 75.5602 34.52C74.8736 34.9699 74.09 35.1948 73.2093 35.1948C72.5465 35.1948 72.0043 35.0835 71.5829 34.861C71.1663 34.6384 70.8395 34.378 70.6028 34.0797C70.3661 33.7814 70.1838 33.5163 70.0559 33.2842H69.9281V39.0726H67.8045ZM69.8855 29.5271C69.8855 30.2942 69.9967 30.9665 70.2193 31.5442C70.4418 32.1218 70.7638 32.574 71.1852 32.9007C71.6066 33.2227 72.1227 33.3837 72.7335 33.3837C73.368 33.3837 73.8983 33.2156 74.3244 32.8794C74.7505 32.5385 75.0725 32.0769 75.2903 31.4945C75.5128 30.9121 75.6241 30.2563 75.6241 29.5271C75.6241 28.8074 75.5152 28.1611 75.2974 27.5882C75.0843 27.0153 74.7624 26.5631 74.3315 26.2317C73.9054 25.9002 73.3727 25.7345 72.7335 25.7345C72.118 25.7345 71.5971 25.8931 71.171 26.2104C70.7496 26.5276 70.43 26.9703 70.2122 27.5385C69.9944 28.1067 69.8855 28.7696 69.8855 29.5271ZM80.1483 39.0726V24.0726H82.2221V25.8411H82.3997C82.5228 25.6138 82.7003 25.351 82.9324 25.0527C83.1644 24.7544 83.4863 24.494 83.8983 24.2715C84.3102 24.0442 84.8547 23.9306 85.5318 23.9306C86.4125 23.9306 87.1984 24.1531 87.8897 24.5982C88.581 25.0432 89.1232 25.6848 89.5162 26.5229C89.9139 27.361 90.1127 28.3695 90.1127 29.5485C90.1127 30.7274 89.9163 31.7383 89.5233 32.5811C89.1303 33.4192 88.5905 34.0655 87.9039 34.52C87.2174 34.9699 86.4338 35.1948 85.5531 35.1948C84.8902 35.1948 84.3481 35.0835 83.9267 34.861C83.51 34.6384 83.1833 34.378 82.9466 34.0797C82.7098 33.7814 82.5275 33.5163 82.3997 33.2842H82.2718V39.0726H80.1483ZM82.2292 29.5271C82.2292 30.2942 82.3405 30.9665 82.563 31.5442C82.7856 32.1218 83.1075 32.574 83.5289 32.9007C83.9503 33.2227 84.4664 33.3837 85.0772 33.3837C85.7117 33.3837 86.242 33.2156 86.6681 32.8794C87.0943 32.5385 87.4163 32.0769 87.6341 31.4945C87.8566 30.9121 87.9679 30.2563 87.9679 29.5271C87.9679 28.8074 87.859 28.1611 87.6412 27.5882C87.4281 27.0153 87.1061 26.5631 86.6752 26.2317C86.2491 25.9002 85.7164 25.7345 85.0772 25.7345C84.4617 25.7345 83.9409 25.8931 83.5147 26.2104C83.0933 26.5276 82.7737 26.9703 82.5559 27.5385C82.3381 28.1067 82.2292 28.7696 82.2292 29.5271ZM105.889 24.2573C105.813 23.5849 105.5 23.0641 104.951 22.6948C104.402 22.3207 103.711 22.1337 102.877 22.1337C102.281 22.1337 101.765 22.2284 101.329 22.4178C100.893 22.6024 100.555 22.8581 100.313 23.1848C100.077 23.5068 99.9583 23.8737 99.9583 24.2857C99.9583 24.6313 100.039 24.9296 100.2 25.1806C100.365 25.4315 100.581 25.6422 100.846 25.8127C101.116 25.9784 101.405 26.1181 101.713 26.2317C102.02 26.3406 102.316 26.4306 102.6 26.5016L104.021 26.8709C104.485 26.9845 104.961 27.1384 105.448 27.3325C105.936 27.5267 106.388 27.7824 106.805 28.0996C107.222 28.4168 107.558 28.8098 107.813 29.2786C108.074 29.7473 108.204 30.3084 108.204 30.9618C108.204 31.7857 107.991 32.5172 107.565 33.1564C107.143 33.7956 106.53 34.2999 105.725 34.6692C104.925 35.0385 103.957 35.2232 102.82 35.2232C101.731 35.2232 100.789 35.0503 99.9938 34.7047C99.1983 34.3591 98.5757 33.869 98.1259 33.2345C97.6761 32.5953 97.4275 31.8377 97.3801 30.9618H99.5819C99.6245 31.4874 99.7949 31.9253 100.093 32.2757C100.396 32.6214 100.782 32.8794 101.251 33.0499C101.724 33.2156 102.243 33.2985 102.806 33.2985C103.427 33.2985 103.978 33.2014 104.461 33.0073C104.949 32.8084 105.332 32.5338 105.612 32.1834C105.891 31.8283 106.031 31.414 106.031 30.9405C106.031 30.5096 105.908 30.1569 105.661 29.8823C105.42 29.6076 105.091 29.3804 104.674 29.2004C104.262 29.0205 103.796 28.8619 103.275 28.7246L101.556 28.2558C100.392 27.9386 99.4682 27.4722 98.7864 26.8567C98.1093 26.2412 97.7708 25.4268 97.7708 24.4135C97.7708 23.5754 97.998 22.8439 98.4526 22.2189C98.9071 21.5939 99.5227 21.1086 100.299 20.7629C101.076 20.4126 101.952 20.2374 102.927 20.2374C103.912 20.2374 104.781 20.4102 105.534 20.7558C106.291 21.1015 106.888 21.5773 107.323 22.1834C107.759 22.7847 107.986 23.476 108.005 24.2573H105.889ZM115.748 24.0726V25.7771H109.79V24.0726H115.748ZM111.388 21.459H113.511V31.7786C113.511 32.1905 113.573 32.5006 113.696 32.709C113.819 32.9126 113.978 33.0522 114.172 33.128C114.371 33.199 114.586 33.2345 114.818 33.2345C114.988 33.2345 115.138 33.2227 115.265 33.199C115.393 33.1753 115.493 33.1564 115.564 33.1422L115.947 34.8965C115.824 34.9438 115.649 34.9912 115.422 35.0385C115.194 35.0906 114.91 35.119 114.569 35.1237C114.011 35.1332 113.49 35.0338 113.007 34.8254C112.524 34.6171 112.133 34.2951 111.835 33.8595C111.537 33.4239 111.388 32.877 111.388 32.2189V21.459ZM122.575 35.2019C121.553 35.2019 120.66 34.9675 119.898 34.4987C119.136 34.03 118.544 33.3742 118.122 32.5314C117.701 31.6886 117.49 30.7038 117.49 29.5769C117.49 28.4452 117.701 27.4556 118.122 26.6081C118.544 25.7606 119.136 25.1024 119.898 24.6337C120.66 24.1649 121.553 23.9306 122.575 23.9306C123.598 23.9306 124.491 24.1649 125.253 24.6337C126.015 25.1024 126.607 25.7606 127.029 26.6081C127.45 27.4556 127.661 28.4452 127.661 29.5769C127.661 30.7038 127.45 31.6886 127.029 32.5314C126.607 33.3742 126.015 34.03 125.253 34.4987C124.491 34.9675 123.598 35.2019 122.575 35.2019ZM122.583 33.4192C123.245 33.4192 123.795 33.244 124.23 32.8936C124.666 32.5432 124.988 32.0769 125.196 31.4945C125.409 30.9121 125.516 30.2705 125.516 29.5698C125.516 28.8737 125.409 28.2345 125.196 27.6521C124.988 27.065 124.666 26.5939 124.23 26.2388C123.795 25.8837 123.245 25.7061 122.583 25.7061C121.915 25.7061 121.361 25.8837 120.921 26.2388C120.485 26.5939 120.161 27.065 119.948 27.6521C119.739 28.2345 119.635 28.8737 119.635 29.5698C119.635 30.2705 119.739 30.9121 119.948 31.4945C120.161 32.0769 120.485 32.5432 120.921 32.8936C121.361 33.244 121.915 33.4192 122.583 33.4192ZM130.031 34.9817V24.0726H132.084V25.8056H132.197C132.396 25.2184 132.747 24.7568 133.248 24.4206C133.755 24.0797 134.328 23.9092 134.967 23.9092C135.1 23.9092 135.256 23.914 135.436 23.9235C135.621 23.9329 135.765 23.9448 135.869 23.959V25.9902C135.784 25.9665 135.632 25.9405 135.415 25.9121C135.197 25.8789 134.979 25.8624 134.761 25.8624C134.259 25.8624 133.812 25.9689 133.419 26.182C133.031 26.3903 132.723 26.6815 132.496 27.0556C132.268 27.4249 132.155 27.8463 132.155 28.3198V34.9817H130.031ZM142.018 35.2019C140.943 35.2019 140.017 34.9722 139.241 34.5129C138.469 34.0489 137.873 33.3979 137.451 32.5598C137.035 31.717 136.826 30.7298 136.826 29.5982C136.826 28.4807 137.035 27.4959 137.451 26.6436C137.873 25.7913 138.46 25.1261 139.213 24.6479C139.97 24.1697 140.856 23.9306 141.869 23.9306C142.484 23.9306 143.081 24.0324 143.659 24.236C144.236 24.4395 144.755 24.7592 145.214 25.1948C145.673 25.6304 146.035 26.1962 146.301 26.8922C146.566 27.5835 146.698 28.4239 146.698 29.4135V30.1663H138.026V28.5754H144.617C144.617 28.0167 144.504 27.5219 144.276 27.0911C144.049 26.6555 143.73 26.3122 143.318 26.0612C142.91 25.8103 142.432 25.6848 141.883 25.6848C141.286 25.6848 140.766 25.8316 140.32 26.1252C139.88 26.414 139.539 26.7928 139.298 27.2615C139.061 27.7255 138.943 28.2298 138.943 28.7743V30.0172C138.943 30.7464 139.07 31.3666 139.326 31.878C139.587 32.3894 139.949 32.78 140.413 33.0499C140.877 33.315 141.419 33.4476 142.039 33.4476C142.442 33.4476 142.809 33.3908 143.14 33.2771C143.472 33.1588 143.758 32.9836 143.999 32.7516C144.241 32.5196 144.426 32.2331 144.553 31.8922L146.563 32.2544C146.402 32.8463 146.114 33.3647 145.697 33.8098C145.285 34.2502 144.767 34.5934 144.142 34.8396C143.521 35.0811 142.813 35.2019 142.018 35.2019Z" fill="white"/>
<defs>
<clipPath id="clip0_4368_2476">
<rect width="32" height="32" fill="white" transform="translate(16 6.98169)"/>
</clipPath>
</defs>
</svg>
