<svg width="576" height="478" viewBox="0 0 576 478" fill="none" xmlns="http://www.w3.org/2000/svg">
<g opacity="0.07">
<path d="M3.19775 464.538C9.10135 421.742 26.4808 384.241 48.7398 349.488C84.6433 293.386 130.396 251.616 192.565 234.802C212.474 229.407 232.565 229.506 252.806 230.367C289.552 231.922 325.878 230.3 360.757 215.241C374.793 209.184 387.022 200.28 401.148 186.015C398.528 216.896 391.781 241.157 371.54 258.07C345.366 279.948 313.92 288.918 282.986 298.913C276.209 301.098 268.739 301.098 262.233 306.427C268.468 317.151 277.293 324.432 286.058 331.582C320.817 359.98 359.733 379.409 401.088 392.483C452.383 408.668 498.889 391.821 543.196 364.184C566.69 349.521 587.955 331.383 608.829 312.616C614.913 307.155 620.094 299.079 629.521 299.873C630.395 307.254 625.756 311.325 621.72 315.893C607.323 332.144 591.389 346.41 575.335 360.609C511.51 416.976 439.733 435.312 359.944 414.857C326.329 406.252 294.221 392.516 262.173 378.681C224.884 362.562 186.962 352.434 146.33 361.469C94.2517 373.021 53.3482 403.703 19.282 447.261C14.4628 453.417 10.3965 460.93 3.19775 464.637V464.538Z" fill="#013826"/>
<path d="M3.88849 463.622C6.94805 461.834 9.43168 459.318 11.6993 456.517C12.9476 454.975 14.1244 453.355 15.296 451.726C15.4014 451.58 15.5067 451.433 15.6121 451.287C16.6752 449.808 17.7394 448.328 18.8433 446.917C18.8434 446.917 18.8434 446.917 18.8435 446.917L19.282 447.261C53.3482 403.703 94.2517 373.021 146.33 361.469L3.88849 463.622ZM3.88849 463.622C9.90754 421.344 27.1488 384.231 49.2088 349.788L49.2089 349.788C85.0641 293.762 130.716 252.106 192.71 235.339L192.71 235.339C212.531 229.968 232.547 230.063 252.782 230.923C289.554 232.48 325.981 230.862 360.978 215.752C374.736 209.815 386.753 201.163 400.46 187.495C397.75 217.604 390.915 241.155 371.183 257.643L371.54 258.07L371.183 257.643C347.069 277.798 318.463 286.96 289.802 296.139C287.473 296.885 285.143 297.631 282.815 298.383C281.147 298.921 279.431 299.326 277.678 299.716C277.354 299.788 277.028 299.86 276.7 299.932C275.267 300.247 273.812 300.567 272.365 300.953C268.798 301.902 265.219 303.261 261.88 305.996L261.513 306.297L261.752 306.707C268.044 317.53 276.948 324.87 285.706 332.013C320.528 360.463 359.509 379.922 400.92 393.014L400.921 393.014C452.446 409.272 499.13 392.327 543.491 364.656L543.196 364.184L543.491 364.656C567.029 349.966 588.324 331.801 609.201 313.03C610.501 311.864 611.76 310.579 613.013 309.3C613.242 309.066 613.471 308.833 613.7 308.6C615.188 307.088 616.681 305.612 618.27 304.333C621.332 301.869 624.715 300.167 629.016 300.397C629.547 306.425 626.219 310.093 622.657 314.018C622.207 314.514 621.753 315.014 621.303 315.524C606.931 331.746 591.021 345.991 574.966 360.192C511.272 416.442 439.683 434.724 360.082 414.318L359.944 414.857L360.082 414.318C326.517 405.725 294.447 392.007 262.394 378.169L3.88849 463.622Z" stroke="white" stroke-opacity="0.5" stroke-width="1.11395"/>
<path d="M3.19678 464.535C10.3956 460.861 14.4618 453.348 19.2811 447.158C53.3472 403.601 94.2507 372.952 146.329 361.367C186.961 352.331 224.883 362.46 262.172 378.578C294.22 392.414 326.328 406.15 359.943 414.755C439.702 435.21 511.478 416.873 575.334 360.507C591.388 346.341 607.322 332.042 621.719 315.791C625.755 311.256 630.394 307.185 629.52 299.771C631.418 299.705 633.315 299.606 635.243 299.539C636.207 300.532 637.171 301.525 638.135 302.518C632.201 323.602 620.364 340.979 608.165 357.793C538.165 454.407 447.232 487.241 337.774 465.33C299.822 457.717 264.612 440.406 227.082 431.602C154.793 414.623 84.8532 416.211 20.3353 462.086C13.9498 466.62 8.04616 471.949 1.69076 477.079C-0.447787 472.015 2.08233 468.375 3.19678 464.535Z" fill="#013826"/>
<path d="M261.951 379.09L261.951 379.09C293.994 392.923 326.141 406.676 359.804 415.295C439.751 435.798 511.716 417.407 575.702 360.924C591.756 346.759 607.713 332.44 622.136 316.16C622.562 315.682 622.998 315.206 623.436 314.727C626.979 310.86 630.662 306.838 630.133 300.306C630.868 300.278 631.603 300.246 632.339 300.214L632.395 300.212C633.266 300.174 634.138 300.136 635.016 300.105L637.511 302.676C631.579 323.516 619.852 340.735 607.714 357.466L608.165 357.793L607.714 357.466C572.765 405.703 532.613 437.988 487.565 455.489C442.516 472.99 392.529 475.722 337.883 464.783C318.95 460.986 300.693 454.767 282.454 448.387C281.229 447.959 280.005 447.53 278.781 447.101C261.775 441.142 244.746 435.174 227.209 431.06C154.832 414.06 84.7083 415.631 20.0125 461.632C15.6846 464.705 11.5647 468.152 7.3966 471.64C5.59238 473.149 3.77913 474.666 1.93604 476.164C1.21346 474.064 1.32933 472.227 1.76432 470.483C2.00808 469.505 2.35167 468.559 2.71202 467.599C2.75132 467.494 2.79086 467.389 2.83049 467.284C3.12272 466.508 3.41992 465.719 3.66308 464.921C7.25945 463.033 10.0721 460.219 12.5641 457.141C13.8348 455.571 15.0283 453.925 16.1996 452.293C16.32 452.125 16.4401 451.958 16.56 451.79C17.61 450.326 18.6464 448.88 19.7201 447.501C53.729 404.017 94.5291 373.46 146.45 361.911C186.914 352.913 224.704 362.989 261.951 379.09Z" stroke="white" stroke-opacity="0.5" stroke-width="1.11395"/>
<path d="M844.219 0.894003C840.183 42.3994 824.129 78.8739 804.038 113.263C771.177 169.431 728.165 212.592 669.4 234.006C645.936 242.546 621.81 245.855 596.961 243.505C562.172 240.229 527.865 243.605 494.371 255.024C476.75 261.015 460.967 270.613 447.533 285.507C443.527 262.272 457.232 228.247 476.328 213.75C504.913 192.037 538.045 182.538 570.876 172.41C575.003 171.119 579.19 170.06 583.256 168.902C583.888 163.142 579.852 161.09 577.232 158.443C535.756 116.705 486.178 90.7562 432.082 78.2119C376.841 65.4028 328.136 89.8626 283.257 123.226C265.365 136.498 249.01 152.253 231.57 166.287C225.034 171.549 218.438 179.923 208.709 172.576C227.504 150.102 247.624 129.316 269.371 110.152C314.341 70.4669 365.817 49.1515 422.835 49.3501C469.943 49.4825 515.214 64.3768 558.979 83.7063C592.714 98.6337 626.599 115.315 663.527 114.686C731.117 113.528 784.069 78.0795 826.96 22.739C830.996 17.5094 837.833 12.9418 835.574 3.90596L835.514 4.10455C836.538 2.9792 837.562 1.88696 838.586 0.794708L838.466 0.894003C840.424 0.894003 842.352 0.960202 844.309 0.9933L844.219 0.894003Z" fill="#013826"/>
<path d="M834.093 15.0567C836.033 12.1189 837.222 8.6753 836.209 4.16911C837.05 3.25011 837.891 2.3509 838.734 1.45139C839.937 1.45499 841.126 1.48198 842.325 1.5092C842.747 1.51878 843.17 1.52839 843.596 1.53702C839.46 42.6416 823.515 78.8201 803.557 112.982C770.741 169.074 727.818 212.125 669.21 233.483C645.82 241.995 621.777 245.293 597.013 242.951C562.153 239.667 527.766 243.05 494.191 254.496C476.831 260.399 461.235 269.792 447.902 284.276C446.262 273 448.669 259.291 453.784 246.56C459.072 233.398 467.221 221.363 476.665 214.194L476.328 213.75L476.665 214.194C503.73 193.636 534.889 184.057 566.105 174.461C567.751 173.955 569.396 173.45 571.041 172.942L571.043 172.942C573.726 172.102 576.425 171.364 579.111 170.629C580.549 170.236 581.983 169.843 583.409 169.437L583.769 169.335L583.81 168.962C584.144 165.918 583.236 163.821 581.898 162.156C581.239 161.337 580.479 160.627 579.737 159.968C579.556 159.806 579.376 159.648 579.199 159.493C578.642 159.005 578.112 158.54 577.628 158.051L577.627 158.05C536.072 116.234 486.399 90.2357 432.207 77.6693C376.717 64.8024 327.836 89.3916 282.925 122.778C273.961 129.428 265.386 136.696 256.88 144.049C255.364 145.36 253.85 146.673 252.336 147.986C245.354 154.043 238.379 160.093 231.221 165.853L231.221 165.853C230.292 166.601 229.339 167.431 228.385 168.262C227.671 168.884 226.957 169.507 226.252 170.095C224.572 171.497 222.871 172.775 221.089 173.661C219.313 174.545 217.473 175.034 215.51 174.878C213.68 174.732 211.696 174.023 209.517 172.477C228.186 150.199 248.162 129.585 269.739 110.57L269.74 110.57C314.62 70.9632 365.968 49.709 422.833 49.9071L422.833 49.9071C469.828 50.0392 515.016 64.898 558.754 84.2158C561.553 85.4543 564.354 86.7056 567.159 87.9585C598.117 101.787 629.539 115.822 663.536 115.243C731.347 114.081 784.442 78.507 827.4 23.0802L827.401 23.0793C828.216 22.0233 829.146 20.9961 830.108 19.9332C830.318 19.7018 830.529 19.4687 830.741 19.2332C831.916 17.9261 833.102 16.5564 834.093 15.0567ZM583.256 168.902C583.768 164.24 581.221 162.007 578.842 159.922C578.282 159.43 577.731 158.947 577.232 158.443C535.756 116.705 486.178 90.7562 432.082 78.2119C376.841 65.4028 328.136 89.8626 283.257 123.226C272.718 131.044 262.713 139.723 252.704 148.404C245.722 154.461 238.737 160.519 231.57 166.287L583.256 168.902ZM269.371 110.152C314.341 70.4669 365.817 49.1515 422.835 49.3501C469.943 49.4825 515.214 64.3768 558.979 83.7063C561.775 84.9433 564.571 86.1924 567.371 87.4428C598.351 101.28 629.659 115.263 663.527 114.686C731.117 113.528 784.069 78.0795 826.96 22.739L269.371 110.152Z" stroke="white" stroke-opacity="0.5" stroke-width="1.11395"/>
<path d="M835.516 3.87107C837.775 12.94 830.938 17.5076 826.901 22.7041C784.01 78.0446 731.088 113.526 663.468 114.651C626.571 115.28 592.655 98.5988 558.92 83.6714C515.185 64.3088 469.884 49.4476 422.776 49.3152C365.788 49.1497 314.282 70.4651 269.312 110.117C247.596 129.281 227.445 150.067 208.65 172.541C204.192 170.191 207.264 167.477 208.439 165.027C250.879 77.482 314.312 20.7182 404.824 4.16895C463.318 -6.52184 519.161 7.08161 574.131 27.6357C626.059 47.0645 679.131 57.1926 733.95 48.3885C766.901 43.0927 798.016 31.409 825.666 10.1598C828.769 7.77668 832.172 5.92317 835.456 3.83797L835.516 3.87107Z" fill="#013826"/>
<path d="M835.132 4.70002C835.3 4.59525 835.467 4.48987 835.635 4.38376C837.125 11.3015 833.256 15.5584 829.615 19.564C828.662 20.6135 827.723 21.6457 826.901 22.7041L574.131 27.6357C626.059 47.0645 679.131 57.1926 733.95 48.3885C766.901 43.0927 798.016 31.409 825.666 10.1598C827.839 8.49076 830.16 7.0815 832.483 5.67049C833.325 5.15901 834.168 4.64731 835.004 4.12292C835.051 4.31747 835.094 4.50982 835.132 4.70002ZM835.132 4.70002C835.939 8.70572 834.87 11.7594 833.104 14.4329C832.163 15.858 831.025 17.1733 829.854 18.4714C829.64 18.7088 829.424 18.9461 829.209 19.1834C828.254 20.2336 827.298 21.2855 826.461 22.3624L826.461 22.3629C783.636 77.6174 730.858 112.973 663.459 114.095L663.468 114.651L663.459 114.095C629.731 114.669 598.497 100.722 567.473 86.8693C564.696 85.6293 561.921 84.3901 559.146 83.162C515.383 63.7874 469.999 48.8909 422.778 48.7582C365.637 48.5923 314.003 69.9687 268.944 109.699L268.944 109.699C247.32 128.782 227.247 149.47 208.519 171.829C207.714 171.348 207.282 170.885 207.067 170.465C206.827 169.998 206.817 169.514 206.969 168.971C207.125 168.411 207.444 167.825 207.827 167.192C207.909 167.054 207.996 166.914 208.084 166.771C208.385 166.282 208.701 165.768 208.941 165.27C251.321 77.8475 314.624 21.2274 404.924 4.71685C463.27 -5.94692 518.999 7.6157 573.936 28.1574C625.919 47.607 679.093 57.7629 734.038 48.9384C767.064 43.6306 798.27 31.9165 826.006 10.6014C828.153 8.95181 830.432 7.56815 832.743 6.16458C833.537 5.6826 834.334 5.19828 835.132 4.70002ZM835.456 3.83797L835.425 3.89369L835.331 3.91718C835.372 3.89081 835.414 3.86441 835.456 3.83797ZM835.456 3.83797L835.482 3.87949L835.516 3.87107M835.456 3.83797L835.516 3.87107M835.516 3.87107L835.498 3.90411L835.54 3.97168C835.532 3.9382 835.524 3.90467 835.516 3.87107Z" stroke="white" stroke-opacity="0.5" stroke-width="1.11395"/>
</g>
</svg>
