<svg width="82" height="69" viewBox="0 0 82 69" fill="none" xmlns="http://www.w3.org/2000/svg">
<path d="M81.0449 46.8214C81.0449 59.0703 71.1152 69 58.8664 69L25.5985 69C22.196 69 19.4378 66.2417 19.4378 62.8393L19.4378 20.9464C19.4378 14.1415 24.9543 8.625 31.7592 8.625L74.8842 8.62501C78.2867 8.62501 81.0449 11.3833 81.0449 14.7857L81.0449 46.8214Z" fill="#84CC6D" fill-opacity="0.4"/>
<path d="M34.1201 23.4239C33.7356 23.4239 33.4231 23.1119 33.4231 22.7269V21.5424C33.4231 21.158 33.7351 20.8455 34.1201 20.8455C34.5045 20.8455 34.8171 21.1575 34.8171 21.5424V22.7269C34.8171 23.1119 34.5046 23.4239 34.1201 23.4239Z" fill="#129166"/>
<path d="M31.1897 23.4239C30.8052 23.4239 30.4927 23.1119 30.4927 22.7269V21.5424C30.4927 21.158 30.8047 20.8455 31.1897 20.8455C31.5741 20.8455 31.8867 21.1575 31.8867 21.5424V22.7269C31.8862 23.1119 31.5746 23.4239 31.1897 23.4239Z" fill="#129166"/>
<path d="M28.2595 23.4239C27.875 23.4239 27.5625 23.1119 27.5625 22.7269V21.5424C27.5625 21.158 27.8745 20.8455 28.2595 20.8455C28.6439 20.8455 28.9565 21.1575 28.9565 21.5424V22.7269C28.9565 23.1119 28.6444 23.4239 28.2595 23.4239Z" fill="#129166"/>
<path d="M34.1201 28.2677C33.7356 28.2677 33.4231 27.9556 33.4231 27.5707V26.3867C33.4231 26.0022 33.7351 25.6897 34.1201 25.6897C34.5045 25.6897 34.8171 26.0017 34.8171 26.3867V27.5707C34.8171 27.9556 34.5046 28.2677 34.1201 28.2677Z" fill="#129166"/>
<path d="M31.1897 28.2677C30.8052 28.2677 30.4927 27.9556 30.4927 27.5707V26.3867C30.4927 26.0022 30.8047 25.6897 31.1897 25.6897C31.5741 25.6897 31.8867 26.0017 31.8867 26.3867V27.5707C31.8862 27.9556 31.5746 28.2677 31.1897 28.2677Z" fill="#129166"/>
<path d="M28.2595 28.2677C27.875 28.2677 27.5625 27.9556 27.5625 27.5707V26.3867C27.5625 26.0022 27.8745 25.6897 28.2595 25.6897C28.6439 25.6897 28.9565 26.0017 28.9565 26.3867V27.5707C28.9565 27.9556 28.6444 28.2677 28.2595 28.2677Z" fill="#129166"/>
<path d="M34.1201 33.1117C33.7356 33.1117 33.4231 32.7996 33.4231 32.4147V31.2302C33.4231 30.8457 33.7351 30.5332 34.1201 30.5332C34.5045 30.5332 34.8171 30.8452 34.8171 31.2302V32.4147C34.8171 32.7996 34.5046 33.1117 34.1201 33.1117Z" fill="#129166"/>
<path d="M31.1897 33.1117C30.8052 33.1117 30.4927 32.7996 30.4927 32.4147V31.2302C30.4927 30.8457 30.8047 30.5332 31.1897 30.5332C31.5741 30.5332 31.8867 30.8452 31.8867 31.2302V32.4147C31.8862 32.7996 31.5746 33.1117 31.1897 33.1117Z" fill="#129166"/>
<path d="M28.2595 33.1117C27.875 33.1117 27.5625 32.7996 27.5625 32.4147V31.2302C27.5625 30.8457 27.8745 30.5332 28.2595 30.5332C28.6439 30.5332 28.9565 30.8452 28.9565 31.2302V32.4147C28.9565 32.7996 28.6444 33.1117 28.2595 33.1117Z" fill="#129166"/>
<path d="M34.1201 37.9544C33.7356 37.9544 33.4231 37.6424 33.4231 37.2574V36.073C33.4231 35.6885 33.7351 35.376 34.1201 35.376C34.5045 35.376 34.8171 35.688 34.8171 36.073V37.2574C34.8171 37.6424 34.5046 37.9544 34.1201 37.9544Z" fill="#129166"/>
<path d="M31.1897 37.9544C30.8052 37.9544 30.4927 37.6424 30.4927 37.2574V36.073C30.4927 35.6885 30.8047 35.376 31.1897 35.376C31.5741 35.376 31.8867 35.688 31.8867 36.073V37.2574C31.8862 37.6424 31.5746 37.9544 31.1897 37.9544Z" fill="#129166"/>
<path d="M28.2595 37.9544C27.875 37.9544 27.5625 37.6424 27.5625 37.2574V36.073C27.5625 35.6885 27.8745 35.376 28.2595 35.376C28.6439 35.376 28.9565 35.688 28.9565 36.073V37.2574C28.9565 37.6424 28.6444 37.9544 28.2595 37.9544Z" fill="#129166"/>
<path d="M34.1201 42.7984C33.7356 42.7984 33.4231 42.4864 33.4231 42.1014V40.9175C33.4231 40.533 33.7351 40.2205 34.1201 40.2205C34.5045 40.2205 34.8171 40.5325 34.8171 40.9175V42.1014C34.8171 42.4859 34.5046 42.7984 34.1201 42.7984Z" fill="#129166"/>
<path d="M31.1897 42.7984C30.8052 42.7984 30.4927 42.4864 30.4927 42.1014V40.9175C30.4927 40.533 30.8047 40.2205 31.1897 40.2205C31.5741 40.2205 31.8867 40.5325 31.8867 40.9175V42.1014C31.8862 42.4859 31.5746 42.7984 31.1897 42.7984Z" fill="#129166"/>
<path d="M28.2595 42.7984C27.875 42.7984 27.5625 42.4864 27.5625 42.1014L27.563 40.9175C27.563 40.533 27.875 40.2205 28.26 40.2205C28.6444 40.2205 28.957 40.5325 28.957 40.9175V42.1014C28.9565 42.4859 28.6444 42.7984 28.2595 42.7984Z" fill="#129166"/>
<path d="M8.34897 47.6186C8.34897 48.0031 8.66101 48.3156 9.04597 48.3156H51.4905C51.875 48.3156 52.1875 48.0036 52.1875 47.6186C52.1875 47.2342 51.8755 46.9216 51.4905 46.9216H50.2021V26.91C50.2021 26.5256 49.89 26.213 49.5051 26.213L38.1254 26.2135V11.7862C38.1254 11.5422 37.998 11.3167 37.79 11.1903C37.5824 11.0635 37.3229 11.0557 37.1071 11.168L24.1692 17.9041C23.9383 18.0241 23.7944 18.2623 23.7944 18.5223V31.1243H11.2733C10.8889 31.1243 10.5764 31.4363 10.5764 31.8213V46.9217H9.04441C8.65996 46.9213 8.34839 47.2333 8.34839 47.6182L8.34897 47.6186ZM38.1256 36.7697H48.8088V46.9222L38.1256 46.9217V36.7697ZM38.1256 31.9263H48.8088V35.3762L38.1256 35.3758V31.9263ZM38.1256 27.6068H48.8088V30.5333H38.1256V27.6068ZM25.1877 18.9455L36.7312 12.9351V46.9211H25.1877V18.9455ZM15.4158 41.3548C15.4158 39.9084 16.5619 38.7312 17.9709 38.7312C19.3799 38.7312 20.5265 39.9079 20.5265 41.3548V46.922H15.4158V41.3548ZM11.9703 32.518H23.7942V46.9217H21.9205V41.3546C21.9205 39.1397 20.1494 37.3375 17.9709 37.3375C15.7934 37.3375 14.0223 39.1392 14.0223 41.3546V46.9217H11.9703V32.518Z" fill="#129166"/>
</svg>
