<svg width="52" height="30" viewBox="0 0 52 30" fill="none" xmlns="http://www.w3.org/2000/svg">
<path d="M0.736328 28.3821C1.09011 25.8048 2.1316 23.5465 3.4655 21.4535C5.61706 18.075 8.35887 15.5595 12.0844 14.5469C13.2775 14.222 14.4815 14.228 15.6944 14.2798C17.8965 14.3735 20.0734 14.2759 22.1636 13.3689C23.0047 13.0042 23.7375 12.468 24.5841 11.6089C24.427 13.4686 24.0227 14.9296 22.8097 15.9482C21.2412 17.2657 19.3568 17.8059 17.503 18.4079C17.0969 18.5394 16.6493 18.5394 16.2594 18.8603C16.633 19.5061 17.1619 19.9447 17.6871 20.3752C19.7701 22.0854 22.1022 23.2554 24.5805 24.0428C27.6544 25.0175 30.4413 24.0029 33.0965 22.3385C34.5044 21.4555 35.7787 20.3632 37.0296 19.2331C37.3942 18.9042 37.7047 18.4178 38.2696 18.4657C38.322 18.9102 38.044 19.1553 37.8021 19.4304C36.9393 20.4091 35.9845 21.2682 35.0224 22.1233C31.1976 25.5178 26.8963 26.622 22.1148 25.3902C20.1004 24.872 18.1763 24.0448 16.2558 23.2116C14.0212 22.2409 11.7487 21.6309 9.31372 22.1751C6.19286 22.8707 3.74166 24.7185 1.7002 27.3416C1.4114 27.7123 1.16772 28.1648 0.736328 28.3881V28.3821Z" fill="#FEC91A"/>
<path d="M0.736293 28.3819C1.16769 28.1607 1.41137 27.7082 1.70017 27.3354C3.74163 24.7123 6.19283 22.8666 9.31368 22.1689C11.7486 21.6248 14.0211 22.2347 16.2557 23.2054C18.1763 24.0386 20.1004 24.8658 22.1148 25.3841C26.8944 26.6159 31.1958 25.5116 35.0224 22.1171C35.9844 21.264 36.9393 20.4029 37.8021 19.4242C38.044 19.1512 38.3219 18.906 38.2696 18.4595C38.3833 18.4555 38.497 18.4495 38.6125 18.4456C38.6703 18.5054 38.7281 18.5652 38.7858 18.6249C38.4302 19.8946 37.7209 20.9411 36.9898 21.9537C32.795 27.772 27.3457 29.7493 20.7863 28.4297C18.512 27.9713 16.4019 26.9288 14.1529 26.3986C9.82089 25.3761 5.62966 25.4718 1.76334 28.2344C1.38068 28.5075 1.0269 28.8284 0.646043 29.1373C0.517887 28.8324 0.669508 28.6131 0.736293 28.3819Z" fill="#FEBC02"/>
<path d="M51.1356 0.46057C50.8937 2.9601 49.9316 5.15666 48.7277 7.22765C46.7584 10.6102 44.1809 13.2094 40.6593 14.499C39.2532 15.0133 37.8074 15.2126 36.3183 15.0711C34.2335 14.8738 32.1776 15.0771 30.1704 15.7647C29.1145 16.1255 28.1687 16.7036 27.3637 17.6005C27.1236 16.2013 27.9449 14.1522 29.0892 13.2792C30.8022 11.9716 32.7877 11.3995 34.7552 10.7896C35.0024 10.7118 35.2533 10.6481 35.497 10.5783C35.5349 10.2315 35.293 10.1079 35.136 9.94843C32.6505 7.43495 29.6795 5.87224 26.4377 5.1168C23.1273 4.34541 20.2086 5.81842 17.5191 7.82762C16.447 8.62691 15.4669 9.5757 14.4218 10.4208C14.0301 10.7378 13.6348 11.2421 13.0518 10.7996C14.1781 9.44614 15.3838 8.19438 16.687 7.04028C19.3819 4.65038 22.4667 3.36673 25.8835 3.37869C28.7066 3.38666 31.4195 4.28362 34.0422 5.44768C36.0638 6.34663 38.0944 7.35123 40.3074 7.31336C44.3578 7.2436 47.531 5.10883 50.1013 1.77611C50.3432 1.46118 50.7529 1.18611 50.6175 0.641955L50.6139 0.653915C50.6753 0.586144 50.7367 0.520367 50.798 0.45459L50.7908 0.46057C50.9082 0.46057 51.0237 0.464556 51.141 0.466549L51.1356 0.46057Z" fill="#50CF64"/>
<path d="M50.6142 0.639854C50.7495 1.186 50.3398 1.46107 50.0979 1.77401C47.5276 5.10672 44.3562 7.24349 40.304 7.31126C38.0928 7.34913 36.0604 6.34453 34.0388 5.44558C31.4179 4.27953 28.7032 3.38456 25.8802 3.37659C22.4651 3.36662 19.3785 4.65027 16.6837 7.03818C15.3822 8.19227 14.1747 9.44403 13.0484 10.7974C12.7812 10.6559 12.9653 10.4925 13.0357 10.345C15.579 5.07284 19.3803 1.65442 24.8044 0.657794C28.3097 0.0139741 31.6562 0.833199 34.9503 2.07101C38.0621 3.24104 41.2426 3.85098 44.5277 3.32077C46.5024 3.00185 48.3669 2.29824 50.0239 1.01857C50.2098 0.875058 50.4138 0.763436 50.6105 0.637861L50.6142 0.639854Z" fill="#01B445"/>
</svg>
