<svg width="251" height="68" viewBox="0 0 251 68" fill="none" xmlns="http://www.w3.org/2000/svg">
<path d="M77.9386 2.57478C78.7768 2.57478 79.5011 2.73287 80.1114 3.04906C80.7291 3.3579 81.1997 3.80276 81.5232 4.38367C81.8541 4.96457 82.0196 5.64841 82.0196 6.43521C82.0196 7.222 81.8541 7.90584 81.5232 8.48675C81.1997 9.0603 80.7291 9.50149 80.1114 9.81032C79.5011 10.1118 78.7768 10.2625 77.9386 10.2625H75.5451V2.57478H77.9386ZM77.9386 9.43531C78.9312 9.43531 79.6886 9.17427 80.2107 8.65219C80.7328 8.12276 80.9938 7.38377 80.9938 6.43521C80.9938 5.47929 80.7291 4.73294 80.1997 4.19616C79.6776 3.65938 78.9239 3.39099 77.9386 3.39099H76.5488V9.43531H77.9386ZM88.8584 7.00876C88.8584 7.19994 88.8474 7.40215 88.8253 7.61539H83.9943C84.031 8.211 84.2332 8.67793 84.6009 9.01618C84.9759 9.34707 85.4281 9.51252 85.9576 9.51252C86.3914 9.51252 86.7517 9.41325 87.0385 9.21471C87.3326 9.00882 87.5385 8.73676 87.6561 8.39851H88.7371C88.5753 8.97941 88.2518 9.45369 87.7664 9.82135C87.2811 10.1817 86.6782 10.3618 85.9576 10.3618C85.384 10.3618 84.8693 10.2331 84.4134 9.97577C83.9648 9.71841 83.6119 9.35442 83.3545 8.88382C83.0972 8.40586 82.9685 7.85437 82.9685 7.22935C82.9685 6.60433 83.0935 6.05652 83.3435 5.58591C83.5935 5.11531 83.9428 4.755 84.3913 4.50499C84.8472 4.24763 85.3693 4.11895 85.9576 4.11895C86.5311 4.11895 87.0385 4.24396 87.4797 4.49396C87.9209 4.74397 88.2591 5.08957 88.4944 5.53076C88.7371 5.9646 88.8584 6.45727 88.8584 7.00876ZM87.8216 6.79919C87.8216 6.41682 87.737 6.08961 87.5679 5.81754C87.3988 5.53812 87.1672 5.32855 86.873 5.18884C86.5863 5.04178 86.2664 4.96824 85.9134 4.96824C85.4061 4.96824 84.9722 5.13001 84.6119 5.45356C84.259 5.7771 84.0568 6.22564 84.0053 6.79919H87.8216ZM92.323 10.3618C91.8598 10.3618 91.4443 10.2846 91.0767 10.1302C90.709 9.96842 90.4186 9.74782 90.2053 9.4684C89.9921 9.18162 89.8744 8.85441 89.8524 8.48675H90.8892C90.9186 8.78823 91.0583 9.03456 91.3083 9.22574C91.5657 9.41693 91.9002 9.51252 92.312 9.51252C92.6944 9.51252 92.9959 9.42796 93.2165 9.25883C93.437 9.08971 93.5473 8.87647 93.5473 8.6191C93.5473 8.35439 93.4297 8.15953 93.1944 8.03453C92.9591 7.90217 92.5951 7.77349 92.1024 7.64848C91.6539 7.53083 91.2862 7.41318 90.9995 7.29553C90.72 7.17053 90.4774 6.99037 90.2715 6.75507C90.073 6.51241 89.9737 6.19623 89.9737 5.80651C89.9737 5.49767 90.0656 5.21458 90.2494 4.95721C90.4333 4.69985 90.6943 4.49764 91.0326 4.35058C91.3708 4.19616 91.7568 4.11895 92.1907 4.11895C92.8598 4.11895 93.4003 4.28807 93.8121 4.62632C94.2238 4.96457 94.4444 5.42782 94.4738 6.01607H93.4701C93.4481 5.69989 93.3194 5.4462 93.0841 5.25502C92.8561 5.06384 92.5473 4.96824 92.1576 4.96824C91.7973 4.96824 91.5105 5.04545 91.2973 5.19987C91.084 5.35429 90.9774 5.5565 90.9774 5.80651C90.9774 6.00504 91.0399 6.17049 91.1649 6.30285C91.2973 6.42785 91.459 6.5308 91.6502 6.61168C91.8488 6.68521 92.1208 6.76978 92.4664 6.86537C92.9003 6.98302 93.2532 7.10067 93.5253 7.21832C93.7974 7.32862 94.029 7.49774 94.2202 7.72569C94.4187 7.95364 94.5216 8.25144 94.529 8.6191C94.529 8.95 94.4371 9.2478 94.2533 9.51252C94.0694 9.77723 93.8084 9.9868 93.4701 10.1412C93.1392 10.2883 92.7569 10.3618 92.323 10.3618ZM101.461 7.00876C101.461 7.19994 101.45 7.40215 101.428 7.61539H96.5966C96.6334 8.211 96.8356 8.67793 97.2033 9.01618C97.5783 9.34707 98.0305 9.51252 98.56 9.51252C98.9938 9.51252 99.3541 9.41325 99.6409 9.21471C99.935 9.00882 100.141 8.73676 100.259 8.39851H101.339C101.178 8.97941 100.854 9.45369 100.369 9.82135C99.8835 10.1817 99.2806 10.3618 98.56 10.3618C97.9864 10.3618 97.4717 10.2331 97.0158 9.97577C96.5672 9.71841 96.2143 9.35442 95.9569 8.88382C95.6996 8.40586 95.5709 7.85437 95.5709 7.22935C95.5709 6.60433 95.6959 6.05652 95.9459 5.58591C96.1959 5.11531 96.5452 4.755 96.9937 4.50499C97.4496 4.24763 97.9717 4.11895 98.56 4.11895C99.1335 4.11895 99.6409 4.24396 100.082 4.49396C100.523 4.74397 100.861 5.08957 101.097 5.53076C101.339 5.9646 101.461 6.45727 101.461 7.00876ZM100.424 6.79919C100.424 6.41682 100.339 6.08961 100.17 5.81754C100.001 5.53812 99.7696 5.32855 99.4754 5.18884C99.1886 5.04178 98.8688 4.96824 98.5158 4.96824C98.0085 4.96824 97.5746 5.13001 97.2143 5.45356C96.8614 5.7771 96.6592 6.22564 96.6077 6.79919H100.424ZM105.731 4.10792C106.466 4.10792 107.062 4.33219 107.517 4.78074C107.973 5.22193 108.201 5.86166 108.201 6.69992V10.2625H107.209V6.84331C107.209 6.24035 107.058 5.78077 106.756 5.46458C106.455 5.14104 106.043 4.97927 105.521 4.97927C104.992 4.97927 104.569 5.14472 104.253 5.47561C103.944 5.80651 103.789 6.28814 103.789 6.92052V10.2625H102.786V4.21822H103.789V5.07854C103.988 4.76971 104.256 4.53073 104.595 4.36161C104.94 4.19248 105.319 4.10792 105.731 4.10792ZM112.091 9.33604L113.966 4.21822H115.036L112.664 10.2625H111.495L109.124 4.21822H110.205L112.091 9.33604ZM118.66 10.3618C118.093 10.3618 117.579 10.2331 117.115 9.97577C116.66 9.71841 116.299 9.35442 116.035 8.88382C115.777 8.40586 115.649 7.85437 115.649 7.22935C115.649 6.61168 115.781 6.06755 116.046 5.59694C116.318 5.11899 116.685 4.755 117.149 4.50499C117.612 4.24763 118.13 4.11895 118.704 4.11895C119.277 4.11895 119.796 4.24763 120.259 4.50499C120.722 4.755 121.086 5.11531 121.351 5.58591C121.623 6.05652 121.759 6.60433 121.759 7.22935C121.759 7.85437 121.619 8.40586 121.34 8.88382C121.068 9.35442 120.697 9.71841 120.226 9.97577C119.755 10.2331 119.233 10.3618 118.66 10.3618ZM118.66 9.47943C119.02 9.47943 119.358 9.39487 119.674 9.22574C119.991 9.05662 120.244 8.80293 120.435 8.46469C120.634 8.12644 120.733 7.71466 120.733 7.22935C120.733 6.74404 120.638 6.33226 120.446 5.99401C120.255 5.65577 120.005 5.40576 119.696 5.24399C119.388 5.07487 119.053 4.9903 118.693 4.9903C118.325 4.9903 117.987 5.07487 117.678 5.24399C117.377 5.40576 117.134 5.65577 116.95 5.99401C116.766 6.33226 116.674 6.74404 116.674 7.22935C116.674 7.72202 116.763 8.13747 116.939 8.47572C117.123 8.81396 117.366 9.06765 117.667 9.23677C117.968 9.39854 118.299 9.47943 118.66 9.47943ZM124.082 2.1005V10.2625H123.079V2.1005H124.082ZM128.043 9.33604L129.918 4.21822H130.988L128.617 10.2625H127.448L125.076 4.21822H126.157L128.043 9.33604ZM132.494 3.23657C132.303 3.23657 132.141 3.17039 132.009 3.03803C131.877 2.90567 131.81 2.7439 131.81 2.55272C131.81 2.36154 131.877 2.19977 132.009 2.06741C132.141 1.93505 132.303 1.86887 132.494 1.86887C132.678 1.86887 132.832 1.93505 132.957 2.06741C133.09 2.19977 133.156 2.36154 133.156 2.55272C133.156 2.7439 133.09 2.90567 132.957 3.03803C132.832 3.17039 132.678 3.23657 132.494 3.23657ZM132.98 4.21822V10.2625H131.976V4.21822H132.98ZM134.315 7.21832C134.315 6.60065 134.44 6.06019 134.69 5.59694C134.94 5.12634 135.282 4.76236 135.716 4.50499C136.157 4.24763 136.65 4.11895 137.194 4.11895C137.665 4.11895 138.102 4.22925 138.506 4.44984C138.911 4.66309 139.22 4.94619 139.433 5.29914V2.1005H140.448V10.2625H139.433V9.12647C139.234 9.48678 138.94 9.78459 138.551 10.0199C138.161 10.2478 137.705 10.3618 137.183 10.3618C136.646 10.3618 136.157 10.2295 135.716 9.96474C135.282 9.70002 134.94 9.32869 134.69 8.85073C134.44 8.37277 134.315 7.82864 134.315 7.21832ZM139.433 7.22935C139.433 6.77345 139.341 6.37638 139.157 6.03813C138.973 5.69989 138.723 5.44253 138.407 5.26605C138.098 5.08222 137.756 4.9903 137.381 4.9903C137.006 4.9903 136.665 5.07854 136.356 5.25502C136.047 5.4315 135.801 5.68886 135.617 6.0271C135.433 6.36535 135.341 6.76242 135.341 7.21832C135.341 7.68157 135.433 8.086 135.617 8.4316C135.801 8.76984 136.047 9.03088 136.356 9.21471C136.665 9.39119 137.006 9.47943 137.381 9.47943C137.756 9.47943 138.098 9.39119 138.407 9.21471C138.723 9.03088 138.973 8.76984 139.157 8.4316C139.341 8.086 139.433 7.68525 139.433 7.22935ZM144.78 10.3618C144.214 10.3618 143.699 10.2331 143.236 9.97577C142.78 9.71841 142.42 9.35442 142.155 8.88382C141.898 8.40586 141.769 7.85437 141.769 7.22935C141.769 6.61168 141.901 6.06755 142.166 5.59694C142.438 5.11899 142.806 4.755 143.269 4.50499C143.732 4.24763 144.251 4.11895 144.824 4.11895C145.398 4.11895 145.916 4.24763 146.379 4.50499C146.843 4.755 147.207 5.11531 147.471 5.58591C147.743 6.05652 147.879 6.60433 147.879 7.22935C147.879 7.85437 147.74 8.40586 147.46 8.88382C147.188 9.35442 146.817 9.71841 146.346 9.97577C145.876 10.2331 145.354 10.3618 144.78 10.3618ZM144.78 9.47943C145.14 9.47943 145.479 9.39487 145.795 9.22574C146.111 9.05662 146.365 8.80293 146.556 8.46469C146.754 8.12644 146.854 7.71466 146.854 7.22935C146.854 6.74404 146.758 6.33226 146.567 5.99401C146.376 5.65577 146.126 5.40576 145.817 5.24399C145.508 5.07487 145.173 4.9903 144.813 4.9903C144.445 4.9903 144.107 5.07487 143.798 5.24399C143.497 5.40576 143.254 5.65577 143.07 5.99401C142.887 6.33226 142.795 6.74404 142.795 7.22935C142.795 7.72202 142.883 8.13747 143.059 8.47572C143.243 8.81396 143.486 9.06765 143.787 9.23677C144.089 9.39854 144.42 9.47943 144.78 9.47943ZM153.143 5.33223C153.342 4.98663 153.636 4.69985 154.026 4.4719C154.423 4.2366 154.882 4.11895 155.404 4.11895C155.941 4.11895 156.427 4.24763 156.86 4.50499C157.302 4.76236 157.647 5.12634 157.897 5.59694C158.147 6.06019 158.272 6.60065 158.272 7.21832C158.272 7.82864 158.147 8.37277 157.897 8.85073C157.647 9.32869 157.302 9.70002 156.86 9.96474C156.427 10.2295 155.941 10.3618 155.404 10.3618C154.89 10.3618 154.434 10.2478 154.037 10.0199C153.647 9.78459 153.349 9.49413 153.143 9.14853V13.1303H152.14V4.21822H153.143V5.33223ZM157.246 7.21832C157.246 6.76242 157.155 6.36535 156.971 6.0271C156.787 5.68886 156.537 5.4315 156.221 5.25502C155.912 5.07854 155.57 4.9903 155.195 4.9903C154.827 4.9903 154.485 5.08222 154.169 5.26605C153.86 5.44253 153.61 5.70356 153.419 6.04916C153.235 6.38741 153.143 6.78081 153.143 7.22935C153.143 7.68525 153.235 8.086 153.419 8.4316C153.61 8.76984 153.86 9.03088 154.169 9.21471C154.485 9.39119 154.827 9.47943 155.195 9.47943C155.57 9.47943 155.912 9.39119 156.221 9.21471C156.537 9.03088 156.787 8.76984 156.971 8.4316C157.155 8.086 157.246 7.68157 157.246 7.21832ZM165.108 7.00876C165.108 7.19994 165.097 7.40215 165.075 7.61539H160.244C160.281 8.211 160.483 8.67793 160.851 9.01618C161.226 9.34707 161.678 9.51252 162.207 9.51252C162.641 9.51252 163.002 9.41325 163.288 9.21471C163.582 9.00882 163.788 8.73676 163.906 8.39851H164.987C164.825 8.97941 164.502 9.45369 164.016 9.82135C163.531 10.1817 162.928 10.3618 162.207 10.3618C161.634 10.3618 161.119 10.2331 160.663 9.97577C160.215 9.71841 159.862 9.35442 159.604 8.88382C159.347 8.40586 159.218 7.85437 159.218 7.22935C159.218 6.60433 159.343 6.05652 159.593 5.58591C159.843 5.11531 160.193 4.755 160.641 4.50499C161.097 4.24763 161.619 4.11895 162.207 4.11895C162.781 4.11895 163.288 4.24396 163.73 4.49396C164.171 4.74397 164.509 5.08957 164.744 5.53076C164.987 5.9646 165.108 6.45727 165.108 7.00876ZM164.071 6.79919C164.071 6.41682 163.987 6.08961 163.818 5.81754C163.649 5.53812 163.417 5.32855 163.123 5.18884C162.836 5.04178 162.516 4.96824 162.163 4.96824C161.656 4.96824 161.222 5.13001 160.862 5.45356C160.509 5.7771 160.307 6.22564 160.255 6.79919H164.071ZM167.437 2.1005V10.2625H166.433V2.1005H167.437ZM168.772 7.21832C168.772 6.60065 168.897 6.06019 169.147 5.59694C169.397 5.12634 169.739 4.76236 170.173 4.50499C170.614 4.24763 171.103 4.11895 171.64 4.11895C172.17 4.11895 172.629 4.23293 173.019 4.46087C173.409 4.68882 173.699 4.9756 173.89 5.3212V4.21822H174.905V10.2625H173.89V9.1375C173.692 9.49046 173.394 9.78459 172.997 10.0199C172.607 10.2478 172.151 10.3618 171.629 10.3618C171.092 10.3618 170.607 10.2295 170.173 9.96474C169.739 9.70002 169.397 9.32869 169.147 8.85073C168.897 8.37277 168.772 7.82864 168.772 7.21832ZM173.89 7.22935C173.89 6.77345 173.798 6.37638 173.615 6.03813C173.431 5.69989 173.181 5.44253 172.865 5.26605C172.556 5.08222 172.214 4.9903 171.839 4.9903C171.464 4.9903 171.122 5.07854 170.813 5.25502C170.504 5.4315 170.258 5.68886 170.074 6.0271C169.89 6.36535 169.798 6.76242 169.798 7.21832C169.798 7.68157 169.89 8.086 170.074 8.4316C170.258 8.76984 170.504 9.03088 170.813 9.21471C171.122 9.39119 171.464 9.47943 171.839 9.47943C172.214 9.47943 172.556 9.39119 172.865 9.21471C173.181 9.03088 173.431 8.76984 173.615 8.4316C173.798 8.086 173.89 7.68525 173.89 7.22935ZM179.167 7.22935C179.167 6.60433 179.292 6.06019 179.542 5.59694C179.792 5.12634 180.137 4.76236 180.579 4.50499C181.027 4.24763 181.538 4.11895 182.112 4.11895C182.854 4.11895 183.465 4.2991 183.943 4.65941C184.428 5.01972 184.748 5.51973 184.902 6.15946H183.821C183.718 5.7918 183.516 5.50135 183.215 5.28811C182.921 5.07487 182.553 4.96824 182.112 4.96824C181.538 4.96824 181.075 5.16678 180.722 5.56385C180.369 5.95357 180.193 6.50874 180.193 7.22935C180.193 7.95732 180.369 8.51984 180.722 8.91691C181.075 9.31398 181.538 9.51252 182.112 9.51252C182.553 9.51252 182.921 9.40957 183.215 9.20368C183.509 8.99779 183.711 8.70367 183.821 8.3213H184.902C184.74 8.93897 184.417 9.43531 183.932 9.81032C183.446 10.178 182.84 10.3618 182.112 10.3618C181.538 10.3618 181.027 10.2331 180.579 9.97577C180.137 9.71841 179.792 9.35442 179.542 8.88382C179.292 8.41322 179.167 7.86173 179.167 7.22935ZM188.878 10.3618C188.311 10.3618 187.797 10.2331 187.333 9.97577C186.878 9.71841 186.517 9.35442 186.253 8.88382C185.995 8.40586 185.866 7.85437 185.866 7.22935C185.866 6.61168 185.999 6.06755 186.264 5.59694C186.536 5.11899 186.903 4.755 187.367 4.50499C187.83 4.24763 188.348 4.11895 188.922 4.11895C189.495 4.11895 190.014 4.24763 190.477 4.50499C190.94 4.755 191.304 5.11531 191.569 5.58591C191.841 6.05652 191.977 6.60433 191.977 7.22935C191.977 7.85437 191.837 8.40586 191.558 8.88382C191.286 9.35442 190.914 9.71841 190.444 9.97577C189.973 10.2331 189.451 10.3618 188.878 10.3618ZM188.878 9.47943C189.238 9.47943 189.576 9.39487 189.892 9.22574C190.209 9.05662 190.462 8.80293 190.653 8.46469C190.852 8.12644 190.951 7.71466 190.951 7.22935C190.951 6.74404 190.856 6.33226 190.664 5.99401C190.473 5.65577 190.223 5.40576 189.914 5.24399C189.606 5.07487 189.271 4.9903 188.911 4.9903C188.543 4.9903 188.205 5.07487 187.896 5.24399C187.594 5.40576 187.352 5.65577 187.168 5.99401C186.984 6.33226 186.892 6.74404 186.892 7.22935C186.892 7.72202 186.981 8.13747 187.157 8.47572C187.341 8.81396 187.583 9.06765 187.885 9.23677C188.186 9.39854 188.517 9.47943 188.878 9.47943ZM200.565 4.10792C201.036 4.10792 201.455 4.20719 201.823 4.40573C202.19 4.59691 202.481 4.88736 202.694 5.27708C202.907 5.6668 203.014 6.14108 203.014 6.69992V10.2625H202.021V6.84331C202.021 6.24035 201.871 5.78077 201.569 5.46458C201.275 5.14104 200.874 4.97927 200.367 4.97927C199.845 4.97927 199.429 5.1484 199.12 5.48664C198.812 5.81754 198.657 6.29917 198.657 6.93155V10.2625H197.664V6.84331C197.664 6.24035 197.514 5.78077 197.212 5.46458C196.918 5.14104 196.517 4.97927 196.01 4.97927C195.488 4.97927 195.072 5.1484 194.764 5.48664C194.455 5.81754 194.3 6.29917 194.3 6.93155V10.2625H193.297V4.21822H194.3V5.08957C194.499 4.77339 194.764 4.53073 195.095 4.36161C195.433 4.19248 195.804 4.10792 196.209 4.10792C196.716 4.10792 197.164 4.2219 197.554 4.44984C197.944 4.67779 198.234 5.01236 198.426 5.45356C198.595 5.02707 198.874 4.69618 199.264 4.46087C199.654 4.22557 200.087 4.10792 200.565 4.10792ZM210.021 4.21822V10.2625H209.017V9.36913C208.826 9.67796 208.558 9.92062 208.212 10.0971C207.874 10.2662 207.499 10.3508 207.087 10.3508C206.616 10.3508 206.194 10.2552 205.819 10.064C205.444 9.86547 205.146 9.57134 204.925 9.18162C204.712 8.7919 204.605 8.31762 204.605 7.75878V4.21822H205.598V7.62642C205.598 8.22203 205.749 8.68161 206.05 9.00515C206.352 9.32133 206.763 9.47943 207.285 9.47943C207.822 9.47943 208.245 9.31398 208.554 8.98309C208.863 8.65219 209.017 8.17056 209.017 7.53819V4.21822H210.021ZM214.661 4.10792C215.396 4.10792 215.991 4.33219 216.447 4.78074C216.903 5.22193 217.131 5.86166 217.131 6.69992V10.2625H216.139V6.84331C216.139 6.24035 215.988 5.78077 215.686 5.46458C215.385 5.14104 214.973 4.97927 214.451 4.97927C213.922 4.97927 213.499 5.14472 213.183 5.47561C212.874 5.80651 212.719 6.28814 212.719 6.92052V10.2625H211.716V4.21822H212.719V5.07854C212.918 4.76971 213.186 4.53073 213.524 4.36161C213.87 4.19248 214.249 4.10792 214.661 4.10792ZM219.289 3.23657C219.098 3.23657 218.936 3.17039 218.804 3.03803C218.671 2.90567 218.605 2.7439 218.605 2.55272C218.605 2.36154 218.671 2.19977 218.804 2.06741C218.936 1.93505 219.098 1.86887 219.289 1.86887C219.473 1.86887 219.627 1.93505 219.752 2.06741C219.885 2.19977 219.951 2.36154 219.951 2.55272C219.951 2.7439 219.885 2.90567 219.752 3.03803C219.627 3.17039 219.473 3.23657 219.289 3.23657ZM219.774 4.21822V10.2625H218.771V4.21822H219.774ZM221.11 7.21832C221.11 6.60065 221.235 6.06019 221.485 5.59694C221.735 5.12634 222.077 4.76236 222.511 4.50499C222.952 4.24763 223.445 4.11895 223.989 4.11895C224.459 4.11895 224.897 4.22925 225.301 4.44984C225.706 4.66309 226.015 4.94619 226.228 5.29914V2.1005H227.243V10.2625H226.228V9.12647C226.029 9.48678 225.735 9.78459 225.346 10.0199C224.956 10.2478 224.5 10.3618 223.978 10.3618C223.441 10.3618 222.952 10.2295 222.511 9.96474C222.077 9.70002 221.735 9.32869 221.485 8.85073C221.235 8.37277 221.11 7.82864 221.11 7.21832ZM226.228 7.22935C226.228 6.77345 226.136 6.37638 225.952 6.03813C225.768 5.69989 225.518 5.44253 225.202 5.26605C224.893 5.08222 224.551 4.9903 224.176 4.9903C223.801 4.9903 223.459 5.07854 223.151 5.25502C222.842 5.4315 222.595 5.68886 222.412 6.0271C222.228 6.36535 222.136 6.76242 222.136 7.21832C222.136 7.68157 222.228 8.086 222.412 8.4316C222.595 8.76984 222.842 9.03088 223.151 9.21471C223.459 9.39119 223.801 9.47943 224.176 9.47943C224.551 9.47943 224.893 9.39119 225.202 9.21471C225.518 9.03088 225.768 8.76984 225.952 8.4316C226.136 8.086 226.228 7.68525 226.228 7.22935ZM228.564 7.21832C228.564 6.60065 228.689 6.06019 228.939 5.59694C229.189 5.12634 229.531 4.76236 229.965 4.50499C230.406 4.24763 230.895 4.11895 231.432 4.11895C231.961 4.11895 232.421 4.23293 232.81 4.46087C233.2 4.68882 233.49 4.9756 233.682 5.3212V4.21822H234.696V10.2625H233.682V9.1375C233.483 9.49046 233.185 9.78459 232.788 10.0199C232.399 10.2478 231.943 10.3618 231.421 10.3618C230.884 10.3618 230.398 10.2295 229.965 9.96474C229.531 9.70002 229.189 9.32869 228.939 8.85073C228.689 8.37277 228.564 7.82864 228.564 7.21832ZM233.682 7.22935C233.682 6.77345 233.59 6.37638 233.406 6.03813C233.222 5.69989 232.972 5.44253 232.656 5.26605C232.347 5.08222 232.005 4.9903 231.63 4.9903C231.255 4.9903 230.913 5.07854 230.604 5.25502C230.296 5.4315 230.049 5.68886 229.865 6.0271C229.682 6.36535 229.59 6.76242 229.59 7.21832C229.59 7.68157 229.682 8.086 229.865 8.4316C230.049 8.76984 230.296 9.03088 230.604 9.21471C230.913 9.39119 231.255 9.47943 231.63 9.47943C232.005 9.47943 232.347 9.39119 232.656 9.21471C232.972 9.03088 233.222 8.76984 233.406 8.4316C233.59 8.086 233.682 7.68525 233.682 7.22935ZM236.018 7.21832C236.018 6.60065 236.143 6.06019 236.393 5.59694C236.643 5.12634 236.984 4.76236 237.418 4.50499C237.86 4.24763 238.352 4.11895 238.896 4.11895C239.367 4.11895 239.804 4.22925 240.209 4.44984C240.613 4.66309 240.922 4.94619 241.135 5.29914V2.1005H242.15V10.2625H241.135V9.12647C240.937 9.48678 240.643 9.78459 240.253 10.0199C239.863 10.2478 239.407 10.3618 238.885 10.3618C238.349 10.3618 237.86 10.2295 237.418 9.96474C236.984 9.70002 236.643 9.32869 236.393 8.85073C236.143 8.37277 236.018 7.82864 236.018 7.21832ZM241.135 7.22935C241.135 6.77345 241.043 6.37638 240.86 6.03813C240.676 5.69989 240.426 5.44253 240.11 5.26605C239.801 5.08222 239.459 4.9903 239.084 4.9903C238.709 4.9903 238.367 5.07854 238.058 5.25502C237.749 5.4315 237.503 5.68886 237.319 6.0271C237.135 6.36535 237.043 6.76242 237.043 7.21832C237.043 7.68157 237.135 8.086 237.319 8.4316C237.503 8.76984 237.749 9.03088 238.058 9.21471C238.367 9.39119 238.709 9.47943 239.084 9.47943C239.459 9.47943 239.801 9.39119 240.11 9.21471C240.426 9.03088 240.676 8.76984 240.86 8.4316C241.043 8.086 241.135 7.68525 241.135 7.22935ZM249.361 7.00876C249.361 7.19994 249.35 7.40215 249.328 7.61539H244.497C244.534 8.211 244.736 8.67793 245.104 9.01618C245.479 9.34707 245.931 9.51252 246.46 9.51252C246.894 9.51252 247.254 9.41325 247.541 9.21471C247.835 9.00882 248.041 8.73676 248.159 8.39851H249.24C249.078 8.97941 248.755 9.45369 248.269 9.82135C247.784 10.1817 247.181 10.3618 246.46 10.3618C245.887 10.3618 245.372 10.2331 244.916 9.97577C244.468 9.71841 244.115 9.35442 243.857 8.88382C243.6 8.40586 243.471 7.85437 243.471 7.22935C243.471 6.60433 243.596 6.05652 243.846 5.58591C244.096 5.11531 244.446 4.755 244.894 4.50499C245.35 4.24763 245.872 4.11895 246.46 4.11895C247.034 4.11895 247.541 4.24396 247.982 4.49396C248.424 4.74397 248.762 5.08957 248.997 5.53076C249.24 5.9646 249.361 6.45727 249.361 7.00876ZM248.324 6.79919C248.324 6.41682 248.24 6.08961 248.071 5.81754C247.902 5.53812 247.67 5.32855 247.376 5.18884C247.089 5.04178 246.769 4.96824 246.416 4.96824C245.909 4.96824 245.475 5.13001 245.115 5.45356C244.762 5.7771 244.56 6.22564 244.508 6.79919H248.324Z" fill="white"/>
<g clip-path="url(#clip0_4264_6896)">
<path d="M58.9196 33.8882L59.2878 29.2778H42.1585L40.0513 55.7116H45.8479L46.7127 44.576H58.0662L58.4344 39.9638H47.0903L47.5794 33.8882H58.9196Z" fill="white"/>
<path d="M63.2361 29.2778H68.9194L66.8123 55.7115H61.1289L63.2361 29.2778Z" fill="white"/>
<path d="M90.1706 37.3039L88.7036 55.7152H83.1713L83.3601 53.3526C82.7068 54.2028 81.8798 54.8593 80.8753 55.322C79.8708 55.7848 78.7548 56.0161 77.5257 56.0161C75.5185 56.0161 73.9873 55.4537 72.9337 54.3289C71.8801 53.204 71.3533 51.5676 71.3533 49.4176C71.3533 48.8928 71.3665 48.494 71.391 48.2175L72.2558 37.3058H77.9392L77.0744 47.8789C76.9743 49.1035 77.1612 50.0289 77.6389 50.6534C78.1148 51.2779 78.8549 51.5901 79.8594 51.5901C80.964 51.5901 81.8476 51.2215 82.5123 50.4841C83.1769 49.7468 83.5602 48.7536 83.6603 47.5027L84.4892 37.3039H90.1725H90.1706Z" fill="white"/>
<path d="M102.398 48.4756L102.961 41.5384H106.476L106.814 37.3005H103.301L103.714 31.9021H98.0307L97.6172 37.3005H94.1165L93.7786 41.5384H97.2773L96.7146 48.4756C96.6882 48.6994 96.6769 49.038 96.6769 49.4876C96.6769 51.6375 97.3151 53.2627 98.5953 54.3612C99.8754 55.4616 101.782 56.0109 104.316 56.0109C104.828 56.0109 105.351 55.9657 105.351 55.9657C105.787 55.9262 106.161 55.8717 106.459 55.8171L106.782 51.7673C106.225 51.8219 105.742 51.8501 105.332 51.8501C103.2 51.8501 102.221 50.7253 102.398 48.4756Z" fill="white"/>
<path d="M141.606 39.1192C143.086 40.6315 143.826 42.8116 143.826 45.6613C143.826 46.2613 143.789 46.899 143.713 47.5743H131.706C131.933 50.3751 133.475 51.7745 136.336 51.7745C138.219 51.7745 140.012 51.1745 141.719 49.9744L142.924 53.7609C142.121 54.4606 141.092 55.0117 139.837 55.4105C138.581 55.8093 137.278 56.0106 135.923 56.0106C133.989 56.0106 132.295 55.6362 130.842 54.8857C129.386 54.1352 128.257 53.08 127.454 51.7181C126.652 50.3563 126.25 48.7743 126.25 46.9742C126.25 44.9992 126.657 43.2442 127.473 41.7055C128.289 40.1688 129.405 38.9743 130.823 38.1241C132.241 37.2739 133.84 36.8488 135.622 36.8488C138.132 36.8488 140.126 37.6049 141.606 39.1173V39.1192ZM131.82 44.7622H139.121C139.121 43.4116 138.827 42.4071 138.237 41.7432C137.648 41.081 136.838 40.75 135.809 40.75C133.576 40.75 132.246 42.0874 131.82 44.7622Z" fill="white"/>
<path d="M160.049 36.8881C157.113 37.1138 154.993 38.1014 153.688 39.8507L153.877 37.3377H148.456L146.989 55.7113H152.672L153.426 46.1126C153.55 44.7375 153.939 43.7256 154.593 43.0747C155.244 42.4258 156.322 42.0251 157.829 41.8747L160.971 41.538L161.347 36.8148L160.049 36.8881Z" fill="white"/>
<path d="M179.11 38.5944C180.353 39.7568 180.974 41.5137 180.974 43.863C180.974 44.4123 180.961 44.8261 180.936 45.1007L180.107 55.7115H174.724L174.913 53.1985C174.435 54.0976 173.77 54.7917 172.917 55.2788C172.064 55.766 171.072 56.0106 169.943 56.0106C168.714 56.0106 167.609 55.7735 166.631 55.2977C165.653 54.8236 164.887 54.1728 164.335 53.3471C163.784 52.5232 163.508 51.5977 163.508 50.5726C163.508 49.1731 163.865 48.0483 164.581 47.1981C165.296 46.3478 166.431 45.7309 167.987 45.3415C169.543 44.954 171.612 44.7603 174.197 44.7603H175.553L175.591 44.2731C175.666 43.1727 175.445 42.3676 174.932 41.8541C174.416 41.3425 173.57 41.0848 172.39 41.0848C171.461 41.0848 170.464 41.2484 169.397 41.572C168.331 41.8974 167.32 42.347 166.367 42.9225L165.125 39.1361C166.154 38.4608 167.434 37.9116 168.963 37.4864C170.493 37.0613 171.986 36.8488 173.442 36.8488C175.976 36.8488 177.864 37.43 179.106 38.5925L179.11 38.5944ZM174.105 51.0052C174.794 50.2679 175.19 49.3123 175.29 48.1367L175.328 47.499H174.312C172.354 47.499 170.987 47.6871 170.209 48.0614C169.431 48.4358 169.042 49.0734 169.042 49.9744C169.042 50.6252 169.269 51.1425 169.72 51.53C170.172 51.9175 170.774 52.1112 171.527 52.1112C172.556 52.1112 173.415 51.7426 174.105 51.0052Z" fill="white"/>
<path d="M201.546 38.5565C202.599 39.6945 203.126 41.363 203.126 43.5619C203.126 44.0867 203.113 44.4873 203.088 44.762L202.224 55.7113H196.54L197.405 44.9877C197.505 43.7631 197.311 42.8377 196.822 42.2132C196.333 41.5887 195.574 41.2765 194.544 41.2765C193.364 41.2765 192.437 41.6451 191.759 42.3825C191.082 43.1198 190.693 44.1262 190.593 45.4015L189.764 55.7132H184.08L185.547 37.3019H191.08L190.891 39.4763C191.542 38.6506 192.384 38.0073 193.413 37.5446C194.443 37.0818 195.596 36.8505 196.876 36.8505C198.934 36.8505 200.49 37.4185 201.544 38.5565H201.546Z" fill="white"/>
<path d="M227.921 29.2779L225.814 55.7117H220.206L220.395 53.4244C219.793 54.2238 219.001 54.8558 218.023 55.3185C217.045 55.7813 215.978 56.0126 214.825 56.0126C213.269 56.0126 211.894 55.6571 210.703 54.9442C209.512 54.2313 208.588 53.2081 207.937 51.8688C207.284 50.5314 206.959 48.9626 206.959 47.1625C206.959 45.163 207.329 43.3817 208.069 41.8186C208.809 40.2574 209.844 39.0385 211.175 38.1619C212.504 37.2873 214.036 36.849 215.767 36.849C218.276 36.849 220.157 37.7744 221.413 39.6235L222.242 29.2742H227.925L227.921 29.2779ZM219.847 50.2003C220.612 49.1752 220.995 47.8133 220.995 46.1129C220.995 44.4125 220.644 43.25 219.942 42.3998C219.239 41.5496 218.235 41.1245 216.93 41.1245C215.625 41.1245 214.515 41.6305 213.75 42.6425C212.986 43.6544 212.602 45.0483 212.602 46.8239C212.602 48.3983 212.959 49.6116 213.675 50.4618C214.391 51.312 215.412 51.7371 216.743 51.7371C218.074 51.7371 219.083 51.2255 219.849 50.2003H219.847Z" fill="white"/>
<path d="M235.149 54.8876C233.693 54.1371 232.572 53.0818 231.781 51.72C230.99 50.3581 230.595 48.7649 230.595 46.9385C230.595 44.8901 231.003 43.1012 231.818 41.5776C232.634 40.054 233.788 38.884 235.281 38.0714C236.775 37.2588 238.512 36.8525 240.495 36.8525C242.477 36.8525 244.195 37.2269 245.651 37.9774C247.107 38.7279 248.23 39.7831 249.02 41.145C249.811 42.5087 250.205 44.1019 250.205 45.9265C250.205 48.0012 249.798 49.7957 248.982 51.308C248.166 52.8204 247.013 53.9828 245.519 54.7954C244.025 55.608 242.288 56.0143 240.306 56.0143C238.323 56.0143 236.605 55.64 235.149 54.8895V54.8876ZM243.487 50.0873C244.203 48.9869 244.56 47.5498 244.56 45.776C244.56 42.6761 243.229 41.1262 240.57 41.1262C239.114 41.1262 238.029 41.6754 237.315 42.7758C236.599 43.8762 236.242 45.3001 236.242 47.0513C236.242 50.1757 237.572 51.7388 240.232 51.7388C241.688 51.7388 242.774 51.1895 243.487 50.0892V50.0873Z" fill="white"/>
<path d="M119.069 48.4756L119.631 41.5384H123.147L123.485 37.3005H119.971L120.385 31.9021H114.701L114.288 37.3005H110.787L110.449 41.5384H113.948L113.385 48.4756C113.359 48.6994 113.348 49.038 113.348 49.4876C113.348 51.6375 113.986 53.2627 115.266 54.3612C116.546 55.4616 118.453 56.0109 120.987 56.0109C121.499 56.0109 122.022 55.9657 122.022 55.9657C122.458 55.9262 122.832 55.8717 123.13 55.8171L123.453 51.7673C122.896 51.8219 122.413 51.8501 122.003 51.8501C119.871 51.8501 118.891 50.7253 119.069 48.4756Z" fill="white"/>
<path d="M2.96865 30.4388L31.5025 17.5502L31.4534 28.6744L1.19189 42.3437L1.23343 33.1079C1.23721 32.064 2.01513 30.8677 2.97054 30.4369L2.96865 30.4388Z" fill="white"/>
<path d="M1.23122 44.4166L31.4927 30.7474L31.4512 40.0884C31.4474 41.0741 30.7129 42.2027 29.8123 42.609L1.18213 55.5409L1.23122 44.4166Z" fill="white"/>
<path d="M1.22744 57.6718L14.8769 51.5058L14.8392 59.9346C14.8354 60.8412 14.1613 61.8777 13.3324 62.252L1.18213 67.7408L1.22556 57.6718H1.22744Z" fill="white"/>
<path d="M26.7212 55.6364C29.3115 55.6364 31.4114 53.6548 31.4114 51.2104C31.4114 48.766 29.3115 46.7844 26.7212 46.7844C24.1309 46.7844 22.031 48.766 22.031 51.2104C22.031 53.6548 24.1309 55.6364 26.7212 55.6364Z" fill="white"/>
</g>
<defs>
<clipPath id="clip0_4264_6896">
<rect width="250" height="50" fill="white" transform="translate(0.695801 17.2625)"/>
</clipPath>
</defs>
</svg>
