<svg width="202" height="64" viewBox="0 0 202 64" fill="none" xmlns="http://www.w3.org/2000/svg">
<rect y="0.661987" width="202" height="62.5915" rx="8" fill="#04150F"/>
<path d="M68.8289 25.0082C68.7367 25.0082 68.6654 24.983 68.6151 24.9327C68.5648 24.874 68.5396 24.8027 68.5396 24.7189V16.5052C68.5396 16.413 68.5648 16.3417 68.6151 16.2914C68.6654 16.2327 68.7367 16.2034 68.8289 16.2034H72.2754C72.9043 16.2034 73.4158 16.3082 73.8099 16.5178C74.2124 16.7191 74.5059 16.9958 74.6904 17.348C74.8833 17.7002 74.9797 18.0943 74.9797 18.5303C74.9797 18.8742 74.921 19.1718 74.8036 19.4234C74.6946 19.6666 74.5563 19.8678 74.3885 20.0272C74.2208 20.1781 74.0573 20.2955 73.898 20.3794C74.225 20.5387 74.5143 20.7986 74.7659 21.1592C75.0258 21.5198 75.1558 21.9558 75.1558 22.4674C75.1558 22.9286 75.051 23.352 74.8414 23.7378C74.6317 24.1235 74.3173 24.4338 73.898 24.6686C73.4871 24.895 72.9756 25.0082 72.3634 25.0082H68.8289ZM69.7723 23.9893H72.1999C72.745 23.9893 73.1643 23.8426 73.4577 23.5491C73.7512 23.2556 73.898 22.895 73.898 22.4674C73.898 22.0229 73.7512 21.6582 73.4577 21.373C73.1643 21.0796 72.745 20.9328 72.1999 20.9328H69.7723V23.9893ZM69.7723 19.9265H72.0867C72.6234 19.9265 73.0301 19.8049 73.3068 19.5618C73.5835 19.3102 73.7219 18.9706 73.7219 18.5429C73.7219 18.1153 73.5835 17.7882 73.3068 17.5618C73.0301 17.3354 72.6234 17.2222 72.0867 17.2222H69.7723V19.9265ZM78.6019 25.134C78.1826 25.134 77.8011 25.0501 77.4573 24.8824C77.1135 24.7147 76.8367 24.4883 76.6271 24.2032C76.4175 23.9181 76.3126 23.5952 76.3126 23.2346C76.3126 22.656 76.5474 22.1948 77.017 21.851C77.4866 21.5072 78.0988 21.2808 78.8535 21.1718L80.7276 20.9076V20.5429C80.7276 20.1404 80.6102 19.8259 80.3754 19.5995C80.149 19.3731 79.7759 19.2599 79.256 19.2599C78.8786 19.2599 78.5725 19.3354 78.3377 19.4863C78.1113 19.6372 77.952 19.8301 77.8598 20.0649C77.8095 20.1907 77.7214 20.2536 77.5956 20.2536H77.0296C76.9374 20.2536 76.8661 20.2284 76.8158 20.1781C76.7738 20.1194 76.7529 20.0523 76.7529 19.9769C76.7529 19.8511 76.799 19.6959 76.8912 19.5115C76.9919 19.327 77.1428 19.1467 77.3441 18.9706C77.5453 18.7945 77.8011 18.6477 78.1113 18.5303C78.43 18.4046 78.8157 18.3417 79.2685 18.3417C79.7717 18.3417 80.1951 18.4088 80.5389 18.5429C80.8828 18.6687 81.1511 18.8406 81.344 19.0586C81.5452 19.2767 81.6878 19.524 81.7716 19.8008C81.8639 20.0775 81.91 20.3584 81.91 20.6435V24.7189C81.91 24.8027 81.8806 24.874 81.8219 24.9327C81.7716 24.983 81.7045 25.0082 81.6207 25.0082H81.0421C80.9498 25.0082 80.8786 24.983 80.8282 24.9327C80.7779 24.874 80.7528 24.8027 80.7528 24.7189V24.178C80.6438 24.3289 80.497 24.4799 80.3125 24.6308C80.1281 24.7734 79.8975 24.895 79.6207 24.9956C79.344 25.0878 79.0044 25.134 78.6019 25.134ZM78.866 24.1906C79.2098 24.1906 79.5243 24.1193 79.8094 23.9768C80.0945 23.8258 80.3167 23.5952 80.4761 23.2849C80.6438 22.9747 80.7276 22.5848 80.7276 22.1152V21.763L79.2685 21.9768C78.6732 22.0607 78.2245 22.2032 77.9227 22.4045C77.6208 22.5973 77.4698 22.8447 77.4698 23.1466C77.4698 23.3814 77.5369 23.5784 77.6711 23.7378C77.8136 23.8887 77.9897 24.0019 78.1994 24.0774C78.4174 24.1529 78.6396 24.1906 78.866 24.1906ZM84.0075 25.0082C83.9237 25.0082 83.8524 24.983 83.7937 24.9327C83.7434 24.874 83.7182 24.8027 83.7182 24.7189V18.7568C83.7182 18.6729 83.7434 18.6058 83.7937 18.5555C83.8524 18.4968 83.9237 18.4675 84.0075 18.4675H84.6113C84.6951 18.4675 84.7622 18.4968 84.8125 18.5555C84.8628 18.6058 84.888 18.6729 84.888 18.7568V24.7189C84.888 24.8027 84.8628 24.874 84.8125 24.9327C84.7622 24.983 84.6951 25.0082 84.6113 25.0082H84.0075ZM83.9069 17.2474C83.823 17.2474 83.7518 17.2222 83.6931 17.1719C83.6427 17.1132 83.6176 17.0419 83.6176 16.9581V16.2788C83.6176 16.195 83.6427 16.1279 83.6931 16.0776C83.7518 16.0189 83.823 15.9895 83.9069 15.9895H84.6993C84.7832 15.9895 84.8503 16.0189 84.9006 16.0776C84.9593 16.1279 84.9886 16.195 84.9886 16.2788V16.9581C84.9886 17.0419 84.9593 17.1132 84.9006 17.1719C84.8503 17.2222 84.7832 17.2474 84.6993 17.2474H83.9069ZM86.4626 25.0082C86.3956 25.0082 86.3327 24.983 86.274 24.9327C86.2237 24.8824 86.1985 24.8195 86.1985 24.744C86.1985 24.7189 86.2027 24.6895 86.2111 24.656C86.2278 24.6141 86.253 24.5679 86.2865 24.5176L88.4752 21.6623L86.4249 18.958C86.3914 18.9077 86.3662 18.8658 86.3494 18.8322C86.3411 18.7987 86.3369 18.7651 86.3369 18.7316C86.3369 18.6561 86.362 18.5932 86.4123 18.5429C86.4626 18.4926 86.5255 18.4675 86.601 18.4675H87.2425C87.3347 18.4675 87.4018 18.4926 87.4438 18.5429C87.4941 18.5849 87.536 18.6268 87.5695 18.6687L89.2425 20.8448L90.9154 18.6813C90.9489 18.6394 90.9866 18.5932 91.0286 18.5429C91.0789 18.4926 91.1502 18.4675 91.2424 18.4675H91.8587C91.9342 18.4675 91.9971 18.4926 92.0474 18.5429C92.0977 18.5932 92.1229 18.6561 92.1229 18.7316C92.1229 18.7651 92.1145 18.7987 92.0977 18.8322C92.0893 18.8658 92.0684 18.9077 92.0348 18.958L89.9594 21.6875L92.148 24.5176C92.1816 24.5679 92.2025 24.6099 92.2109 24.6434C92.2277 24.6769 92.2361 24.7105 92.2361 24.744C92.2361 24.8195 92.2109 24.8824 92.1606 24.9327C92.1103 24.983 92.0474 25.0082 91.9719 25.0082H91.3053C91.2214 25.0082 91.1544 24.9872 91.104 24.9453C91.0537 24.9034 91.0118 24.8614 90.9783 24.8195L89.2047 22.5177L87.4312 24.8195C87.3976 24.853 87.3557 24.895 87.3054 24.9453C87.2635 24.9872 87.1964 25.0082 87.1041 25.0082H86.4626ZM95.2952 25.134C94.8759 25.134 94.4944 25.0501 94.1506 24.8824C93.8067 24.7147 93.53 24.4883 93.3204 24.2032C93.1107 23.9181 93.0059 23.5952 93.0059 23.2346C93.0059 22.656 93.2407 22.1948 93.7103 21.851C94.1799 21.5072 94.792 21.2808 95.5467 21.1718L97.4209 20.9076V20.5429C97.4209 20.1404 97.3035 19.8259 97.0687 19.5995C96.8423 19.3731 96.4692 19.2599 95.9493 19.2599C95.5719 19.2599 95.2658 19.3354 95.031 19.4863C94.8046 19.6372 94.6453 19.8301 94.5531 20.0649C94.5027 20.1907 94.4147 20.2536 94.2889 20.2536H93.7229C93.6306 20.2536 93.5594 20.2284 93.5091 20.1781C93.4671 20.1194 93.4462 20.0523 93.4462 19.9769C93.4462 19.8511 93.4923 19.6959 93.5845 19.5115C93.6852 19.327 93.8361 19.1467 94.0373 18.9706C94.2386 18.7945 94.4944 18.6477 94.8046 18.5303C95.1233 18.4046 95.509 18.3417 95.9618 18.3417C96.465 18.3417 96.8884 18.4088 97.2322 18.5429C97.576 18.6687 97.8444 18.8406 98.0373 19.0586C98.2385 19.2767 98.3811 19.524 98.4649 19.8008C98.5572 20.0775 98.6033 20.3584 98.6033 20.6435V24.7189C98.6033 24.8027 98.5739 24.874 98.5152 24.9327C98.4649 24.983 98.3978 25.0082 98.314 25.0082H97.7354C97.6431 25.0082 97.5719 24.983 97.5215 24.9327C97.4712 24.874 97.4461 24.8027 97.4461 24.7189V24.178C97.3371 24.3289 97.1903 24.4799 97.0058 24.6308C96.8213 24.7734 96.5907 24.895 96.314 24.9956C96.0373 25.0878 95.6977 25.134 95.2952 25.134ZM95.5593 24.1906C95.9031 24.1906 96.2176 24.1193 96.5027 23.9768C96.7878 23.8258 97.01 23.5952 97.1693 23.2849C97.3371 22.9747 97.4209 22.5848 97.4209 22.1152V21.763L95.9618 21.9768C95.3665 22.0607 94.9178 22.2032 94.6159 22.4045C94.3141 22.5973 94.1631 22.8447 94.1631 23.1466C94.1631 23.3814 94.2302 23.5784 94.3644 23.7378C94.5069 23.8887 94.683 24.0019 94.8927 24.0774C95.1107 24.1529 95.3329 24.1906 95.5593 24.1906ZM100.701 25.0082C100.617 25.0082 100.546 24.983 100.487 24.9327C100.437 24.874 100.412 24.8027 100.412 24.7189V18.7693C100.412 18.6855 100.437 18.6142 100.487 18.5555C100.546 18.4968 100.617 18.4675 100.701 18.4675H101.279C101.363 18.4675 101.435 18.4968 101.493 18.5555C101.552 18.6142 101.581 18.6855 101.581 18.7693V19.3228C101.749 19.0377 101.98 18.8238 102.273 18.6813C102.567 18.5387 102.919 18.4675 103.33 18.4675H103.833C103.917 18.4675 103.984 18.4968 104.034 18.5555C104.084 18.6058 104.11 18.6729 104.11 18.7568V19.2725C104.11 19.3563 104.084 19.4234 104.034 19.4737C103.984 19.524 103.917 19.5492 103.833 19.5492H103.078C102.625 19.5492 102.269 19.6834 102.009 19.9517C101.749 20.2116 101.619 20.568 101.619 21.0209V24.7189C101.619 24.8027 101.59 24.874 101.531 24.9327C101.472 24.983 101.401 25.0082 101.317 25.0082H100.701ZM109.923 25.0082C109.797 25.0082 109.697 24.9788 109.621 24.9201C109.554 24.8614 109.5 24.786 109.458 24.6937L107.131 18.8574C107.114 18.8155 107.106 18.7735 107.106 18.7316C107.106 18.6561 107.131 18.5932 107.181 18.5429C107.231 18.4926 107.294 18.4675 107.37 18.4675H107.974C108.066 18.4675 108.137 18.4926 108.187 18.5429C108.238 18.5932 108.267 18.6394 108.275 18.6813L110.2 23.6371L112.112 18.6813C112.129 18.6394 112.158 18.5932 112.2 18.5429C112.25 18.4926 112.321 18.4675 112.414 18.4675H113.03C113.097 18.4675 113.156 18.4926 113.206 18.5429C113.265 18.5932 113.294 18.6561 113.294 18.7316C113.294 18.7735 113.286 18.8155 113.269 18.8574L110.929 24.6937C110.896 24.786 110.841 24.8614 110.766 24.9201C110.699 24.9788 110.598 25.0082 110.464 25.0082H109.923ZM114.901 25.0082C114.817 25.0082 114.745 24.983 114.687 24.9327C114.636 24.874 114.611 24.8027 114.611 24.7189V18.7568C114.611 18.6729 114.636 18.6058 114.687 18.5555C114.745 18.4968 114.817 18.4675 114.901 18.4675H115.504C115.588 18.4675 115.655 18.4968 115.706 18.5555C115.756 18.6058 115.781 18.6729 115.781 18.7568V24.7189C115.781 24.8027 115.756 24.874 115.706 24.9327C115.655 24.983 115.588 25.0082 115.504 25.0082H114.901ZM114.8 17.2474C114.716 17.2474 114.645 17.2222 114.586 17.1719C114.536 17.1132 114.511 17.0419 114.511 16.9581V16.2788C114.511 16.195 114.536 16.1279 114.586 16.0776C114.645 16.0189 114.716 15.9895 114.8 15.9895H115.592C115.676 15.9895 115.743 16.0189 115.794 16.0776C115.852 16.1279 115.882 16.195 115.882 16.2788V16.9581C115.882 17.0419 115.852 17.1132 115.794 17.1719C115.743 17.2222 115.676 17.2474 115.592 17.2474H114.8ZM119.481 25.134C119.062 25.134 118.681 25.0501 118.337 24.8824C117.993 24.7147 117.716 24.4883 117.507 24.2032C117.297 23.9181 117.192 23.5952 117.192 23.2346C117.192 22.656 117.427 22.1948 117.897 21.851C118.366 21.5072 118.978 21.2808 119.733 21.1718L121.607 20.9076V20.5429C121.607 20.1404 121.49 19.8259 121.255 19.5995C121.029 19.3731 120.655 19.2599 120.135 19.2599C119.758 19.2599 119.452 19.3354 119.217 19.4863C118.991 19.6372 118.832 19.8301 118.739 20.0649C118.689 20.1907 118.601 20.2536 118.475 20.2536H117.909C117.817 20.2536 117.746 20.2284 117.695 20.1781C117.653 20.1194 117.632 20.0523 117.632 19.9769C117.632 19.8511 117.679 19.6959 117.771 19.5115C117.871 19.327 118.022 19.1467 118.224 18.9706C118.425 18.7945 118.681 18.6477 118.991 18.5303C119.31 18.4046 119.695 18.3417 120.148 18.3417C120.651 18.3417 121.075 18.4088 121.418 18.5429C121.762 18.6687 122.031 18.8406 122.223 19.0586C122.425 19.2767 122.567 19.524 122.651 19.8008C122.743 20.0775 122.79 20.3584 122.79 20.6435V24.7189C122.79 24.8027 122.76 24.874 122.701 24.9327C122.651 24.983 122.584 25.0082 122.5 25.0082H121.922C121.829 25.0082 121.758 24.983 121.708 24.9327C121.657 24.874 121.632 24.8027 121.632 24.7189V24.178C121.523 24.3289 121.377 24.4799 121.192 24.6308C121.008 24.7734 120.777 24.895 120.5 24.9956C120.224 25.0878 119.884 25.134 119.481 25.134ZM119.746 24.1906C120.089 24.1906 120.404 24.1193 120.689 23.9768C120.974 23.8258 121.196 23.5952 121.356 23.2849C121.523 22.9747 121.607 22.5848 121.607 22.1152V21.763L120.148 21.9768C119.553 22.0607 119.104 22.2032 118.802 22.4045C118.5 22.5973 118.349 22.8447 118.349 23.1466C118.349 23.3814 118.416 23.5784 118.551 23.7378C118.693 23.8887 118.869 24.0019 119.079 24.0774C119.297 24.1529 119.519 24.1906 119.746 24.1906Z" fill="white"/>
<path d="M73.4661 45.9471C72.404 45.9471 71.4871 45.7738 70.7157 45.4272C69.9554 45.0694 69.3628 44.5551 68.9379 43.8843C68.5243 43.2023 68.295 42.3749 68.2503 41.4022C68.2391 40.9214 68.2336 40.4127 68.2336 39.876C68.2336 39.3281 68.2391 38.8082 68.2503 38.3163C68.295 37.3659 68.5298 36.5609 68.9547 35.9012C69.3796 35.2416 69.9777 34.7385 70.7492 34.3918C71.5207 34.0452 72.4263 33.8719 73.4661 33.8719C74.3047 33.8719 75.0482 33.9782 75.6967 34.1906C76.3452 34.3918 76.8874 34.6658 77.3235 35.0124C77.7707 35.359 78.1061 35.7391 78.3298 36.1528C78.5645 36.5665 78.6875 36.9746 78.6987 37.3771C78.7099 37.4777 78.6764 37.5616 78.5981 37.6287C78.531 37.6958 78.4471 37.7293 78.3465 37.7293H75.8979C75.775 37.7293 75.6799 37.7125 75.6128 37.679C75.5569 37.6343 75.5066 37.5728 75.4619 37.4945C75.3836 37.3268 75.2662 37.1535 75.1097 36.9746C74.9644 36.7845 74.7575 36.6224 74.4892 36.4882C74.232 36.3541 73.891 36.287 73.4661 36.287C72.8288 36.287 72.3257 36.4547 71.9567 36.7901C71.599 37.1255 71.4033 37.6622 71.3697 38.4001C71.3362 39.3617 71.3362 40.3344 71.3697 41.3183C71.4033 42.101 71.6101 42.6656 71.9903 43.0122C72.3704 43.3588 72.8736 43.5321 73.4997 43.5321C73.9245 43.5321 74.2991 43.4594 74.6233 43.3141C74.9588 43.1687 75.2215 42.9451 75.4116 42.6432C75.6017 42.3302 75.6967 41.9332 75.6967 41.4525V41.1338H74.1202C73.9972 41.1338 73.891 41.0947 73.8016 41.0164C73.7233 40.927 73.6842 40.8208 73.6842 40.6978V39.4567C73.6842 39.3337 73.7233 39.2331 73.8016 39.1548C73.891 39.0654 73.9972 39.0207 74.1202 39.0207H78.3465C78.4695 39.0207 78.5701 39.0654 78.6484 39.1548C78.7267 39.2331 78.7658 39.3337 78.7658 39.4567V41.3686C78.7658 42.3302 78.5478 43.1519 78.1117 43.834C77.6757 44.516 77.0551 45.0415 76.2501 45.4105C75.4563 45.7682 74.5283 45.9471 73.4661 45.9471ZM84.6311 45.9471C83.6919 45.9471 82.8981 45.7962 82.2496 45.4943C81.6123 45.1924 81.1203 44.762 80.7737 44.2029C80.4383 43.6327 80.2482 42.9563 80.2035 42.1736C80.1923 41.95 80.1868 41.6985 80.1868 41.4189C80.1868 41.1282 80.1923 40.8767 80.2035 40.6642C80.2482 39.8704 80.4495 39.194 80.8073 38.6349C81.1651 38.0759 81.6626 37.6454 82.2999 37.3436C82.9484 37.0417 83.7255 36.8907 84.6311 36.8907C85.5479 36.8907 86.325 37.0417 86.9623 37.3436C87.6108 37.6454 88.1139 38.0759 88.4717 38.6349C88.8295 39.194 89.0307 39.8704 89.0754 40.6642C89.0866 40.8767 89.0922 41.1282 89.0922 41.4189C89.0922 41.6985 89.0866 41.95 89.0754 42.1736C89.0307 42.9563 88.835 43.6327 88.4884 44.2029C88.153 44.762 87.6611 45.1924 87.0126 45.4943C86.3753 45.7962 85.5815 45.9471 84.6311 45.9471ZM84.6311 43.9011C85.1342 43.9011 85.4976 43.7501 85.7212 43.4482C85.956 43.1464 86.0902 42.6935 86.1237 42.0898C86.1349 41.9221 86.1405 41.6985 86.1405 41.4189C86.1405 41.1394 86.1349 40.9158 86.1237 40.7481C86.0902 40.1555 85.956 39.7083 85.7212 39.4064C85.4976 39.0933 85.1342 38.9368 84.6311 38.9368C84.1391 38.9368 83.7758 39.0933 83.541 39.4064C83.3062 39.7083 83.1776 40.1555 83.1552 40.7481C83.1441 40.9158 83.1385 41.1394 83.1385 41.4189C83.1385 41.6985 83.1441 41.9221 83.1552 42.0898C83.1776 42.6935 83.3062 43.1464 83.541 43.4482C83.7758 43.7501 84.1391 43.9011 84.6311 43.9011ZM94.8674 45.9471C93.9282 45.9471 93.1343 45.7962 92.4859 45.4943C91.8486 45.1924 91.3566 44.762 91.01 44.2029C90.6746 43.6327 90.4845 42.9563 90.4398 42.1736C90.4286 41.95 90.423 41.6985 90.423 41.4189C90.423 41.1282 90.4286 40.8767 90.4398 40.6642C90.4845 39.8704 90.6858 39.194 91.0435 38.6349C91.4013 38.0759 91.8989 37.6454 92.5362 37.3436C93.1847 37.0417 93.9617 36.8907 94.8674 36.8907C95.7842 36.8907 96.5612 37.0417 97.1985 37.3436C97.847 37.6454 98.3501 38.0759 98.7079 38.6349C99.0657 39.194 99.267 39.8704 99.3117 40.6642C99.3229 40.8767 99.3285 41.1282 99.3285 41.4189C99.3285 41.6985 99.3229 41.95 99.3117 42.1736C99.267 42.9563 99.0713 43.6327 98.7247 44.2029C98.3893 44.762 97.8973 45.1924 97.2488 45.4943C96.6115 45.7962 95.8177 45.9471 94.8674 45.9471ZM94.8674 43.9011C95.3705 43.9011 95.7339 43.7501 95.9575 43.4482C96.1923 43.1464 96.3264 42.6935 96.36 42.0898C96.3712 41.9221 96.3768 41.6985 96.3768 41.4189C96.3768 41.1394 96.3712 40.9158 96.36 40.7481C96.3264 40.1555 96.1923 39.7083 95.9575 39.4064C95.7339 39.0933 95.3705 38.9368 94.8674 38.9368C94.3754 38.9368 94.012 39.0933 93.7772 39.4064C93.5424 39.7083 93.4139 40.1555 93.3915 40.7481C93.3803 40.9158 93.3747 41.1394 93.3747 41.4189C93.3747 41.6985 93.3803 41.9221 93.3915 42.0898C93.4139 42.6935 93.5424 43.1464 93.7772 43.4482C94.012 43.7501 94.3754 43.9011 94.8674 43.9011ZM105.255 49.4691C104.394 49.4691 103.678 49.3573 103.108 49.1336C102.549 48.91 102.102 48.6417 101.766 48.3286C101.442 48.0156 101.207 47.7025 101.062 47.3894C100.916 47.0876 100.838 46.8472 100.827 46.6683C100.816 46.5453 100.855 46.4447 100.944 46.3664C101.034 46.2881 101.14 46.249 101.263 46.249H103.393C103.494 46.249 103.577 46.2714 103.645 46.3161C103.723 46.372 103.784 46.4614 103.829 46.5844C103.885 46.7074 103.958 46.836 104.047 46.9702C104.148 47.1043 104.282 47.2106 104.45 47.2888C104.628 47.3783 104.869 47.423 105.171 47.423C105.506 47.423 105.786 47.3671 106.009 47.2553C106.233 47.1546 106.401 46.9813 106.512 46.7354C106.624 46.5006 106.68 46.1819 106.68 45.7794V44.6558C106.423 44.9353 106.093 45.1645 105.691 45.3434C105.288 45.5111 104.802 45.5949 104.232 45.5949C103.661 45.5949 103.158 45.5111 102.722 45.3434C102.286 45.1757 101.923 44.9241 101.632 44.5887C101.341 44.2532 101.112 43.8452 100.944 43.3644C100.788 42.8836 100.693 42.3302 100.659 41.704C100.648 41.4133 100.648 41.1226 100.659 40.8319C100.693 40.2282 100.788 39.6859 100.944 39.2052C101.101 38.7244 101.325 38.3107 101.615 37.9641C101.917 37.6175 102.286 37.3547 102.722 37.1758C103.158 36.9858 103.661 36.8907 104.232 36.8907C104.835 36.8907 105.35 37.0081 105.774 37.2429C106.211 37.4665 106.568 37.7517 106.848 38.0983V37.4777C106.848 37.3659 106.887 37.2709 106.965 37.1926C107.043 37.1032 107.144 37.0585 107.267 37.0585H109.196C109.319 37.0585 109.419 37.1032 109.498 37.1926C109.587 37.2709 109.632 37.3659 109.632 37.4777V45.5446C109.632 46.3944 109.459 47.1099 109.112 47.6913C108.765 48.2727 108.268 48.7144 107.619 49.0162C106.971 49.3181 106.183 49.4691 105.255 49.4691ZM105.137 43.4147C105.495 43.4147 105.786 43.3364 106.009 43.1799C106.233 43.0234 106.395 42.8221 106.496 42.5761C106.607 42.3302 106.669 42.0674 106.68 41.7879C106.691 41.6649 106.697 41.4916 106.697 41.268C106.697 41.0444 106.691 40.8767 106.68 40.7649C106.669 40.4742 106.607 40.2058 106.496 39.9599C106.395 39.7139 106.233 39.5182 106.009 39.3729C105.786 39.2163 105.495 39.1381 105.137 39.1381C104.768 39.1381 104.472 39.2163 104.248 39.3729C104.036 39.5294 103.879 39.7418 103.779 40.0102C103.689 40.2785 103.633 40.5748 103.611 40.899C103.6 41.145 103.6 41.3966 103.611 41.6537C103.633 41.978 103.689 42.2743 103.779 42.5426C103.879 42.8109 104.036 43.0234 104.248 43.1799C104.472 43.3364 104.768 43.4147 105.137 43.4147ZM112.027 45.7794C111.904 45.7794 111.803 45.7403 111.725 45.662C111.646 45.5838 111.607 45.4831 111.607 45.3601V34.2912C111.607 34.1682 111.646 34.0676 111.725 33.9893C111.803 33.9111 111.904 33.8719 112.027 33.8719H114.006C114.129 33.8719 114.229 33.9111 114.307 33.9893C114.386 34.0676 114.425 34.1682 114.425 34.2912V45.3601C114.425 45.4831 114.386 45.5838 114.307 45.662C114.229 45.7403 114.129 45.7794 114.006 45.7794H112.027ZM120.431 45.9471C119.112 45.9471 118.061 45.5893 117.278 44.8738C116.495 44.1582 116.087 43.096 116.054 41.6873C116.054 41.609 116.054 41.5084 116.054 41.3854C116.054 41.2624 116.054 41.1674 116.054 41.1003C116.087 40.217 116.283 39.4623 116.641 38.8362C117.01 38.1989 117.513 37.7181 118.15 37.3939C118.799 37.0585 119.553 36.8907 120.414 36.8907C121.398 36.8907 122.209 37.0864 122.846 37.4777C123.495 37.8691 123.981 38.4001 124.305 39.071C124.629 39.7418 124.792 40.5077 124.792 41.3686V41.7711C124.792 41.8941 124.747 41.9947 124.657 42.073C124.579 42.1513 124.484 42.1904 124.372 42.1904H119.006C119.006 42.2016 119.006 42.2184 119.006 42.2407C119.006 42.2631 119.006 42.2854 119.006 42.3078C119.017 42.632 119.073 42.9283 119.173 43.1967C119.274 43.465 119.43 43.6774 119.643 43.834C119.855 43.9905 120.112 44.0688 120.414 44.0688C120.638 44.0688 120.822 44.0352 120.968 43.9681C121.124 43.8899 121.253 43.806 121.353 43.7166C121.454 43.6159 121.532 43.5321 121.588 43.465C121.689 43.3532 121.767 43.2861 121.823 43.2638C121.89 43.2302 121.991 43.2134 122.125 43.2134H124.205C124.316 43.2134 124.406 43.247 124.473 43.3141C124.551 43.37 124.585 43.4538 124.574 43.5656C124.562 43.7557 124.467 43.9849 124.288 44.2532C124.11 44.5216 123.847 44.7899 123.5 45.0583C123.165 45.3154 122.74 45.5279 122.226 45.6956C121.711 45.8633 121.113 45.9471 120.431 45.9471ZM119.006 40.5301H121.84V40.4965C121.84 40.1387 121.784 39.8257 121.672 39.5573C121.572 39.289 121.409 39.0822 121.186 38.9368C120.973 38.7915 120.716 38.7188 120.414 38.7188C120.112 38.7188 119.855 38.7915 119.643 38.9368C119.442 39.0822 119.285 39.289 119.173 39.5573C119.061 39.8257 119.006 40.1387 119.006 40.4965V40.5301ZM130.538 45.7794C130.415 45.7794 130.314 45.7403 130.236 45.662C130.158 45.5838 130.119 45.4831 130.119 45.3601V34.4589C130.119 34.3359 130.158 34.2353 130.236 34.1571C130.314 34.0788 130.415 34.0397 130.538 34.0397H135.234C136.162 34.0397 136.967 34.185 137.649 34.4757C138.342 34.7552 138.879 35.1801 139.259 35.7503C139.65 36.3205 139.846 37.0417 139.846 37.9138C139.846 38.7747 139.65 39.4847 139.259 40.0437C138.879 40.6027 138.342 41.0164 137.649 41.2848C136.967 41.5531 136.162 41.6873 135.234 41.6873H133.238V45.3601C133.238 45.4831 133.193 45.5838 133.104 45.662C133.026 45.7403 132.925 45.7794 132.802 45.7794H130.538ZM133.188 39.3729H135.15C135.631 39.3729 136.011 39.2499 136.291 39.0039C136.581 38.7579 136.727 38.3834 136.727 37.8802C136.727 37.4554 136.604 37.0976 136.358 36.8069C136.112 36.5162 135.709 36.3708 135.15 36.3708H133.188V39.3729ZM141.687 45.7794C141.564 45.7794 141.464 45.7403 141.385 45.662C141.307 45.5838 141.268 45.4831 141.268 45.3601V34.2912C141.268 34.1682 141.307 34.0676 141.385 33.9893C141.464 33.9111 141.564 33.8719 141.687 33.8719H143.666C143.789 33.8719 143.89 33.9111 143.968 33.9893C144.046 34.0676 144.085 34.1682 144.085 34.2912V45.3601C144.085 45.4831 144.046 45.5838 143.968 45.662C143.89 45.7403 143.789 45.7794 143.666 45.7794H141.687ZM148.683 45.9471C148.079 45.9471 147.537 45.8353 147.056 45.6117C146.587 45.3769 146.212 45.0639 145.932 44.6725C145.653 44.2812 145.513 43.8396 145.513 43.3476C145.513 42.5538 145.837 41.9277 146.486 41.4692C147.134 40.9997 147.995 40.681 149.069 40.5133L151.165 40.1946V39.9599C151.165 39.5573 151.081 39.2499 150.913 39.0374C150.746 38.825 150.438 38.7188 149.991 38.7188C149.678 38.7188 149.421 38.7803 149.22 38.9033C149.029 39.0263 148.879 39.194 148.767 39.4064C148.666 39.5518 148.526 39.6244 148.347 39.6244H146.469C146.346 39.6244 146.251 39.5909 146.184 39.5238C146.117 39.4455 146.089 39.3561 146.1 39.2555C146.1 39.0542 146.173 38.825 146.318 38.5679C146.475 38.2995 146.709 38.0368 147.023 37.7796C147.336 37.5225 147.738 37.31 148.23 37.1423C148.722 36.9746 149.315 36.8907 150.008 36.8907C150.735 36.8907 151.355 36.9746 151.869 37.1423C152.384 37.31 152.797 37.5448 153.11 37.8467C153.435 38.1486 153.675 38.5064 153.832 38.92C153.988 39.3225 154.066 39.7698 154.066 40.2617V45.3601C154.066 45.4831 154.022 45.5838 153.932 45.662C153.854 45.7403 153.759 45.7794 153.647 45.7794H151.702C151.579 45.7794 151.478 45.7403 151.4 45.662C151.322 45.5838 151.282 45.4831 151.282 45.3601V44.7732C151.137 44.9856 150.941 45.1813 150.695 45.3601C150.449 45.539 150.159 45.6788 149.823 45.7794C149.499 45.8912 149.119 45.9471 148.683 45.9471ZM149.471 44.0352C149.795 44.0352 150.086 43.9681 150.343 43.834C150.612 43.6886 150.818 43.4706 150.964 43.1799C151.12 42.878 151.199 42.5035 151.199 42.0562V41.8214L149.773 42.073C149.248 42.1625 148.862 42.3022 148.616 42.4923C148.381 42.6712 148.264 42.8836 148.264 43.1296C148.264 43.3197 148.32 43.4818 148.431 43.6159C148.543 43.7501 148.688 43.8563 148.867 43.9346C149.046 44.0017 149.248 44.0352 149.471 44.0352ZM157.307 48.9659C157.207 48.9659 157.123 48.9324 157.056 48.8653C156.989 48.7982 156.955 48.7144 156.955 48.6137C156.955 48.5914 156.955 48.5578 156.955 48.5131C156.966 48.4796 156.983 48.4404 157.005 48.3957L158.314 45.2427L155.094 37.6287C155.06 37.5504 155.043 37.4833 155.043 37.4274C155.066 37.3268 155.11 37.2429 155.177 37.1758C155.244 37.0976 155.328 37.0585 155.429 37.0585H157.341C157.486 37.0585 157.592 37.0976 157.659 37.1758C157.738 37.2429 157.788 37.3212 157.81 37.4106L159.739 42.291L161.701 37.4106C161.746 37.3212 161.802 37.2429 161.869 37.1758C161.947 37.0976 162.059 37.0585 162.204 37.0585H164.083C164.183 37.0585 164.267 37.0976 164.334 37.1758C164.413 37.2429 164.452 37.3212 164.452 37.4106C164.452 37.4665 164.435 37.5392 164.401 37.6287L159.655 48.6137C159.622 48.7032 159.566 48.7814 159.488 48.8485C159.409 48.9268 159.297 48.9659 159.152 48.9659H157.307Z" fill="white"/>
<path d="M46.2742 29.7638L35.6301 18.8883L49.1725 26.8104L46.2742 29.7638ZM32.853 18.249C32.2256 18.5832 31.8066 19.1926 31.8066 19.9836V41.671C31.8066 42.4621 32.2264 43.0715 32.853 43.4057L45.2286 30.8246L32.853 18.249ZM53.3587 29.3361L50.5183 27.6605L47.3499 30.8301L50.5183 33.9997L53.4166 32.3241C54.2847 31.6219 54.2847 30.0391 53.3587 29.3361ZM35.6309 42.7727L49.1733 34.8505L46.275 31.8971L35.6309 42.7727Z" fill="white"/>
</svg>
