<svg width="164" height="45" viewBox="0 0 164 45" fill="none" xmlns="http://www.w3.org/2000/svg">
<rect x="0.5" y="1.48169" width="163" height="43" rx="3.5" fill="black"/>
<rect x="0.5" y="1.48169" width="163" height="43" rx="3.5" stroke="#D3D3D3"/>
<g clip-path="url(#clip0_4368_2461)">
<path d="M30.8983 17.9581C27.1809 15.879 21.2144 12.5403 11.9599 7.35844C11.3359 6.94638 10.6181 6.89238 9.9978 7.10231L25.876 22.9805L30.8983 17.9581Z" fill="#32BBFF"/>
<path d="M9.99774 7.10231C9.88149 7.14169 9.76836 7.18919 9.66018 7.24656C8.97524 7.61707 8.47192 8.33 8.47192 9.23169V36.7292C8.47192 37.6309 8.97517 38.3439 9.66018 38.7143C9.76818 38.7716 9.88124 38.8193 9.99736 38.8589L25.8759 22.9805L9.99774 7.10231Z" fill="#32BBFF"/>
<path d="M25.8758 22.9805L9.99731 38.8589C10.6178 39.0704 11.3356 39.0206 11.9598 38.6025C20.9346 33.5769 26.8339 30.2777 30.5943 28.1809C30.699 28.122 30.8015 28.0645 30.9029 28.0076L25.8758 22.9805Z" fill="#32BBFF"/>
<path d="M8.47192 22.9805V36.7292C8.47192 37.6309 8.97517 38.3439 9.66018 38.7143C9.76818 38.7716 9.88124 38.8193 9.99736 38.8589L25.8759 22.9805H8.47192Z" fill="#2C9FD9"/>
<path d="M11.9598 7.35844C11.2188 6.86919 10.3451 6.88313 9.66016 7.24663L25.6349 23.2214L30.8981 17.9581C27.1808 15.879 21.2143 12.5403 11.9598 7.35844Z" fill="#29CC5E"/>
<path d="M25.635 22.7396L9.66016 38.7143C10.3452 39.0778 11.2188 39.0988 11.9598 38.6025C20.9347 33.5769 26.8339 30.2777 30.5943 28.1809C30.699 28.122 30.8016 28.0645 30.903 28.0076L25.635 22.7396Z" fill="#D93F21"/>
<path d="M37.5283 22.9805C37.5283 22.2186 37.1438 21.4497 36.3819 21.0233C36.3819 21.0233 34.9569 20.2283 30.5892 17.7853L25.394 22.9805L30.5943 28.1808C34.9141 25.7553 36.3818 24.9375 36.3818 24.9375C37.1438 24.5112 37.5283 23.7423 37.5283 22.9805Z" fill="#FFD500"/>
<path d="M36.3819 24.9376C37.1438 24.5112 37.5283 23.7423 37.5283 22.9805H25.394L30.5943 28.1808C34.9141 25.7554 36.3819 24.9376 36.3819 24.9376Z" fill="#FFAA00"/>
</g>
<path d="M48.8771 11.0065C48.8085 10.7911 48.7161 10.5982 48.6001 10.4277C48.4865 10.2549 48.3504 10.1081 48.1918 9.98737C48.0331 9.86427 47.852 9.77075 47.6484 9.70683C47.4472 9.64291 47.2259 9.61095 46.9844 9.61095C46.5748 9.61095 46.2055 9.7163 45.8764 9.927C45.5473 10.1377 45.2869 10.4467 45.0952 10.8538C44.9058 11.2587 44.8111 11.7547 44.8111 12.3418C44.8111 12.9313 44.907 13.4296 45.0987 13.8368C45.2905 14.244 45.5533 14.5529 45.8871 14.7636C46.2209 14.9744 46.6009 15.0797 47.027 15.0797C47.4223 15.0797 47.7668 14.9992 48.0604 14.8382C48.3563 14.6772 48.5848 14.45 48.7457 14.1564C48.9091 13.8605 48.9908 13.5125 48.9908 13.1124L49.2749 13.1656H47.1939V12.2601H50.0526V13.0875C50.0526 13.6983 49.9223 14.2286 49.6619 14.6784C49.4039 15.1259 49.0464 15.4715 48.5895 15.7154C48.1349 15.9592 47.6141 16.0811 47.027 16.0811C46.3688 16.0811 45.7912 15.9296 45.294 15.6266C44.7992 15.3235 44.4134 14.8939 44.1364 14.3375C43.8594 13.7788 43.7209 13.1159 43.7209 12.3489C43.7209 11.7689 43.8014 11.248 43.9624 10.7864C44.1233 10.3247 44.3494 9.93292 44.6406 9.61095C44.9342 9.28661 45.2786 9.03922 45.674 8.86876C46.0717 8.69594 46.5062 8.60953 46.9773 8.60953C47.3703 8.60953 47.736 8.66753 48.0746 8.78354C48.4155 8.89954 48.7185 9.06408 48.9837 9.27714C49.2512 9.49021 49.4725 9.74353 49.6477 10.0371C49.8229 10.3283 49.9413 10.6514 50.0028 11.0065H48.8771ZM51.4455 15.9817V8.70896H56.0051V9.65356H52.5428V11.8695H55.7672V12.8105H52.5428V15.0371H56.0478V15.9817H51.4455ZM57.1122 9.65356V8.70896H62.7408V9.65356H60.4716V15.9817H59.3778V9.65356H57.1122ZM67.7283 8.70896V15.9817H66.631V8.70896H67.7283ZM68.9677 9.65356V8.70896H74.5962V9.65356H72.3271V15.9817H71.2333V9.65356H68.9677ZM84.804 12.3453C84.804 13.1218 84.6619 13.7895 84.3778 14.3482C84.0938 14.9045 83.7043 15.333 83.2095 15.6337C82.7171 15.932 82.1572 16.0811 81.5298 16.0811C80.9001 16.0811 80.3378 15.932 79.843 15.6337C79.3506 15.333 78.9624 14.9033 78.6783 14.3446C78.3942 13.7859 78.2521 13.1195 78.2521 12.3453C78.2521 11.5688 78.3942 10.9024 78.6783 10.346C78.9624 9.78732 79.3506 9.35882 79.843 9.06052C80.3378 8.75986 80.9001 8.60953 81.5298 8.60953C82.1572 8.60953 82.7171 8.75986 83.2095 9.06052C83.7043 9.35882 84.0938 9.78732 84.3778 10.346C84.6619 10.9024 84.804 11.5688 84.804 12.3453ZM83.7173 12.3453C83.7173 11.7535 83.6214 11.2551 83.4297 10.8503C83.2403 10.4431 82.9799 10.1353 82.6484 9.927C82.3194 9.7163 81.9465 9.61095 81.5298 9.61095C81.1108 9.61095 80.7367 9.7163 80.4077 9.927C80.0786 10.1353 79.8182 10.4431 79.6264 10.8503C79.437 11.2551 79.3423 11.7535 79.3423 12.3453C79.3423 12.9372 79.437 13.4367 79.6264 13.8439C79.8182 14.2487 80.0786 14.5565 80.4077 14.7672C80.7367 14.9755 81.1108 15.0797 81.5298 15.0797C81.9465 15.0797 82.3194 14.9755 82.6484 14.7672C82.9799 14.5565 83.2403 14.2487 83.4297 13.8439C83.6214 13.4367 83.7173 12.9372 83.7173 12.3453ZM92.0421 8.70896V15.9817H91.0336L87.3368 10.6479H87.2694V15.9817H86.1721V8.70896H87.1877L90.888 14.0499H90.9554V8.70896H92.0421Z" fill="white"/>
<path d="M54.6742 25.0314C54.5369 24.6005 54.3522 24.2146 54.1202 23.8737C53.8929 23.5281 53.6207 23.2345 53.3034 22.9931C52.9862 22.7468 52.624 22.5598 52.2168 22.432C51.8143 22.3041 51.3716 22.2402 50.8887 22.2402C50.0695 22.2402 49.3309 22.4509 48.6728 22.8723C48.0146 23.2937 47.4938 23.9116 47.1103 24.726C46.7315 25.5357 46.5421 26.5276 46.5421 27.7019C46.5421 28.8808 46.7338 29.8775 47.1174 30.6919C47.5009 31.5063 48.0265 32.1242 48.6941 32.5456C49.3617 32.967 50.1216 33.1777 50.9739 33.1777C51.7646 33.1777 52.4535 33.0167 53.0407 32.6948C53.6325 32.3728 54.0894 31.9182 54.4114 31.3311C54.7381 30.7393 54.9015 30.0432 54.9015 29.2431L55.4696 29.3496H51.3077V27.5385H57.025V29.1933C57.025 30.4149 56.7646 31.4755 56.2438 32.3752C55.7277 33.27 55.0127 33.9613 54.0989 34.449C53.1898 34.9367 52.1481 35.1806 50.9739 35.1806C49.6576 35.1806 48.5023 34.8775 47.508 34.2715C46.5184 33.6654 45.7466 32.806 45.1926 31.6933C44.6387 30.5759 44.3617 29.2502 44.3617 27.7161C44.3617 26.556 44.5227 25.5144 44.8446 24.5911C45.1666 23.6678 45.6188 22.8842 46.2012 22.2402C46.7883 21.5915 47.4772 21.0967 48.2679 20.7558C49.0634 20.4102 49.9322 20.2374 50.8745 20.2374C51.6605 20.2374 52.392 20.3534 53.0691 20.5854C53.7509 20.8174 54.3569 21.1465 54.8873 21.5726C55.4223 21.9987 55.865 22.5054 56.2154 23.0925C56.5658 23.6749 56.8025 24.3212 56.9256 25.0314H54.6742ZM64.2356 35.2019C63.2129 35.2019 62.3204 34.9675 61.5581 34.4987C60.7958 34.03 60.2039 33.3742 59.7825 32.5314C59.3611 31.6886 59.1504 30.7038 59.1504 29.5769C59.1504 28.4452 59.3611 27.4556 59.7825 26.6081C60.2039 25.7606 60.7958 25.1024 61.5581 24.6337C62.3204 24.1649 63.2129 23.9306 64.2356 23.9306C65.2583 23.9306 66.1509 24.1649 66.9132 24.6337C67.6755 25.1024 68.2673 25.7606 68.6887 26.6081C69.1101 27.4556 69.3208 28.4452 69.3208 29.5769C69.3208 30.7038 69.1101 31.6886 68.6887 32.5314C68.2673 33.3742 67.6755 34.03 66.9132 34.4987C66.1509 34.9675 65.2583 35.2019 64.2356 35.2019ZM64.2427 33.4192C64.9056 33.4192 65.4548 33.244 65.8904 32.8936C66.3261 32.5432 66.648 32.0769 66.8564 31.4945C67.0694 30.9121 67.176 30.2705 67.176 29.5698C67.176 28.8737 67.0694 28.2345 66.8564 27.6521C66.648 27.065 66.3261 26.5939 65.8904 26.2388C65.4548 25.8837 64.9056 25.7061 64.2427 25.7061C63.5751 25.7061 63.0211 25.8837 62.5808 26.2388C62.1452 26.5939 61.8208 27.065 61.6078 27.6521C61.3994 28.2345 61.2953 28.8737 61.2953 29.5698C61.2953 30.2705 61.3994 30.9121 61.6078 31.4945C61.8208 32.0769 62.1452 32.5432 62.5808 32.8936C63.0211 33.244 63.5751 33.4192 64.2427 33.4192ZM76.2864 35.2019C75.2637 35.2019 74.3712 34.9675 73.6088 34.4987C72.8465 34.03 72.2547 33.3742 71.8333 32.5314C71.4119 31.6886 71.2012 30.7038 71.2012 29.5769C71.2012 28.4452 71.4119 27.4556 71.8333 26.6081C72.2547 25.7606 72.8465 25.1024 73.6088 24.6337C74.3712 24.1649 75.2637 23.9306 76.2864 23.9306C77.3091 23.9306 78.2016 24.1649 78.964 24.6337C79.7263 25.1024 80.3181 25.7606 80.7395 26.6081C81.1609 27.4556 81.3716 28.4452 81.3716 29.5769C81.3716 30.7038 81.1609 31.6886 80.7395 32.5314C80.3181 33.3742 79.7263 34.03 78.964 34.4987C78.2016 34.9675 77.3091 35.2019 76.2864 35.2019ZM76.2935 33.4192C76.9564 33.4192 77.5056 33.244 77.9412 32.8936C78.3768 32.5432 78.6988 32.0769 78.9071 31.4945C79.1202 30.9121 79.2267 30.2705 79.2267 29.5698C79.2267 28.8737 79.1202 28.2345 78.9071 27.6521C78.6988 27.065 78.3768 26.5939 77.9412 26.2388C77.5056 25.8837 76.9564 25.7061 76.2935 25.7061C75.6259 25.7061 75.0719 25.8837 74.6316 26.2388C74.196 26.5939 73.8716 27.065 73.6586 27.6521C73.4502 28.2345 73.3461 28.8737 73.3461 29.5698C73.3461 30.2705 73.4502 30.9121 73.6586 31.4945C73.8716 32.0769 74.196 32.5432 74.6316 32.8936C75.0719 33.244 75.6259 33.4192 76.2935 33.4192ZM88.3159 39.2999C87.4494 39.2999 86.7037 39.1862 86.0787 38.959C85.4584 38.7317 84.9518 38.431 84.5588 38.057C84.1658 37.6829 83.8722 37.2734 83.6781 36.8283L85.5034 36.0754C85.6312 36.2838 85.8017 36.5039 86.0147 36.736C86.2325 36.9727 86.5261 37.1739 86.8954 37.3396C87.2695 37.5054 87.7501 37.5882 88.3372 37.5882C89.1421 37.5882 89.8074 37.3917 90.3329 36.9987C90.8585 36.6105 91.1213 35.9902 91.1213 35.1379V32.9931H90.9863C90.8585 33.2251 90.6738 33.4831 90.4324 33.7672C90.1956 34.0513 89.8689 34.2975 89.4522 34.5058C89.0356 34.7142 88.4934 34.8183 87.8258 34.8183C86.9641 34.8183 86.1876 34.6171 85.4963 34.2146C84.8097 33.8074 84.2652 33.2085 83.8627 32.4178C83.465 31.6223 83.2662 30.6446 83.2662 29.4845C83.2662 28.3245 83.4627 27.3302 83.8556 26.5016C84.2534 25.673 84.7979 25.0385 85.4892 24.5982C86.1805 24.1531 86.9641 23.9306 87.84 23.9306C88.5171 23.9306 89.064 24.0442 89.4806 24.2715C89.8973 24.494 90.2217 24.7544 90.4537 25.0527C90.6904 25.351 90.8727 25.6138 91.0005 25.8411H91.1568V24.0726H93.2377V35.2232C93.2377 36.1607 93.0199 36.9301 92.5843 37.5314C92.1487 38.1327 91.5592 38.5778 90.8159 38.8666C90.0772 39.1555 89.2439 39.2999 88.3159 39.2999ZM88.2946 33.057C88.9054 33.057 89.4215 32.9149 89.8429 32.6308C90.269 32.342 90.591 31.9301 90.8088 31.395C91.0313 30.8553 91.1426 30.209 91.1426 29.4561C91.1426 28.7222 91.0337 28.0759 90.8159 27.5172C90.5981 26.9585 90.2785 26.5229 89.8571 26.2104C89.4357 25.8931 88.9148 25.7345 88.2946 25.7345C87.6554 25.7345 87.1227 25.9002 86.6966 26.2317C86.2704 26.5584 85.9484 27.0035 85.7306 27.5669C85.5176 28.1304 85.411 28.7601 85.411 29.4561C85.411 30.1711 85.5199 30.7985 85.7377 31.3382C85.9556 31.878 86.2775 32.2994 86.7037 32.6024C87.1345 32.9055 87.6648 33.057 88.2946 33.057ZM98.2093 20.4362V34.9817H96.0858V20.4362H98.2093ZM105.768 35.2019C104.693 35.2019 103.767 34.9722 102.991 34.5129C102.219 34.0489 101.623 33.3979 101.201 32.5598C100.785 31.717 100.576 30.7298 100.576 29.5982C100.576 28.4807 100.785 27.4959 101.201 26.6436C101.623 25.7913 102.21 25.1261 102.963 24.6479C103.72 24.1697 104.606 23.9306 105.619 23.9306C106.234 23.9306 106.831 24.0324 107.409 24.236C107.986 24.4395 108.505 24.7592 108.964 25.1948C109.423 25.6304 109.785 26.1962 110.051 26.8922C110.316 27.5835 110.448 28.4239 110.448 29.4135V30.1663H101.776V28.5754H108.367C108.367 28.0167 108.254 27.5219 108.026 27.0911C107.799 26.6555 107.48 26.3122 107.068 26.0612C106.66 25.8103 106.182 25.6848 105.633 25.6848C105.036 25.6848 104.516 25.8316 104.07 26.1252C103.63 26.414 103.289 26.7928 103.048 27.2615C102.811 27.7255 102.693 28.2298 102.693 28.7743V30.0172C102.693 30.7464 102.82 31.3666 103.076 31.878C103.337 32.3894 103.699 32.78 104.163 33.0499C104.627 33.315 105.169 33.4476 105.789 33.4476C106.192 33.4476 106.559 33.3908 106.89 33.2771C107.222 33.1588 107.508 32.9836 107.749 32.7516C107.991 32.5196 108.176 32.2331 108.303 31.8922L110.313 32.2544C110.152 32.8463 109.864 33.3647 109.447 33.8098C109.035 34.2502 108.517 34.5934 107.892 34.8396C107.271 35.0811 106.563 35.2019 105.768 35.2019ZM118.268 34.9817V20.4362H123.453C124.584 20.4362 125.522 20.6422 126.265 21.0541C127.008 21.4661 127.565 22.0295 127.934 22.7445C128.303 23.4547 128.488 24.2549 128.488 25.145C128.488 26.0399 128.301 26.8449 127.927 27.5598C127.558 28.27 126.999 28.8335 126.251 29.2502C125.508 29.6621 124.572 29.8681 123.445 29.8681H119.88V28.0073H123.247C123.962 28.0073 124.542 27.8842 124.987 27.6379C125.432 27.387 125.758 27.0461 125.967 26.6152C126.175 26.1843 126.279 25.6943 126.279 25.145C126.279 24.5958 126.175 24.1081 125.967 23.682C125.758 23.2558 125.429 22.922 124.98 22.6806C124.535 22.4391 123.947 22.3183 123.218 22.3183H120.463V34.9817H118.268ZM133.014 20.4362V34.9817H130.89V20.4362H133.014ZM139.046 35.2232C138.354 35.2232 137.729 35.0953 137.171 34.8396C136.612 34.5792 136.169 34.2028 135.843 33.7104C135.521 33.218 135.36 32.6143 135.36 31.8993C135.36 31.2838 135.478 30.7771 135.715 30.3794C135.951 29.9817 136.271 29.6668 136.673 29.4348C137.076 29.2028 137.526 29.0276 138.023 28.9092C138.52 28.7909 139.027 28.7009 139.543 28.6394C140.196 28.5636 140.727 28.502 141.134 28.4547C141.541 28.4026 141.837 28.3198 142.021 28.2061C142.206 28.0925 142.298 27.9078 142.298 27.6521V27.6024C142.298 26.9822 142.123 26.5016 141.773 26.1607C141.427 25.8198 140.911 25.6493 140.225 25.6493C139.51 25.6493 138.946 25.8079 138.534 26.1252C138.127 26.4377 137.845 26.7857 137.689 27.1692L135.693 26.7146C135.93 26.0518 136.276 25.5167 136.73 25.1095C137.19 24.6976 137.718 24.3993 138.314 24.2146C138.911 24.0252 139.538 23.9306 140.196 23.9306C140.632 23.9306 141.093 23.9826 141.581 24.0868C142.074 24.1862 142.533 24.3709 142.959 24.6408C143.39 24.9107 143.743 25.2966 144.017 25.7985C144.292 26.2956 144.429 26.9419 144.429 27.7374V34.9817H142.355V33.4902H142.27C142.133 33.7648 141.927 34.0347 141.652 34.2999C141.378 34.565 141.025 34.7852 140.594 34.9604C140.163 35.1356 139.647 35.2232 139.046 35.2232ZM139.507 33.5186C140.094 33.5186 140.596 33.4026 141.013 33.1706C141.434 32.9386 141.754 32.6356 141.972 32.2615C142.194 31.8827 142.306 31.4779 142.306 31.047V29.6408C142.23 29.7165 142.083 29.7876 141.865 29.8538C141.652 29.9154 141.408 29.9699 141.134 30.0172C140.859 30.0598 140.592 30.1001 140.331 30.1379C140.071 30.1711 139.853 30.1995 139.678 30.2232C139.266 30.2752 138.889 30.3628 138.548 30.486C138.212 30.6091 137.942 30.7866 137.739 31.0186C137.54 31.2459 137.441 31.5489 137.441 31.9277C137.441 32.4533 137.635 32.851 138.023 33.1209C138.411 33.386 138.906 33.5186 139.507 33.5186ZM148.209 39.0726C147.892 39.0726 147.603 39.0466 147.343 38.9945C147.082 38.9471 146.888 38.895 146.76 38.8382L147.272 37.0982C147.66 37.2023 148.006 37.2473 148.309 37.2331C148.612 37.2189 148.879 37.1053 149.111 36.8922C149.348 36.6791 149.556 36.3311 149.736 35.8482L149.999 35.1237L146.008 24.0726H148.28L151.043 32.5385H151.157L153.92 24.0726H156.199L151.704 36.4377C151.495 37.0058 151.23 37.4864 150.908 37.8794C150.586 38.2771 150.203 38.5754 149.758 38.7743C149.313 38.9732 148.796 39.0726 148.209 39.0726Z" fill="white"/>
<defs>
<clipPath id="clip0_4368_2461">
<rect width="32" height="32" fill="white" transform="translate(7 6.98169)"/>
</clipPath>
</defs>
</svg>
