<svg width="81" height="69" viewBox="0 0 81 69" fill="none" xmlns="http://www.w3.org/2000/svg">
<path d="M80.7114 46.8214C80.7114 59.0703 70.7817 69 58.5329 69L25.265 69C21.8625 69 19.1043 66.2417 19.1043 62.8393L19.1043 20.9464C19.1043 14.1415 24.6208 8.625 31.4257 8.625L74.5507 8.625C77.9532 8.625 80.7114 11.3833 80.7114 14.7857L80.7114 46.8214Z" fill="#84CC6D" fill-opacity="0.4"/>
<path d="M35.5058 29.1335C35.2091 29.1335 34.9336 29.0519 34.6889 28.9207V28.9242C34.6889 29.3909 34.5075 29.8293 34.1783 30.1576C33.8491 30.4868 33.4111 30.6682 32.9449 30.6682C32.6438 30.6682 32.3649 30.5846 32.1175 30.4499C32.0925 30.877 31.9219 31.2761 31.6173 31.5809C31.2882 31.9101 30.8501 32.0916 30.3836 32.0916C29.4567 32.0916 28.7039 31.3629 28.6497 30.4497C28.3629 30.6047 28.0386 30.686 27.7042 30.6645C26.7923 30.6047 26.0782 29.8168 26.0782 28.8704V21.0258L25.185 22.5733C24.8448 23.1652 24.2079 23.5327 23.5222 23.5327C23.1881 23.5327 22.858 23.4451 22.5657 23.2776C22.2017 23.0665 21.9413 22.7278 21.833 22.3225C21.7242 21.917 21.7805 21.4928 21.9909 21.1294C21.9912 21.1294 24.9136 16.0687 25.0918 15.7579C25.113 15.7111 25.1734 15.5756 25.2248 15.46C25.2739 15.3497 25.316 15.2365 25.3563 15.1227C26.2376 12.6347 28.4198 11.0891 31.0515 11.0891C34.4691 11.0891 37.2495 14.1041 37.2495 17.81L37.2498 27.3891C37.2498 27.8553 37.0686 28.2934 36.7397 28.6229C36.4105 28.9521 35.9725 29.1335 35.5057 29.1335L35.5058 29.1335ZM31.0516 12.0159C28.7902 12.0159 26.9878 13.2932 26.2298 15.4326C26.1813 15.5685 26.1308 15.7044 26.0719 15.8367C25.9009 16.2202 25.9009 16.2202 25.8527 16.2754L25.8463 16.2698C25.6077 16.7201 24.8988 17.9477 22.7934 21.5932C22.7069 21.7427 22.6839 21.9163 22.7281 22.0823C22.7728 22.2484 22.8799 22.3883 23.0282 22.4739C23.4886 22.7384 24.1191 22.5677 24.3816 22.1105L26.1404 19.0653C26.2455 18.8839 26.458 18.7948 26.6618 18.8499C26.8644 18.9042 27.0052 19.088 27.0052 19.2975V28.8707C27.0052 29.3224 27.346 29.7122 27.7649 29.7398C28.0064 29.7526 28.2317 29.6716 28.4009 29.5027C28.5548 29.3488 28.6396 29.1439 28.6396 28.9247V22.6637C28.6396 22.4077 28.8471 22.2001 29.1032 22.2001C29.3592 22.2001 29.5667 22.4074 29.5667 22.6637L29.5665 30.3478C29.5665 30.7983 29.9331 31.165 30.3836 31.165C30.6025 31.165 30.808 31.0802 30.9622 30.9263C31.116 30.7722 31.2008 30.5667 31.2008 30.3478V22.6637C31.2008 22.4077 31.4081 22.2001 31.6644 22.2001C31.9204 22.2001 32.128 22.4074 32.128 22.6637L32.1277 28.8527V28.9247C32.1277 29.3749 32.4943 29.7415 32.9451 29.7415C33.1637 29.7415 33.3687 29.6565 33.5237 29.502C33.6775 29.3485 33.7623 29.1435 33.7623 28.9244V22.6634C33.7623 22.4073 33.9696 22.1998 34.2259 22.1998C34.4819 22.1998 34.6895 22.4071 34.6895 22.6634L34.6889 27.3893C34.6889 27.8401 35.0556 28.2068 35.5058 28.2068C35.7249 28.2068 35.9299 28.1217 36.0837 27.9682C36.2382 27.8137 36.3226 27.6082 36.3226 27.3893L36.3229 17.8102C36.3229 14.6156 33.9583 12.016 31.0515 12.016L31.0516 12.0159Z" fill="#129166"/>
<path d="M17.2918 35.7912L24.019 31.7556C24.8301 31.2684 25.8737 31.4754 26.3939 32.227C26.5837 32.5007 26.6807 32.8198 26.6958 33.1446C26.9466 33.0137 27.2194 32.9426 27.4972 32.9426C27.6395 32.9426 27.7823 32.9603 27.9234 32.9954C28.3754 33.1083 28.7562 33.3908 28.9957 33.7902C29.2355 34.1902 29.3055 34.659 29.1926 35.1105C29.0883 35.5282 28.8343 35.8798 28.4811 36.121C28.7281 36.2667 28.9412 36.4656 29.0927 36.7187C29.3325 37.1187 29.4024 37.5873 29.2898 38.0393C29.1769 38.4907 28.8944 38.8715 28.4944 39.1116L28.4921 39.1131C28.7348 39.2585 28.9441 39.4553 29.0939 39.7047C29.3339 40.1047 29.4039 40.5735 29.291 41.0255C29.1778 41.4772 28.8953 41.858 28.4959 42.0978L20.2819 47.0255C18.7489 47.9449 16.9766 48.2622 15.2924 47.9182C13.593 47.571 12.1857 46.5942 11.3299 45.1677C9.97572 42.9107 10.1787 40.2441 11.8586 38.2088C11.9355 38.1159 12.0113 38.0213 12.0801 37.9232C12.1529 37.8195 12.238 37.6976 12.267 37.6558C12.4409 37.3452 15.2782 32.2332 15.2779 32.2338C15.5644 31.7168 16.1015 31.4241 16.6553 31.4244C16.9137 31.4244 17.1758 31.488 17.4177 31.6221C17.7097 31.7852 17.955 32.023 18.1265 32.3095C18.4793 32.8973 18.4917 33.633 18.1596 34.2283L17.2918 35.7912ZM17.3322 32.7861C17.2422 32.636 17.1185 32.5164 16.9673 32.4316C16.6547 32.2586 16.261 32.3713 16.0889 32.6827C14.0586 36.3404 13.3665 37.5869 13.0995 38.0305L13.1056 38.0319C13.0832 38.1062 13.0832 38.1062 12.8388 38.4554C12.7558 38.5736 12.6655 38.6871 12.5735 38.7989C11.1289 40.549 10.9612 42.7515 12.1244 44.6909C12.8449 45.8921 14.0357 46.7156 15.4775 47.01C16.935 47.3064 18.4713 47.0306 19.8046 46.2306L28.0193 41.3027C28.2068 41.1903 28.3392 41.0118 28.392 40.8002C28.4449 40.5888 28.4121 40.3691 28.2994 40.1816C28.0678 39.7955 27.5647 39.6686 27.1786 39.9011L23.1262 42.3323C22.9067 42.4641 22.6217 42.3933 22.4902 42.1735C22.3584 41.9541 22.4295 41.6693 22.649 41.5375L26.7017 39.1063L28.0179 38.3167C28.2054 38.2041 28.3381 38.0256 28.3909 37.8145C28.4437 37.6029 28.4109 37.3829 28.2983 37.1956C28.0663 36.8093 27.5633 36.6836 27.1775 36.9152L21.8086 40.136C21.5885 40.2681 21.3043 40.1967 21.1725 39.9772C21.0407 39.7578 21.1122 39.473 21.3313 39.3412L27.9206 35.3883C28.1082 35.2757 28.2405 35.0975 28.2934 34.8858C28.3462 34.6745 28.3134 34.4548 28.201 34.2672C28.0887 34.08 27.9102 33.9476 27.6986 33.8948C27.4858 33.842 27.2669 33.8748 27.0799 33.9868L25.8602 34.7186C25.8599 34.7186 25.8599 34.7189 25.8596 34.7189H25.8593L20.4907 37.9397C20.2706 38.0721 19.9861 38.0007 19.8546 37.7809C19.7229 37.5615 19.7943 37.2767 20.0134 37.1449L25.3823 33.9241C25.5699 33.8115 25.7025 33.633 25.7554 33.4219C25.8134 33.1903 25.7693 32.9534 25.6317 32.7548C25.3931 32.4097 24.8828 32.3179 24.4958 32.5505L16.287 37.475C16.1073 37.5824 15.8772 37.5563 15.7265 37.4108C15.5755 37.2651 15.5416 37.0361 15.6432 36.8529L17.3501 33.7775C17.5214 33.4701 17.5147 33.0904 17.3321 32.7862L17.3322 32.7861Z" fill="#129166"/>
<path d="M49.4372 45.1674C48.5816 46.5942 47.1746 47.5708 45.475 47.918C43.7905 48.2614 42.0188 47.9447 40.4855 47.0253L32.2708 42.0974C31.871 41.8576 31.5883 41.4767 31.4751 41.0244C31.3627 40.573 31.433 40.1042 31.6725 39.7047C31.822 39.4551 32.0316 39.2583 32.2745 39.1128L32.2722 39.1114C31.8725 38.8716 31.5898 38.4907 31.4771 38.039C31.3639 37.5873 31.4342 37.1182 31.6739 36.7182C31.8284 36.4613 32.04 36.2605 32.2815 36.1179C31.9309 35.8767 31.6783 35.5263 31.5744 35.1106C31.4612 34.6586 31.5314 34.1898 31.7712 33.7903C32.0107 33.3906 32.3918 33.1081 32.8436 32.9952C32.9846 32.9598 33.1277 32.9424 33.2694 32.9424C33.5475 32.9427 33.8204 33.0132 34.0712 33.1445C34.0866 32.8196 34.1832 32.5006 34.3731 32.2268C34.8936 31.4759 35.9363 31.268 36.7485 31.7554L43.4755 35.7904L42.6084 34.2286C42.2757 33.6324 42.2879 32.8968 42.6406 32.3087C42.8125 32.0224 43.058 31.7847 43.3515 31.6201C43.5927 31.4866 43.854 31.4233 44.1118 31.4233C44.6653 31.4236 45.203 31.7156 45.4892 32.2326C46.4866 34.0298 48.3688 37.4193 48.5012 37.6559C48.5294 37.6968 48.6144 37.8187 48.6873 37.9224C48.7567 38.0208 48.8315 38.1148 48.9091 38.2083C50.5887 40.2444 50.7913 42.9107 49.4371 45.1675L49.4372 45.1674ZM48.1939 38.7991C48.1016 38.6873 48.011 38.5732 47.9285 38.4557C47.6777 38.0998 47.6714 38.0905 47.6525 37.9973C47.3593 37.5122 46.644 36.2245 44.6779 32.6823C44.5055 32.3714 44.1136 32.2579 43.8015 32.4304C43.648 32.5163 43.5246 32.6362 43.4346 32.7863C43.2523 33.0902 43.2453 33.4699 43.4175 33.7782L45.1238 36.8527C45.2257 37.0361 45.1917 37.2649 45.0411 37.4106C44.8907 37.5566 44.6608 37.5822 44.4802 37.4748L36.2715 32.5502C35.8845 32.3183 35.3745 32.4092 35.1353 32.7546C34.9977 32.9532 34.9538 33.19 35.0113 33.4214C35.0641 33.6327 35.1968 33.811 35.3846 33.9236C35.3852 33.9239 35.3855 33.9245 35.3861 33.9248L40.7533 37.1447C40.9727 37.2764 41.0439 37.5609 40.9121 37.7807C40.7803 37.9999 40.4961 38.0716 40.276 37.9395L33.6867 33.9866C33.4998 33.8746 33.2797 33.8415 33.0684 33.8946C32.8565 33.9474 32.6783 34.0798 32.5659 34.2676C32.4533 34.4549 32.4208 34.6746 32.473 34.8859C32.5259 35.0973 32.6585 35.2758 32.8461 35.3884L34.1283 36.1574L39.4351 39.3414C39.6545 39.4731 39.7256 39.7576 39.5938 39.9774C39.4621 40.1965 39.1779 40.268 38.9578 40.1362L33.5895 36.9154C33.2034 36.6832 32.7006 36.8091 32.4684 37.1958C32.3558 37.3833 32.3233 37.6031 32.3755 37.8144C32.4283 38.0257 32.561 38.204 32.7488 38.3169L34.065 39.1065L38.1171 41.5377C38.3366 41.6695 38.4077 41.954 38.2759 42.1737C38.1441 42.3929 37.8599 42.4649 37.6399 42.3325L33.5878 39.9013C33.4008 39.7893 33.1816 39.7562 32.9691 39.8093C32.7578 39.8621 32.579 39.9945 32.4667 40.1817C32.3543 40.3692 32.3215 40.5893 32.3738 40.8003C32.4266 41.0117 32.5593 41.1899 32.7471 41.3028L40.9618 46.2307C42.2948 47.0305 43.8322 47.3074 45.2889 47.0102C46.7304 46.7158 47.9212 45.8922 48.6417 44.691C49.8061 42.7513 49.6386 40.5486 48.1944 38.799L48.1939 38.7991Z" fill="#129166"/>
</svg>
