<svg width="66" height="65" viewBox="0 0 66 65" fill="none" xmlns="http://www.w3.org/2000/svg">
<rect x="0.5" width="65" height="65" rx="8" fill="#129166"/>
<path d="M7.14014 45.9495C7.49392 43.3722 8.53541 41.1138 9.86931 39.0209C12.0209 35.6424 14.7627 33.1269 18.4882 32.1143C19.6813 31.7894 20.8853 31.7954 22.0982 31.8472C24.3003 31.9409 26.4772 31.8432 28.5674 30.9363C29.4085 30.5715 30.1413 30.0354 30.9879 29.1763C30.8308 31.036 30.4265 32.497 29.2136 33.5156C27.645 34.8331 25.7606 35.3733 23.9068 35.9752C23.5007 36.1068 23.0531 36.1068 22.6632 36.4277C23.0368 37.0735 23.5657 37.512 24.091 37.9426C26.1739 39.6528 28.506 40.8228 30.9843 41.6102C34.0582 42.5849 36.8451 41.5703 39.5003 39.9059C40.9082 39.0229 42.1825 37.9306 43.4334 36.8004C43.798 36.4716 44.1085 35.9852 44.6734 36.033C44.7258 36.4775 44.4478 36.7227 44.2059 36.9978C43.3431 37.9765 42.3883 38.8356 41.4262 39.6907C37.6014 43.0852 33.3001 44.1894 28.5186 42.9576C26.5042 42.4393 24.5801 41.6121 22.6596 40.779C20.425 39.8083 18.1525 39.1983 15.7175 39.7425C12.5967 40.4381 10.1455 42.2859 8.10401 44.909C7.81521 45.2797 7.57153 45.7322 7.14014 45.9554V45.9495Z" fill="#FEC91A"/>
<path d="M7.1401 45.9493C7.5715 45.728 7.81517 45.2756 8.10397 44.9028C10.1454 42.2797 12.5966 40.434 15.7175 39.7363C18.1524 39.1922 20.4249 39.8021 22.6595 40.7728C24.5801 41.606 26.5042 42.4332 28.5186 42.9514C33.2982 44.1833 37.5996 43.079 41.4262 39.6845C42.3883 38.8314 43.3431 37.9703 44.2059 36.9916C44.4478 36.7186 44.7257 36.4734 44.6734 36.0269C44.7871 36.0229 44.9008 36.0169 45.0163 36.0129C45.0741 36.0727 45.1319 36.1325 45.1896 36.1923C44.834 37.462 44.1247 38.5085 43.3936 39.5211C39.1988 45.3394 33.7495 47.3167 27.1901 45.9971C24.9158 45.5387 22.8057 44.4962 20.5567 43.966C16.2247 42.9435 12.0335 43.0391 8.16715 45.8018C7.78449 46.0749 7.43071 46.3958 7.04985 46.7047C6.9217 46.3998 7.07332 46.1805 7.1401 45.9493Z" fill="#FEBC02"/>
<path d="M57.5394 18.028C57.2975 20.5275 56.3355 22.724 55.1315 24.795C53.1623 28.1776 50.5847 30.7768 47.0631 32.0664C45.657 32.5807 44.2112 32.78 42.7221 32.6385C40.6373 32.4411 38.5814 32.6444 36.5742 33.3321C35.5183 33.6929 34.5725 34.2709 33.7675 35.1679C33.5274 33.7686 34.3487 31.7196 35.493 30.8465C37.206 29.539 39.1915 28.9669 41.159 28.357C41.4062 28.2792 41.6571 28.2154 41.9008 28.1457C41.9387 27.7989 41.6969 27.6753 41.5398 27.5158C39.0543 25.0023 36.0833 23.4396 32.8415 22.6842C29.5311 21.9128 26.6124 23.3858 23.923 25.395C22.8508 26.1943 21.8707 27.1431 20.8256 27.9882C20.4339 28.3051 20.0386 28.8094 19.4556 28.3669C20.5819 27.0135 21.7876 25.7618 23.0909 24.6077C25.7857 22.2178 28.8705 20.9341 32.2874 20.9461C35.1104 20.954 37.8233 21.851 40.446 23.0151C42.4676 23.914 44.4982 24.9186 46.7112 24.8807C50.7616 24.811 53.9348 22.6762 56.5051 19.3435C56.747 19.0286 57.1567 18.7535 57.0214 18.2093L57.0177 18.2213C57.0791 18.1535 57.1405 18.0877 57.2019 18.022L57.1946 18.028C57.312 18.028 57.4275 18.0319 57.5448 18.0339L57.5394 18.028Z" fill="#50CF64"/>
<path d="M57.018 18.2072C57.1533 18.7534 56.7436 19.0285 56.5017 19.3414C53.9314 22.6741 50.76 24.8109 46.7078 24.8786C44.4966 24.9165 42.4642 23.9119 40.4426 23.013C37.8217 21.8469 35.107 20.9519 32.284 20.944C28.8689 20.934 25.7823 22.2177 23.0875 24.6056C21.7861 25.7597 20.5785 27.0114 19.4522 28.3648C19.185 28.2233 19.3691 28.0599 19.4395 27.9124C21.9828 22.6402 25.7841 19.2218 31.2082 18.2252C34.7135 17.5814 38.06 18.4006 41.3541 19.6384C44.466 20.8084 47.6464 21.4184 50.9315 20.8882C52.9062 20.5692 54.7707 19.8656 56.4277 18.586C56.6136 18.4424 56.8176 18.3308 57.0144 18.2052L57.018 18.2072Z" fill="#01B445"/>
</svg>
