<svg width="81" height="69" viewBox="0 0 81 69" fill="none" xmlns="http://www.w3.org/2000/svg">
<path d="M80.3774 46.8214C80.3774 59.0703 70.4478 69 58.1989 69L24.931 69C21.5285 69 18.7703 66.2417 18.7703 62.8393L18.7703 20.9464C18.7703 14.1415 24.2868 8.625 31.0917 8.625L74.2167 8.625C77.6192 8.625 80.3774 11.3833 80.3774 14.7857L80.3774 46.8214Z" fill="#84CC6D" fill-opacity="0.4"/>
<path d="M29.8477 12.3215C25.4474 12.3215 21.8651 15.9365 21.8651 20.3555C21.8651 23.1511 23.3007 25.6194 25.4683 27.0582C22.8502 27.9336 20.5848 29.5697 18.9232 31.7101C18.0046 31.0035 16.9781 30.4353 15.8715 30.028C17.5496 28.7823 18.6461 26.7812 18.6461 24.532C18.6461 20.7842 15.6149 17.7161 11.8898 17.7161C8.16462 17.7161 5.13345 20.7842 5.13345 24.532C5.13345 26.7824 6.23092 28.7845 7.91035 30.0303C3.46406 31.671 0.288574 35.9667 0.288574 41.0222V44.5734C0.289029 44.8441 0.397319 45.1035 0.589326 45.2941C0.781332 45.4852 1.04114 45.5917 1.31186 45.5908H16.8923C16.93 45.5949 16.9678 45.5972 17.0056 45.5967H42.6906C42.7284 45.5972 42.7666 45.5949 42.8039 45.5908H58.3855C58.9456 45.5885 59.3992 45.134 59.4006 44.5734V41.0222C59.4006 35.9667 56.2306 31.671 51.7866 30.0298C53.466 28.7845 54.5635 26.782 54.5635 24.5316C54.5635 20.7837 51.5324 17.7156 47.8072 17.7156C44.0822 17.7156 41.0509 20.7837 41.0509 24.5316C41.0509 26.7807 42.1479 28.7822 43.8259 30.0276C42.7171 30.4357 41.6901 31.0058 40.7702 31.7142C39.1094 29.5725 36.8471 27.9341 34.2291 27.0582C36.3962 25.6194 37.8323 23.1511 37.8323 20.3555C37.8323 15.9365 34.2482 12.3215 29.8479 12.3215H29.8477ZM29.8477 14.3599C33.1387 14.3599 35.7918 17.0308 35.7918 20.3555C35.7918 23.6542 33.18 26.2992 29.9255 26.3416C29.8995 26.3416 29.8741 26.3379 29.8477 26.3379C29.8213 26.3379 29.7962 26.3416 29.7699 26.3416C26.5153 26.2997 23.9053 23.6544 23.9053 20.3555C23.9053 17.0304 26.5562 14.3599 29.8472 14.3599H29.8477ZM11.8899 19.7544C14.5011 19.7544 16.6078 21.8737 16.6078 24.5319C16.6078 27.1723 14.5284 29.2826 11.9417 29.3112C11.9244 29.3112 11.9076 29.3094 11.8899 29.3094C11.8726 29.3094 11.8557 29.3112 11.838 29.3112C9.25131 29.2826 7.1719 27.1718 7.1719 24.5319C7.1719 21.8738 9.27857 19.7544 11.8898 19.7544H11.8899ZM47.8066 19.7544C50.4178 19.7544 52.5245 21.8737 52.5245 24.5319C52.5245 27.1723 50.4451 29.2826 47.8584 29.3112C47.8411 29.3112 47.8243 29.3094 47.8065 29.3094C47.7893 29.3094 47.7724 29.3112 47.7547 29.3112C45.168 29.2826 43.0886 27.1718 43.0886 24.5319C43.0886 21.8738 45.1953 19.7544 47.8065 19.7544H47.8066ZM29.7696 28.3799C29.7955 28.3803 29.821 28.3835 29.8474 28.3835C29.8734 28.3835 29.8988 28.3799 29.9252 28.3799C36.4522 28.4217 41.6758 33.6902 41.6758 40.2853L41.6753 43.5577H18.0205V40.2853C18.0205 33.6896 23.2425 28.4218 29.7687 28.3799H29.7696ZM11.8119 31.352C11.8378 31.3524 11.8633 31.3556 11.8897 31.3556C11.916 31.3556 11.9411 31.352 11.9675 31.352C14.1751 31.3697 16.1899 32.1309 17.7942 33.4045C16.6462 35.4356 15.9823 37.7802 15.9823 40.2859V43.5505H2.32616V41.022C2.32616 35.6621 6.54041 31.3938 11.8116 31.3515L11.8119 31.352ZM47.7285 31.352C47.7549 31.3524 47.78 31.3556 47.8063 31.3556C47.8327 31.3556 47.8578 31.352 47.8842 31.352C53.1554 31.3938 57.3696 35.6627 57.3696 41.0225V43.5505H43.7065L43.706 40.2859C43.706 37.7816 43.044 35.4388 41.8982 33.4081C43.503 32.1327 45.5191 31.3697 47.7287 31.352H47.7285Z" fill="#129166"/>
</svg>
