<svg width="166" height="34" viewBox="0 0 166 34" fill="none" xmlns="http://www.w3.org/2000/svg">
<g clip-path="url(#clip0_4232_5786)">
<path d="M1.73633 31.3821C2.09011 28.8048 3.1316 26.5465 4.4655 24.4535C6.61706 21.075 9.35887 18.5595 13.0844 17.5469C14.2775 17.222 15.4815 17.228 16.6944 17.2798C18.8965 17.3735 21.0734 17.2759 23.1636 16.3689C24.0047 16.0042 24.7375 15.468 25.5841 14.6089C25.427 16.4686 25.0227 17.9296 23.8097 18.9482C22.2412 20.2657 20.3568 20.8059 18.503 21.4079C18.0969 21.5394 17.6493 21.5394 17.2594 21.8603C17.633 22.5061 18.1619 22.9447 18.6871 23.3752C20.7701 25.0854 23.1022 26.2554 25.5805 27.0428C28.6544 28.0175 31.4413 27.0029 34.0965 25.3385C35.5044 24.4555 36.7787 23.3632 38.0296 22.2331C38.3942 21.9042 38.7047 21.4178 39.2696 21.4657C39.322 21.9102 39.044 22.1553 38.8021 22.4304C37.9393 23.4091 36.9845 24.2682 36.0224 25.1233C32.1976 28.5178 27.8963 29.622 23.1148 28.3902C21.1004 27.872 19.1763 27.0448 17.2558 26.2116C15.0212 25.2409 12.7487 24.6309 10.3137 25.1751C7.19286 25.8707 4.74166 27.7185 2.7002 30.3416C2.4114 30.7123 2.16772 31.1648 1.73633 31.3881V31.3821Z" fill="#FEC91A"/>
<path d="M1.73629 31.3819C2.16769 31.1607 2.41137 30.7082 2.70017 30.3354C4.74163 27.7123 7.19283 25.8666 10.3137 25.1689C12.7486 24.6248 15.0211 25.2347 17.2557 26.2054C19.1763 27.0386 21.1004 27.8658 23.1148 28.3841C27.8944 29.6159 32.1958 28.5116 36.0224 25.1171C36.9844 24.264 37.9393 23.4029 38.8021 22.4242C39.044 22.1512 39.3219 21.906 39.2696 21.4595C39.3833 21.4555 39.497 21.4495 39.6125 21.4456C39.6703 21.5054 39.7281 21.5652 39.7858 21.6249C39.4302 22.8946 38.7209 23.9411 37.9898 24.9537C33.795 30.772 28.3457 32.7493 21.7863 31.4297C19.512 30.9713 17.4019 29.9288 15.1529 29.3986C10.8209 28.3761 6.62966 28.4718 2.76334 31.2344C2.38068 31.5075 2.0269 31.8284 1.64604 32.1373C1.51789 31.8324 1.66951 31.6131 1.73629 31.3819Z" fill="#FEBC02"/>
<path d="M52.1356 3.46057C51.8937 5.9601 50.9316 8.15666 49.7277 10.2276C47.7584 13.6102 45.1809 16.2094 41.6593 17.499C40.2532 18.0133 38.8074 18.2126 37.3183 18.0711C35.2335 17.8738 33.1776 18.0771 31.1704 18.7647C30.1145 19.1255 29.1687 19.7036 28.3637 20.6005C28.1236 19.2013 28.9449 17.1522 30.0892 16.2792C31.8022 14.9716 33.7877 14.3995 35.7552 13.7896C36.0024 13.7118 36.2533 13.6481 36.497 13.5783C36.5349 13.2315 36.293 13.1079 36.136 12.9484C33.6505 10.4349 30.6795 8.87224 27.4377 8.1168C24.1273 7.34541 21.2086 8.81842 18.5191 10.8276C17.447 11.6269 16.4669 12.5757 15.4218 13.4208C15.0301 13.7378 14.6348 14.2421 14.0518 13.7996C15.1781 12.4461 16.3838 11.1944 17.687 10.0403C20.3819 7.65038 23.4667 6.36673 26.8835 6.37869C29.7066 6.38666 32.4195 7.28362 35.0422 8.44768C37.0638 9.34663 39.0944 10.3512 41.3074 10.3134C45.3578 10.2436 48.531 8.10883 51.1013 4.77611C51.3432 4.46118 51.7529 4.18611 51.6175 3.64196L51.6139 3.65391C51.6753 3.58614 51.7367 3.52037 51.798 3.45459L51.7908 3.46057C51.9082 3.46057 52.0237 3.46456 52.141 3.46655L52.1356 3.46057Z" fill="#50CF64"/>
<path d="M51.6142 3.63985C51.7495 4.186 51.3398 4.46107 51.0979 4.77401C48.5276 8.10672 45.3562 10.2435 41.304 10.3113C39.0928 10.3491 37.0604 9.34453 35.0388 8.44558C32.4179 7.27953 29.7032 6.38456 26.8802 6.37659C23.4651 6.36662 20.3785 7.65027 17.6837 10.0382C16.3822 11.1923 15.1747 12.444 14.0484 13.7974C13.7812 13.6559 13.9653 13.4925 14.0357 13.345C16.579 8.07284 20.3803 4.65442 25.8044 3.65779C29.3097 3.01397 32.6562 3.8332 35.9503 5.07101C39.0621 6.24104 42.2426 6.85098 45.5277 6.32077C47.5024 6.00185 49.3669 5.29824 51.0239 4.01857C51.2098 3.87506 51.4138 3.76344 51.6105 3.63786L51.6142 3.63985Z" fill="#01B445"/>
<path d="M64.3143 4.74072C67.0521 4.74072 69.1166 6.44364 69.7731 9.19547H66.6917C66.2168 8.10955 65.348 7.56659 64.2808 7.56659C62.5599 7.56659 61.3782 8.97952 61.3782 11.2223C61.3782 13.4651 62.5599 14.878 64.2808 14.878C65.3452 14.878 66.214 14.3351 66.6917 13.2492H69.7731C69.1166 16.001 67.0521 17.6854 64.3143 17.6854C60.92 17.6854 58.5259 15.023 58.5259 11.2223C58.5259 7.42159 60.92 4.74072 64.3143 4.74072Z" fill="#333333"/>
<path d="M75.6563 17.7377C72.9688 17.7377 70.9351 15.7448 70.9351 12.5426C70.9351 9.34033 73.0163 7.34741 75.6899 7.34741C78.3634 7.34741 80.4447 9.34033 80.4447 12.5426C80.4447 15.7448 78.3466 17.7377 75.6563 17.7377ZM75.6563 15.0599C76.6565 15.0599 77.5895 14.2455 77.5895 12.5426C77.5895 10.8396 76.6704 10.0252 75.6871 10.0252C74.7037 10.0252 73.7846 10.8211 73.7846 12.5426C73.7846 14.264 74.6367 15.0599 75.6535 15.0599H75.6563Z" fill="#333333"/>
<path d="M86.0992 17.7377C83.4117 17.7377 81.3779 15.7448 81.3779 12.5426C81.3779 9.34033 83.4592 7.34741 86.1327 7.34741C88.8063 7.34741 90.8875 9.34033 90.8875 12.5426C90.8875 15.7448 88.7895 17.7377 86.0992 17.7377ZM86.0992 15.0599C87.0993 15.0599 88.0324 14.2455 88.0324 12.5426C88.0324 10.8396 87.1133 10.0252 86.1299 10.0252C85.1466 10.0252 84.2275 10.8211 84.2275 12.5426C84.2275 14.264 85.0795 15.0599 86.0964 15.0599H86.0992Z" fill="#333333"/>
<path d="M96.9189 13.0332H95.1813V17.5959H92.3765V4.88574H96.9189C99.7377 4.88574 101.149 6.64111 101.149 8.97645C101.149 11.0773 99.8523 13.0332 96.9189 13.0332ZM96.7066 10.5714C97.8213 10.5714 98.2962 9.9544 98.2962 8.97645C98.2962 7.99851 97.8213 7.38459 96.7066 7.38459H95.1813V10.5714H96.7066Z" fill="#333333"/>
<path d="M106.082 7.34741C107.442 7.34741 108.409 8.03537 108.901 8.92385V7.49241H111.706V17.5958H108.901V16.1643C108.392 17.0528 107.426 17.7408 106.065 17.7408C103.836 17.7408 102.048 15.7139 102.048 12.5271C102.048 9.34033 103.836 7.3505 106.082 7.3505V7.34741ZM106.903 10.0437C105.853 10.0437 104.903 10.9137 104.903 12.524C104.903 14.1344 105.853 15.0414 106.903 15.0414C107.954 15.0414 108.903 14.1529 108.903 12.5426C108.903 10.9322 107.968 10.0437 106.903 10.0437Z" fill="#333333"/>
<path d="M116.542 17.593H113.737V7.48957H116.542V9.17398C117.181 8.10657 118.182 7.38159 119.411 7.38159V10.6579H118.64C117.313 10.6579 116.542 11.1638 116.542 12.9037V17.593Z" fill="#333333"/>
<path d="M121.196 10.0624H120.081V7.49259H121.196V5.03076H124.001V7.49259H125.836V10.0624H124.001V14.1192C124.001 14.7177 124.23 14.9706 124.853 14.9706H125.853V17.596H124.425C122.523 17.596 121.196 16.7075 121.196 14.0852V10.0655V10.0624Z" fill="#333333"/>
<path d="M127.149 4.77767C127.149 3.83675 127.822 3.09326 128.822 3.09326C129.822 3.09326 130.479 3.83675 130.479 4.77767C130.479 5.7186 129.806 6.44357 128.822 6.44357C127.839 6.44357 127.149 5.70009 127.149 4.77767ZM127.412 7.49247H130.216V17.5958H127.412V7.49247Z" fill="#333333"/>
<path d="M132.248 4.19775H135.052V17.5959H132.248V4.19775Z" fill="#333333"/>
<path d="M137.083 4.19775H139.888V8.84994C140.447 7.97997 141.447 7.38456 142.707 7.38456C144.788 7.38456 146.182 8.97642 146.182 11.6943V17.5959H143.394V12.1108C143.394 10.7349 142.707 9.97596 141.64 9.97596C140.573 9.97596 139.885 10.7349 139.885 12.1108V17.5959H137.081V4.19775H137.083Z" fill="#333333"/>
<path d="M151.607 7.34741C152.968 7.34741 153.934 8.03537 154.426 8.92385V7.49241H157.231V17.5958H154.426V16.1643C153.918 17.0528 152.951 17.7408 151.591 17.7408C149.361 17.7408 147.573 15.7139 147.573 12.5271C147.573 9.34033 149.361 7.3505 151.607 7.3505V7.34741ZM152.426 10.0437C151.375 10.0437 150.426 10.9137 150.426 12.524C150.426 14.1344 151.375 15.0414 152.426 15.0414C153.476 15.0414 154.426 14.1529 154.426 12.5426C154.426 10.9322 153.49 10.0437 152.426 10.0437Z" fill="#333333"/>
<path d="M162.067 17.593H159.262V7.48957H162.067V9.17398C162.707 8.10657 163.707 7.38159 164.936 7.38159V10.6579H164.165C162.838 10.6579 162.067 11.1638 162.067 12.9037V17.593Z" fill="#333333"/>
<path d="M58.6514 25.6509H59.3051V29.1431C59.3051 30.155 59.7996 30.593 60.5371 30.593C61.2746 30.593 61.7635 30.1581 61.7635 29.1431V25.6509H62.4172V29.1338C62.4172 30.5684 61.5651 31.2255 60.5315 31.2255C59.4978 31.2255 58.6542 30.5684 58.6542 29.1338V25.6509H58.6514Z" fill="#333333"/>
<path d="M66.3784 28.7143C66.3784 27.8289 65.9398 27.3754 65.2805 27.3754C64.6212 27.3754 64.1547 27.835 64.1547 28.7698V31.1699H63.501V26.8324H64.1547V27.4494C64.4117 26.999 64.8866 26.7522 65.4174 26.7522C66.3282 26.7522 67.0238 27.3692 67.0238 28.6125V31.1699H66.3784V28.7143Z" fill="#333333"/>
<path d="M67.9849 25.6355C67.9849 25.3579 68.1776 25.145 68.4291 25.145C68.6665 25.145 68.8593 25.3579 68.8593 25.6355C68.8593 25.9132 68.6665 26.126 68.4291 26.126C68.1776 26.126 67.9849 25.9132 67.9849 25.6355ZM68.091 26.8294H68.7447V31.1669H68.091V26.8294Z" fill="#333333"/>
<path d="M71.4826 26.7584C72.1 26.7584 72.6643 27.107 72.9381 27.6068V25.3115H73.5974V31.1699H72.9381V30.3555C72.7006 30.8398 72.1922 31.2409 71.4742 31.2409C70.421 31.2409 69.6108 30.3308 69.6108 28.9858C69.6108 27.6407 70.421 26.7615 71.4826 26.7615V26.7584ZM71.6055 27.3846C70.8875 27.3846 70.2785 27.9615 70.2785 28.9827C70.2785 30.0038 70.8875 30.6054 71.6055 30.6054C72.3235 30.6054 72.9381 30.0131 72.9381 28.9888C72.9381 27.9646 72.3207 27.3816 71.6055 27.3816V27.3846Z" fill="#333333"/>
<path d="M76.4134 31.2379C75.3016 31.2379 74.4551 30.3679 74.4551 28.9889C74.4551 27.6099 75.3295 26.7554 76.4414 26.7554C77.5532 26.7554 78.4277 27.6192 78.4277 28.9889C78.4277 30.3587 77.5309 31.2379 76.4134 31.2379ZM76.4134 30.6055C77.0951 30.6055 77.76 30.0903 77.76 28.9889C77.76 27.8876 77.1063 27.3816 76.433 27.3816C75.7597 27.3816 75.12 27.8968 75.12 28.9889C75.12 30.081 75.729 30.6055 76.4106 30.6055H76.4134Z" fill="#333333"/>
<path d="M80.6796 31.2377C79.7633 31.2377 79.1179 30.6824 79.0732 29.8927H79.7465C79.7828 30.3122 80.1181 30.63 80.6712 30.63C81.188 30.63 81.473 30.3462 81.473 29.9883C81.473 29.0227 79.1515 29.5842 79.1515 27.9707C79.1515 27.3043 79.7186 26.7583 80.593 26.7583C81.4674 26.7583 82.0345 27.2735 82.0764 28.1188H81.4227C81.3948 27.6838 81.0931 27.366 80.5706 27.366C80.0901 27.366 79.8024 27.619 79.8024 27.9676C79.8024 28.998 82.082 28.4365 82.1099 29.9852C82.1099 30.6978 81.5428 31.2346 80.6768 31.2346L80.6796 31.2377Z" fill="#333333"/>
<path d="M87.0656 26.7585C88.1188 26.7585 88.9289 27.6284 88.9289 28.9827C88.9289 30.3371 88.1188 31.2379 87.0656 31.2379C86.3476 31.2379 85.8391 30.8091 85.5961 30.3679V33.2246H84.9424V26.8263H85.5961V27.6253C85.8336 27.1657 86.3476 26.7554 87.0656 26.7554V26.7585ZM86.9315 27.3847C86.2219 27.3847 85.5989 27.9863 85.5989 28.992C85.5989 29.9977 86.2219 30.6085 86.9315 30.6085C87.6411 30.6085 88.264 30.007 88.264 28.9858C88.264 27.9647 87.655 27.3878 86.9315 27.3878V27.3847Z" fill="#333333"/>
<path d="M91.4909 31.2379C90.3734 31.2379 89.5493 30.3679 89.5493 28.9889C89.5493 27.6099 90.3455 26.7554 91.4909 26.7554C92.6363 26.7554 93.3766 27.6408 93.3766 28.8285C93.3766 28.9858 93.3682 29.1123 93.3543 29.2635H90.2142C90.2645 30.1427 90.8232 30.624 91.4909 30.624C92.0776 30.624 92.4519 30.2908 92.5944 29.825H93.2956C93.0945 30.6178 92.4631 31.2348 91.4881 31.2348L91.4909 31.2379ZM90.2226 28.6835H92.7033C92.7117 27.8382 92.1362 27.3693 91.463 27.3693C90.826 27.3693 90.2952 27.8382 90.2226 28.6835Z" fill="#333333"/>
<path d="M94.2344 25.3083H94.8881V31.1668H94.2344V25.3083Z" fill="#333333"/>
<path d="M97.7123 31.2379C96.6004 31.2379 95.7539 30.3679 95.7539 28.9889C95.7539 27.6099 96.6283 26.7554 97.7402 26.7554C98.8521 26.7554 99.7265 27.6192 99.7265 28.9889C99.7265 30.3587 98.8297 31.2379 97.7123 31.2379ZM97.7123 30.6055C98.3939 30.6055 99.0588 30.0903 99.0588 28.9889C99.0588 27.8876 98.4051 27.3816 97.7318 27.3816C97.0585 27.3816 96.4188 27.8968 96.4188 28.9889C96.4188 30.081 97.0278 30.6055 97.7095 30.6055H97.7123Z" fill="#333333"/>
<path d="M104.113 25.6508C105.289 25.6508 105.848 26.3727 105.848 27.2735C105.848 27.9769 105.496 28.6494 104.658 28.8561L105.912 31.1668H105.13L103.94 28.9116H103.152V31.1668H102.498V25.6477H104.11L104.113 25.6508ZM104.113 26.2431H103.152V28.3347H104.113C104.85 28.3347 105.174 27.8905 105.174 27.2735C105.174 26.6565 104.859 26.2431 104.113 26.2431Z" fill="#333333"/>
<path d="M106.752 25.6355C106.752 25.3579 106.945 25.145 107.197 25.145C107.434 25.145 107.627 25.3579 107.627 25.6355C107.627 25.9132 107.434 26.126 107.197 26.126C106.945 26.126 106.752 25.9132 106.752 25.6355ZM106.859 26.8294H107.512V31.1669H106.859V26.8294Z" fill="#333333"/>
<path d="M110.337 31.2379C109.225 31.2379 108.378 30.3679 108.378 28.9889C108.378 27.6099 109.253 26.7554 110.365 26.7554C111.477 26.7554 112.351 27.6192 112.351 28.9889C112.351 30.3587 111.454 31.2379 110.337 31.2379ZM110.337 30.6055C111.018 30.6055 111.683 30.0903 111.683 28.9889C111.683 27.8876 111.03 27.3816 110.356 27.3816C109.683 27.3816 109.043 27.8968 109.043 28.9889C109.043 30.081 109.652 30.6055 110.334 30.6055H110.337Z" fill="#333333"/>
<path d="M119.69 27.2488H118.908C118.634 26.6072 118.089 26.237 117.388 26.237C116.335 26.237 115.544 27.0761 115.544 28.4057C115.544 29.7354 116.332 30.5683 117.388 30.5683C118.371 30.5683 119.045 29.8711 119.145 28.779H117.153V28.1929H119.841V28.7481C119.726 30.1179 118.743 31.2192 117.388 31.2192C116.033 31.2192 114.879 30.0624 114.879 28.4088C114.879 26.7552 115.983 25.5891 117.388 25.5891C118.441 25.5891 119.316 26.1907 119.69 27.2519V27.2488Z" fill="#333333"/>
<path d="M121.355 31.167H120.701V26.8295H121.355V27.5329C121.578 27.0485 122 26.7493 122.623 26.7493V27.4928H122.45C121.827 27.4928 121.352 27.8012 121.352 28.807V31.167H121.355Z" fill="#333333"/>
<path d="M124.995 26.7583C125.727 26.7583 126.227 27.1686 126.459 27.6221V26.8292H127.118V31.1668H126.459V30.3585C126.222 30.8243 125.713 31.2377 124.99 31.2377C123.942 31.2377 123.132 30.3276 123.132 28.9826C123.132 27.6375 123.942 26.7583 124.995 26.7583ZM125.124 27.3846C124.406 27.3846 123.797 27.9615 123.797 28.9826C123.797 30.0037 124.406 30.6053 125.124 30.6053C125.842 30.6053 126.456 30.013 126.456 28.9888C126.456 27.9645 125.839 27.3815 125.124 27.3815V27.3846Z" fill="#333333"/>
<path d="M131.096 28.7143C131.096 27.8289 130.658 27.3754 129.998 27.3754C129.339 27.3754 128.872 27.835 128.872 28.7698V31.1699H128.219V26.8324H128.872V27.4494C129.129 26.999 129.604 26.7522 130.135 26.7522C131.046 26.7522 131.742 27.3692 131.742 28.6125V31.1699H131.096V28.7143Z" fill="#333333"/>
<path d="M134.438 26.7584C135.055 26.7584 135.619 27.107 135.893 27.6068V25.3115H136.552V31.1699H135.893V30.3555C135.656 30.8398 135.147 31.2409 134.429 31.2409C133.376 31.2409 132.566 30.3308 132.566 28.9858C132.566 27.6407 133.376 26.7615 134.438 26.7615V26.7584ZM134.558 27.3846C133.84 27.3846 133.231 27.9615 133.231 28.9827C133.231 30.0038 133.84 30.6054 134.558 30.6054C135.276 30.6054 135.89 30.0131 135.89 28.9888C135.89 27.9646 135.273 27.3816 134.558 27.3816V27.3846Z" fill="#333333"/>
<path d="M139.355 31.2379C138.237 31.2379 137.413 30.3679 137.413 28.9889C137.413 27.6099 138.209 26.7554 139.355 26.7554C140.5 26.7554 141.24 27.6408 141.24 28.8285C141.24 28.9858 141.232 29.1123 141.218 29.2635H138.078C138.128 30.1427 138.687 30.624 139.355 30.624C139.941 30.624 140.316 30.2908 140.458 29.825H141.162C140.961 30.6178 140.33 31.2348 139.355 31.2348V31.2379ZM138.086 28.6835H140.567C140.576 27.8382 140 27.3693 139.327 27.3693C138.69 27.3693 138.159 27.8382 138.086 28.6835Z" fill="#333333"/>
<path d="M145.64 26.7584C146.258 26.7584 146.822 27.107 147.096 27.6068V25.3115H147.755V31.1699H147.096V30.3555C146.858 30.8398 146.35 31.2409 145.632 31.2409C144.579 31.2409 143.769 30.3308 143.769 28.9858C143.769 27.6407 144.579 26.7615 145.64 26.7615V26.7584ZM145.763 27.3846C145.045 27.3846 144.436 27.9615 144.436 28.9827C144.436 30.0038 145.045 30.6054 145.763 30.6054C146.481 30.6054 147.096 30.0131 147.096 28.9888C147.096 27.9646 146.478 27.3816 145.763 27.3816V27.3846Z" fill="#333333"/>
<path d="M150.574 31.2379C149.462 31.2379 148.615 30.3679 148.615 28.9889C148.615 27.6099 149.49 26.7554 150.602 26.7554C151.713 26.7554 152.588 27.6192 152.588 28.9889C152.588 30.3587 151.691 31.2379 150.574 31.2379ZM150.574 30.6055C151.255 30.6055 151.92 30.0903 151.92 28.9889C151.92 27.8876 151.269 27.3816 150.593 27.3816C149.917 27.3816 149.28 27.8968 149.28 28.9889C149.28 30.081 149.889 30.6055 150.571 30.6055H150.574Z" fill="#333333"/>
<path d="M156.946 31.2223C155.943 31.2223 155.234 30.6053 155.22 29.6952H155.915C155.957 30.1549 156.253 30.6146 156.949 30.6146C157.58 30.6146 157.952 30.2197 157.952 29.6952C157.952 28.2083 155.25 29.1584 155.25 27.1069C155.25 26.1968 155.918 25.5798 156.907 25.5798C157.896 25.5798 158.486 26.1567 158.564 26.9958H157.846C157.804 26.6226 157.488 26.203 156.879 26.1968C156.34 26.1814 155.918 26.4899 155.918 27.0822C155.918 28.5075 158.614 27.619 158.614 29.6644C158.614 30.448 158.033 31.2254 156.952 31.2254L156.946 31.2223Z" fill="#333333"/>
<path d="M163.053 31.1668H162.402V30.5251C162.151 30.9755 161.67 31.2285 161.148 31.2285C160.246 31.2285 159.536 30.6115 159.536 29.3682V26.8262H160.181V29.2726C160.181 30.1518 160.62 30.6022 161.279 30.6022C161.939 30.6022 162.405 30.1426 162.405 29.2078V26.8262H163.056V31.1637L163.053 31.1668Z" fill="#333333"/>
<path d="M164.157 25.3083H164.808V31.1668H164.157V25.3083Z" fill="#333333"/>
</g>
<defs>
<clipPath id="clip0_4232_5786">
<rect width="166" height="32.4551" fill="white" transform="translate(0 0.772461)"/>
</clipPath>
</defs>
</svg>
